<?xml version="1.0" standalone="no"?>
<!DOCTYPE svg PUBLIC "-//W3C//DTD SVG 1.1//EN" "http://www.w3.org/Graphics/SVG/1.1/DTD/svg11.dtd" >
<svg>
<metadata>
Created by FontForge 20090914 at Wed Dec 23 07:59:05 2020
 By www-data
URW Software, Copyright 1994 by URW
</metadata>
<defs>
<font id="FetteEngD" horiz-adv-x="1024" >
  <font-face 
    font-family="FetteEngD"
    font-weight="400"
    font-stretch="normal"
    units-per-em="2048"
    panose-1="0 0 0 0 0 0 0 0 0 0"
    ascent="1646"
    descent="-402"
    x-height="975"
    cap-height="1365"
    bbox="-183 -512 1365 1768"
    underline-thickness="176"
    underline-position="-110"
    unicode-range="U+0020-U+F002"
  />
<missing-glyph horiz-adv-x="410" 
d="M41 0v1365h328v-1365h-328zM328 41v1283h-246v-1283h246z" />
    <glyph glyph-name=".notdef" horiz-adv-x="410" 
d="M41 0v1365h328v-1365h-328zM328 41v1283h-246v-1283h246z" />
    <glyph glyph-name="space" unicode=" " horiz-adv-x="410" 
 />
    <glyph glyph-name="exclam" unicode="!" horiz-adv-x="661" 
d="M452 1365l-73 -1022h-96l-73 1022h242zM428 195v-195h-195v195h195z" />
    <glyph glyph-name="quotedbl" unicode="&#x22;" horiz-adv-x="786" 
d="M338 1365v-355h-159v355h159zM607 1365v-355h-159v355h159z" />
    <glyph glyph-name="numbersign" unicode="#" horiz-adv-x="901" 
d="M405 1034h178l46 331h172l-46 -331h135l-25 -176h-135l-38 -268h136l-25 -176h-135l-59 -414h-172l59 414h-178l-58 -414h-172l58 414h-135l25 176h135l37 268h-135l25 176h135l47 331h172zM380 858l-37 -268h177l38 268h-178z" />
    <glyph glyph-name="dollar" unicode="$" horiz-adv-x="786" 
d="M305 1336l-0.00390625 138.998h183v-139c40 -14 76.333 -35.333 109 -64c75.333 -69.333 112.333 -156.666 111 -261.999v-62h-195v62c0 39.333 -7 69.333 -21 90c-25.333 37.333 -57.666 56 -96.999 56c-44.667 0 -78 -21.667 -100 -65
c-10.667 -20.667 -16 -47.667 -16 -81v-35c0 -42.667 7 -74.334 21 -95.001c14.667 -21.333 59.334 -46.666 134.001 -75.999c111.333 -43.333 187.333 -98.666 228 -165.999c30.667 -47.333 46 -109.666 46 -186.999v-84c0 -43.333 -2 -76.333 -6 -99
s-12.333 -46.334 -25 -71.001c-44.667 -88 -107.667 -144 -189 -168v-166h-183v163c-51.333 14 -97 41 -137 81c-67.333 70 -100 156.667 -98 260v49h197v-49c0 -45.333 6 -78 18 -98c23.333 -39.333 58 -59 104 -59c50.667 0 87.334 23 110.001 69c9.33301 18 14 48 14 90
v68c0 36 -2 60 -6 72c-8.66699 27.333 -30.667 51 -66 71c-11.333 8 -45.666 23.667 -102.999 47c-174.667 67.333 -259.667 183.333 -255 348v35c-1.33301 106.667 37.334 194.667 116.001 264c31.333 27.333 66.666 48 105.999 62z" />
    <glyph glyph-name="percent" unicode="%" horiz-adv-x="939" 
d="M176 1122v103c0 34.667 10.333 66 31 94c29.333 38.667 68 58 116 58c52.667 0 93.667 -23 123 -69c15.333 -24 23 -51.667 23 -83v-103c0 -36.667 -7.66699 -65.667 -23 -87c-29.333 -39.333 -69.666 -59 -120.999 -59c-24.667 0 -48.834 5.83301 -72.501 17.5
s-41.5 26.5 -53.5 44.5c-15.333 23.333 -23 51.333 -23 84zM274 1225v-92c0 -1.33301 -0.333008 -4 -1 -8v-8c0 -12 5 -22.333 15 -31s21.667 -13 35 -13c32.667 0 49 20 49 60v93c0 16 -4.33301 28.833 -13 38.5s-20.667 14.5 -36 14.5c-32.667 0 -49 -18 -49 -54z
M761 1365l-457 -1365h-128l462 1365h123zM469 134l0.000976562 92.001c0 34.667 10.333 66 31 94c29.333 38.667 68 58 116 58c53.333 0 94.666 -23 123.999 -69c15.333 -24 23 -51.667 23 -83v-92c0 -37.333 -7.66699 -66.333 -23 -87
c-29.333 -39.333 -70.333 -59 -123 -59c-58.667 0 -102 24.333 -130 73c-12 21.333 -18 45.666 -18 72.999zM567.001 226.001v-92l-1 -17c0 -11.333 5 -21.333 15 -30s21.667 -13 35 -13c33.333 0 50 20 50 60v92c0 16.667 -4.5 30 -13.5 40s-20.833 15 -35.5 15
c-33.333 0 -50 -18.333 -50 -55z" />
    <glyph glyph-name="ampersand" unicode="&#x26;" horiz-adv-x="1164" 
d="M647 779l127.999 -281.002c18 51.333 33 139.333 45 264h162c-4 -77.333 -15 -162.666 -33 -255.999c-18.667 -96 -41 -177.333 -67 -244l121 -264h-220l-34 80c-72.667 -64.667 -151 -97 -235 -97c-108 0 -196 39.667 -264 119c-60 70 -90 161.333 -90 274
c0 140.667 46.667 261.667 140 363c26 28 61.667 60 107 96c-60.667 114.667 -91 211.334 -91 290.001c0 81.333 27.333 147 82 197c48 43.333 109.667 65 185 65c82.667 0 150 -25.667 202 -77c46 -45.333 69 -101.333 69 -168c0 -78.667 -24.667 -150.667 -74 -216
c-31.333 -42 -75.666 -90.333 -132.999 -145zM563.999 955.998c74.667 59.333 111.999 120.333 111.999 183c0 20 -7.33301 38.333 -22 55c-17.333 19.333 -39 29 -65 29c-25.333 0 -45.666 -8.66699 -60.999 -26s-23 -38 -23 -62c0 -53.333 19.667 -113 59 -179z
M499.998 654.998c-94 -80.667 -141 -170.334 -141 -269.001c0 -57.333 17 -107.666 51 -150.999c29.333 -37.333 67 -56 113 -56c58 0 104.333 32 139 96z" />
    <glyph glyph-name="quotesingle" unicode="'" horiz-adv-x="364" 
d="M261 1365v-355h-159v355h159z" />
    <glyph glyph-name="parenleft" unicode="(" horiz-adv-x="669" 
d="M411 1462h66c-58.667 -229.333 -88 -479 -88 -749c0 -289.333 34.333 -559.333 103 -810h-66c-74.667 111.333 -132 235.5 -172 372.5s-60 276.167 -60 417.5c0 276.667 72.333 533 217 769z" />
    <glyph glyph-name="parenright" unicode=")" horiz-adv-x="669" 
d="M258 1462c145.333 -238 218 -494.333 218 -769c0 -228 -49.667 -443.333 -149 -646c-22 -46 -49.667 -94 -83 -144h-67c69.333 252 104 522 104 810c0 268 -29.667 517.667 -89 749h66z" />
    <glyph glyph-name="asterisk" unicode="*" horiz-adv-x="677" 
d="M162 903l-73 114l131 79l-129 83l71 114l114 -72v144h135v-144l113 72l70 -113l-127 -81l131 -81l-72 -112l-115 70v-139h-135v139z" />
    <glyph glyph-name="plus" unicode="+" horiz-adv-x="787" 
d="M482 733h248v-176h-249v-238h-176v238h-248v176h249v239h176v-239z" />
    <glyph glyph-name="comma" unicode="," horiz-adv-x="390" 
d="M295 195v-195l-194 -145v340h194z" />
    <glyph glyph-name="hyphen" unicode="-" horiz-adv-x="792" 
d="M688 635v-195h-584v195h584z" />
    <glyph glyph-name="period" unicode="." horiz-adv-x="392" 
d="M293 195v-195h-195v195h195z" />
    <glyph glyph-name="slash" unicode="/" horiz-adv-x="650" 
d="M525 1365l-264 -1365h-135l265 1365h134z" />
    <glyph glyph-name="zero" unicode="0" horiz-adv-x="786" 
d="M101 301l0.000976562 771.001c0 70.667 15.667 129 47 175c28 40.667 63.833 72.5 107.5 95.5s90.167 34.5 139.5 34.5c76.667 0 143 -26 199 -78c44.667 -40.667 72.667 -88 84 -142c4.66699 -20 7 -48.333 7 -85v-771c0 -46.667 -4.33301 -84 -13 -112
s-24.334 -56.667 -47.001 -86c-28 -36 -62.5 -64.167 -103.5 -84.5s-82.833 -30.5 -125.5 -30.5c-73.333 0 -139 26 -197 78c-44 38.667 -73.667 92.667 -89 162c-6 27.333 -9 51.666 -9 72.999zM490.001 301.001l-0.000976562 771.001c0 32 -7 56.333 -21 73
c-20.667 24.667 -46 37 -76 37c-37.333 0 -65.666 -17 -84.999 -51c-8 -14 -12 -33.667 -12 -59v-771c0 -34.667 6 -60 18 -76c20.667 -28 47 -42 79 -42c42.667 0 72.667 20 90 60c4.66699 11.333 7 30.666 7 57.999z" />
    <glyph glyph-name="one" unicode="1" horiz-adv-x="786" 
d="M556 1365v-1365h-195v1160l-194 -144v206l194 143h195z" />
    <glyph glyph-name="two" unicode="2" horiz-adv-x="786" 
d="M325 195h354v-195h-583v181l363 704c15.333 30.667 23 64 23 100v102c0 22 -5.33301 40 -16 54c-20.667 27.333 -47.667 41 -81 41c-36 0 -63.333 -14.667 -82 -44c-9.33301 -14 -14 -35.333 -14 -64v-99h-197v99c4 60.667 16.333 110.667 37 150
c24 44 57.333 79.667 100 107c48 30.667 101 46 159 46c52.667 0 101.834 -13.333 147.501 -40s81.5 -63 107.5 -109c24 -42 36 -89 36 -141v-125c-2.66699 -58.667 -18.334 -114.667 -47.001 -168z" />
    <glyph glyph-name="three" unicode="3" horiz-adv-x="786" 
d="M553 711c32 -21.333 56.334 -41.668 73.001 -61.001c30 -38.667 44.667 -90 44 -154v-182c0 -50 -3 -85.333 -9 -106c-18.667 -67.333 -56.334 -121.666 -113.001 -162.999c-52 -38 -108.667 -57 -170 -57c-75.333 0 -142.333 28 -201 84c-60 57.333 -90 138 -90 242v79
h194v-64c0 -47.333 4.66699 -78.666 14 -93.999c20 -34.667 49 -52 87 -52c30 0 53 11.167 69 33.5s24 54.833 24 97.5v210c0 33.333 -10.667 59 -32 77c-17.333 14 -33.666 21.667 -48.999 23c-4 0.666992 -17.667 1 -41 1h-34v171h34c34 0 56.667 3 68 9
c20 10 34 23.167 42 39.5s12 38.833 12 67.5v163c0 31.333 -6.33301 54.666 -19 69.999c-20 24.667 -45 37 -75 37c-34.667 0 -62.334 -13 -83.001 -39c-11.333 -14 -17 -36.667 -17 -68v-100h-194v100c0 75.333 20.333 139 61 191c58 74 134.667 111 230 111
c49.333 0 96.5 -12.167 141.5 -36.5s80.5 -56.833 106.5 -97.5c29.333 -46 44 -102 44 -168v-160c3.33301 -88.667 -35.667 -156.667 -117 -204z" />
    <glyph glyph-name="four" unicode="4" horiz-adv-x="786" 
d="M628 209v-209h-195v209h-391v183l283 973h207l-293 -973h194v389h195v-389h95v-183h-95z" />
    <glyph glyph-name="five" unicode="5" horiz-adv-x="786" 
d="M292 1182v-365.001c50 42 101.667 63 155 63c36.667 0 72.5 -9.33301 107.5 -28s62.5 -43 82.5 -73c27.333 -40 41 -94.667 41 -164v-309c0 -59.333 -5.66699 -103.666 -17 -132.999c-26 -66 -72.667 -116.333 -140 -151c-44 -22.667 -88.333 -34 -133 -34
c-66 0 -127.667 22.333 -185 67c-72.667 57.333 -109 141 -109 251v35h198v-35c0 -37.333 5.33301 -64 16 -80c19.333 -28.667 46.333 -43 81 -43c36 0 63 15.333 81 46c8.66699 15.333 13 46 13 92v267c0 36.667 -4.66699 62 -14 76c-20 30.667 -48 46 -84 46
c-45.333 0 -76.333 -24.667 -93 -74h-172v729h558v-183h-386z" />
    <glyph glyph-name="six" unicode="6" horiz-adv-x="786" 
d="M386 793c29.333 9.33301 55.9971 13.9971 79.9971 13.9971c48 0 91.667 -14 131 -42c46.667 -33.333 74.667 -75 84 -125c3.33301 -17.333 5 -42.333 5 -75v-262c0 -44 -2.66699 -77.5 -8 -100.5s-16.666 -47.833 -33.999 -74.5c-27.333 -44 -63.833 -78.5 -109.5 -103.5
s-94.167 -37.5 -145.5 -37.5c-53.333 0 -103.166 14.167 -149.499 42.5s-82.166 66.833 -107.499 115.5c-21.333 40.667 -32 93.334 -32 158.001v215c0 36.667 2.33301 66.334 7 89.001c4 12.667 11.667 34.334 23 65.001l256 693h223zM490.997 302.997l0.000976562 215.001
c0 35.333 -6 61 -18 77c-20.667 27.333 -47.334 41 -80.001 41c-42 0 -72.333 -19.667 -91 -59c-4.66699 -10.667 -7 -30.334 -7 -59.001v-215c0 -36 7.33301 -63.333 22 -82c20.667 -25.333 46.667 -38 78 -38c42 0 71.333 18.333 88 55c5.33301 11.333 8 33 8 65z" />
    <glyph glyph-name="seven" unicode="7" horiz-adv-x="786" 
d="M499 1182h-218v-158h-172v341h584v-178l-320 -1187h-207z" />
    <glyph glyph-name="eight" unicode="8" horiz-adv-x="786" 
d="M591 722c65.333 -44 97.998 -108.332 97.998 -192.999v-248c0 -54 -13.333 -104 -40 -150c-25.333 -44.667 -60.5 -79.834 -105.5 -105.501s-93.5 -38.5 -145.5 -38.5c-55.333 0 -107.166 15.5 -155.499 46.5s-84.833 72.167 -109.5 123.5
c-18.667 39.333 -28 88.333 -28 147v239c4 77.333 37 137 99 179c-68.667 48.667 -101.667 116 -99 202v184c0 51.333 19.333 102.333 58 153c27.333 36 61.833 64.5 103.5 85.5s84.834 31.5 129.501 31.5c46 0 90.5 -11 133.5 -33s77.833 -51.333 104.5 -88
c36.667 -50 55 -107.333 55 -172v-175c-2 -84 -34.667 -146.667 -98 -188zM493.998 910.001v175c0 26 -7 47 -21 63c-20 23.333 -45.333 35 -76 35c-34 0 -61 -14 -81 -42c-10.667 -15.333 -16 -34 -16 -56v-175c0 -30 5.66699 -54.333 17 -73c18 -28.667 44.667 -43 80 -43
c32 0 56.167 9.83301 72.5 29.5s24.5 48.5 24.5 86.5zM493.998 304.001v239c0 32.667 -7.66699 57 -23 73c-20 20.667 -43.667 31 -71 31c-41.333 0 -71.333 -17.333 -90 -52c-6.66699 -12.667 -10 -30 -10 -52v-239c0 -81.333 32.333 -122 97 -122c40 0 69 17.667 87 53
c6.66699 12.667 10 35.667 10 69z" />
    <glyph glyph-name="nine" unicode="9" horiz-adv-x="786" 
d="M401 576c-34 -8.66699 -61 -13.001 -81 -13.001c-49.333 0 -93.333 14.667 -132 44c-52 40 -80.333 90.333 -85 151c-0.666992 11.333 -1 32.333 -1 63v278c0 52 19 105 57 159c56 79.333 134.333 119 235 119c54.667 0 104.667 -13.833 150 -41.5s81 -66.167 107 -115.5
c23.333 -45.333 35 -94.333 35 -147v-224c0.666992 -45.333 -10.333 -98.666 -33 -159.999l-258 -689h-223zM491 848.999l-0.000976562 224.001c0 33.333 -7.66699 58.666 -23 75.999c-21.333 22 -45.666 33 -72.999 33c-38 0 -67 -16.667 -87 -50
c-7.33301 -12.667 -11 -32.334 -11 -59.001v-224c0 -34.667 7.66699 -61 23 -79c20 -24.667 45 -37 75 -37c40 0 69.333 18 88 54c5.33301 10.667 8 31.334 8 62.001z" />
    <glyph glyph-name="colon" unicode=":" horiz-adv-x="673" 
d="M434 804v-195h-195v195h195zM434 372v-195h-195v195h195z" />
    <glyph glyph-name="semicolon" unicode=";" horiz-adv-x="676" 
d="M436 195v-195l-194 -145v340h194zM435 537v-195h-195v195h195z" />
    <glyph glyph-name="less" unicode="&#x3c;" 
d="M955 1208v-210l-662 -315l662 -315v-211l-887 436v180z" />
    <glyph glyph-name="equal" unicode="=" horiz-adv-x="787" 
d="M730 870v-176h-673v176h673zM730 597v-176h-673v176h673z" />
    <glyph glyph-name="greater" unicode="&#x3e;" 
d="M69 1208l887 -435v-180l-887 -436v211l662 315l-662 315v210z" />
    <glyph glyph-name="question" unicode="?" horiz-adv-x="893" 
d="M337 341l-0.000976562 109.002c0 52.667 3.33301 94 10 124c9.33301 38 26.666 77.667 51.999 119l103 166c22 35.333 33 77.666 33 126.999v106c0 25.333 -8 46 -24 62c-20 18.667 -44.667 28 -74 28c-64 0 -96 -38 -96 -114v-93h-194v93c0 69.333 17.333 129 52 179
c58.667 86.667 140 130 244 130c109.333 0 191.333 -48 246 -144c26.667 -46 40 -93 40 -141v-117c0.666992 -68 -14.666 -129.333 -45.999 -184l-101 -177c-21.333 -35.333 -34.666 -62.333 -39.999 -81c-4.66699 -16.667 -7 -44.334 -7 -83.001v-109h-198z
M534.999 194.002v-194h-198v194h198z" />
    <glyph glyph-name="at" unicode="@" horiz-adv-x="1243" 
d="M1003 117c-50 -40 -108.331 -71.5 -174.998 -94.5s-133 -34.5 -199 -34.5c-118.667 0 -225.334 36 -320.001 108c-107.333 82 -177 189 -209 321c-12 50 -18 112.333 -18 187v157c0 86 9.16699 159.667 27.5 221s48.833 120.666 91.5 177.999
c52.667 70.667 117.667 125 195 163c73.333 36 151 54 233 54c77.333 0 152.666 -16.333 225.999 -49s136 -77.667 188 -135c79.333 -87.333 119 -199.666 119 -336.999v-238c0 -68 -4.33301 -117.333 -13 -148c-30 -108 -112.667 -162 -248 -162
c-97.333 0 -159.333 35.667 -186 107c-64 -71.333 -130.333 -107 -199 -107c-36 0 -67.667 12 -95 36c-34 29.333 -51 66 -51 110c0 6.66699 1.33301 27 4 61l33 376c4 44.667 20.667 81.334 50 110.001c37.333 37.333 80.333 56 129 56c62.667 0 108 -27.667 136 -83l7 73
h154l-41 -470c-4 -45.333 -6 -73.333 -6 -84c0 -21.333 7 -39.666 21 -54.999c16 -16.667 36.333 -25 61 -25c46 0 75.333 21 88 63c6.66699 23.333 10 57 10 101v268c0 104.667 -29 192 -87 262c-38 45.333 -85.333 80.666 -142 105.999c-52 24 -104.667 36 -158 36
c-62 0 -120.5 -15.333 -175.5 -46s-101.167 -74 -138.5 -130c-58 -86 -87 -193.667 -87 -323v-135c0 -128.667 29 -236.334 87 -323.001c78.667 -117.333 187.667 -176 327 -176c95.333 0 191 33.667 287 101zM687.002 566l20.0029 235.001
c1.33301 13.333 2 23.666 2 30.999c0 20 -6.66699 36.667 -20 50c-13.333 14 -30 21 -50 21c-33.333 0 -58 -15 -74 -45c-4.66699 -8.66699 -8.33398 -27.667 -11.001 -57l-21 -235c-1.33301 -17.333 -2 -30 -2 -38c0 -18.667 7 -34.667 21 -48
c13.333 -12 29.666 -18 48.999 -18c32 0 56.333 14 73 42c5.33301 9.33301 9.66602 30 12.999 62z" />
    <glyph glyph-name="A" unicode="A" horiz-adv-x="777" 
d="M263 292l-55 -292h-207l305 1365h170l304 -1365h-207l-56 292h-254zM483 475l-93 498l-93 -498h186z" />
    <glyph glyph-name="B" unicode="B" horiz-adv-x="826" 
d="M106 0l0.000976562 1365h321c37.333 0 76.166 -8.66699 116.499 -26s75.5 -40.666 105.5 -69.999c60 -60 89.667 -134.333 89 -223v-106c0 -50.667 -14 -96.667 -42 -138c-24 -34.667 -55.667 -62 -95 -82c90 -51.333 135.667 -127.666 137 -228.999v-159
c0 -91.333 -28.667 -168 -86 -230c-64 -68.667 -145.333 -102.667 -244 -102h-302zM301.001 805.998h115c39.333 0 71.666 11.667 96.999 35c27.333 24.667 41.333 64.667 42 120v85c0 39.333 -14 72.333 -42 99c-27.333 24.667 -61.666 37 -102.999 37h-109v-376z
M301.001 194.998h111c40.667 0 74.667 13 102 39c27.333 27.333 41 60 41 98v159c0 44 -13.667 79 -41 105c-26.667 25.333 -61.667 38 -105 38h-108v-439z" />
    <glyph glyph-name="C" unicode="C" horiz-adv-x="789" 
d="M533 389l193.999 0.00195312v-46c0 -50 -3 -88.833 -9 -116.5s-17.333 -55.5 -34 -83.5c-24 -42 -57.667 -76.667 -101 -104c-54 -34.667 -111.333 -52 -172 -52c-54.667 0 -107 14.167 -157 42.5s-88.667 65.5 -116 111.5c-30 50.667 -45 118 -45 202v704
c0 75.333 18 139.333 54 192c30 43.333 68.5 77.333 115.5 102s96.833 37 149.5 37c56.667 0 109.667 -14.667 159 -44s88 -69.333 116 -120c26.667 -48.667 40 -104.334 40 -167.001v-72h-194v72c0 43.333 -10 75.333 -30 96c-25.333 26.667 -55.666 40 -90.999 40
c-42.667 0 -76.667 -17.333 -102 -52c-14.667 -19.333 -22 -47.333 -22 -84v-704c0 -36.667 0.666992 -59.834 2 -69.501s6 -20.5 14 -32.5c24.667 -38.667 60 -58 106 -58s82.333 20.667 109 62c9.33301 14 14 46.667 14 98v46z" />
    <glyph glyph-name="D" unicode="D" horiz-adv-x="829" 
d="M106 0l-0.000976562 1365h309c84 0 156.667 -27 218 -81c70 -63.333 104.667 -141.666 104 -234.999v-711c0.666992 -91.333 -26.666 -169 -81.999 -233c-65.333 -72 -147.333 -107 -246 -105h-303zM300.999 182.999l95 -0.000976562
c100 -1.33301 148.667 50.334 146 155.001v711c0 37.333 -14.333 69.333 -43 96c-26 24.667 -58.333 37 -97 37h-101v-999z" />
    <glyph glyph-name="E" unicode="E" horiz-adv-x="765" 
d="M301 599v-404h389v-195h-584v1365h584v-183h-389v-400h342v-183h-342z" />
    <glyph glyph-name="F" unicode="F" horiz-adv-x="754" 
d="M301 588v-588h-195v1365h582v-183h-387v-411h340v-183h-340z" />
    <glyph glyph-name="G" unicode="G" horiz-adv-x="836" 
d="M749 758v-411.001c0 -60 -5 -104.667 -15 -134c-22.667 -69.333 -63.667 -124.666 -123 -165.999c-55.333 -39.333 -117.333 -59 -186 -59c-52.667 0 -103.5 12.167 -152.5 36.5s-89.167 57.166 -120.5 98.499c-31.333 42 -50.333 87.667 -57 137
c-2.66699 22.667 -4 51.667 -4 87v685c0 74 16.667 137.667 50 191c64 102.667 157 154 279 154c118.667 0 210.667 -49 276 -147c28 -42 44.667 -84.333 50 -127c2 -14 3 -37.667 3 -71v-57h-195v57c0 42 -6.66699 72.667 -20 92c-28 38.667 -65.333 58 -112 58
c-50.667 0 -89.667 -21.667 -117 -65c-12.667 -20 -19 -48.333 -19 -85v-685c0 -35.333 0.833008 -57.666 2.5 -66.999s7.16699 -21 16.5 -35c28 -41.333 66.333 -62 115 -62c54 0 94 24.333 120 73c9.33301 18 14 48.333 14 91v240h-157v171h352z" />
    <glyph glyph-name="H" unicode="H" horiz-adv-x="848" 
d="M301 611v-611h-195v1365h195v-583h245v583h195v-1365h-195v611h-245z" />
    <glyph glyph-name="I" unicode="I" horiz-adv-x="408" 
d="M301 1365v-1365h-195v1365h195z" />
    <glyph glyph-name="J" unicode="J" horiz-adv-x="671" 
d="M579 1365l0.000976562 -1008c0 -64.667 -5.33301 -112.667 -16 -144c-24 -68 -66 -123 -126 -165c-56.667 -40 -118 -60 -184 -60c-100.667 0 -188.334 42 -263.001 126l152 122c32 -35.333 68.667 -53 110 -53c55.333 0 95.333 26 120 78c8 17.333 12 57.666 12 120.999
v983h195z" />
    <glyph glyph-name="K" unicode="K" horiz-adv-x="864" 
d="M521 821l314 -821h-207l-219 611l-108 -204v-407h-195v1365h195v-628l295 628h193z" />
    <glyph glyph-name="L" unicode="L" horiz-adv-x="732" 
d="M301 195h389v-195h-584v1365h195v-1170z" />
    <glyph glyph-name="M" unicode="M" horiz-adv-x="1090" 
d="M983 1365v-1365h-195v831l-197 -583h-97l-193 583v-831h-195v1365h181l259 -725l254 725h183z" />
    <glyph glyph-name="N" unicode="N" horiz-adv-x="896" 
d="M789 1365v-1365h-183l-305 829v-829h-195v1365h184l304 -827v827h195z" />
    <glyph glyph-name="O" unicode="O" horiz-adv-x="841" 
d="M749 1034l-0.000976562 -703c0 -89.333 -24 -163.333 -72 -222c-31.333 -38 -69.666 -67.667 -114.999 -89s-92.666 -32 -141.999 -32c-52.667 0 -103 12.333 -151 37s-87.333 59 -118 103c-40 56 -60 123.667 -60 203v703c0 79.333 20 147 60 203
c30.667 44 69.834 78.333 117.501 103s98.167 37 151.5 37c49.333 0 96.666 -10.667 141.999 -32s83.666 -51 114.999 -89c48 -59.333 72 -133.333 72 -222zM553.999 338l0.000976562 696.001c0 41.333 -8.33301 72.666 -25 93.999c-28.667 36 -64.334 54 -107.001 54
c-52 0 -92 -23.333 -120 -70c-10.667 -18 -16 -44 -16 -78v-696c0 -42.667 8 -75 24 -97c28.667 -38.667 65.334 -58 110.001 -58c51.333 0 90.666 23 117.999 69c10.667 18 16 46.667 16 86z" />
    <glyph glyph-name="P" unicode="P" horiz-adv-x="771" 
d="M301 538l-0.000976562 -537.999h-195v1365h319c86.667 0 160.667 -31.333 222 -94c34.667 -35.333 61.334 -81 80.001 -137c7.33301 -24.667 11 -45.334 11 -62.001v-197c0.666992 -98.667 -29.333 -179.667 -90 -243c-34 -34 -70 -58.167 -108 -72.5
s-84.333 -21.5 -139 -21.5h-100zM300.999 722.001l101 0.00195312c36 0 62.667 4.33301 80 13c27.333 13.333 46.333 30.166 57 50.499s16 50.166 16 89.499v178c0 32.667 -10.333 60.667 -31 84c-28 30 -63.333 45 -106 45h-117v-460z" />
    <glyph glyph-name="Q" unicode="Q" horiz-adv-x="835" 
d="M630 62c-59.333 -49.333 -128.333 -74 -207 -74c-47.333 0 -93.833 10.5 -139.5 31.5s-84.167 49.833 -115.5 86.5c-43.333 49.333 -68 103.333 -74 162c-2 18 -3 44.667 -3 80v679c0 92.667 26.667 170.667 80 234c65.333 77.333 149 116 251 116
c56.667 0 109.667 -13.5 159 -40.5s89 -64.167 119 -111.5c33.333 -52.667 50 -109.667 50 -171v-706c0 -68 -7 -116.333 -21 -145l130 -109l-109 -130zM473 194l-89.0029 74l109 130l62 -50v679c0 39.333 -7.66699 70.333 -23 93c-26.667 41.333 -64 62 -112 62
c-25.333 0 -49.166 -7 -71.499 -21s-39.166 -32.667 -50.499 -56c-8 -17.333 -12 -43.333 -12 -78v-680c0 -46 5.33301 -77.667 16 -95c28 -46.667 68.333 -70 121 -70c14.667 0 31.334 4 50.001 12z" />
    <glyph glyph-name="R" unicode="R" horiz-adv-x="843" 
d="M301 586v-586.002h-195v1365h340c86 0.666992 160.667 -30.666 224 -93.999c62.667 -65.333 94 -141.666 94 -228.999v-127c5.33301 -124 -47.667 -220 -159 -288l208 -627h-208l-184 586h-120zM301 757.998h134c48 0 85.667 14.667 113 44
c17.333 20 27.333 39.667 30 59c2 7.33301 3 25.333 3 54v127c0 42 -14 76.667 -42 104c-25.333 23.333 -59 35.333 -101 36h-137v-424z" />
    <glyph glyph-name="S" unicode="S" horiz-adv-x="792" 
d="M53 389l197 0.00195312v-49c0 -45.333 7 -78.333 21 -99c27.333 -38.667 67 -58 119 -58c57.333 0 98.666 22.667 123.999 68c10.667 18 16 48.333 16 91v95c0 36 -2.33301 60 -7 72c-8.66699 27.333 -32 51.333 -70 72c-13.333 7.33301 -50.333 22.666 -111 45.999
c-188.667 67.333 -280.667 183.333 -276 348v61c0 77.333 21 144.333 63 201c32 44 71.667 78.333 119 103s97 37 149 37c78 0 148.333 -26.333 211 -79c78 -66 117 -153.333 117 -262v-61h-195v61c0 39.333 -8 69.666 -24 90.999c-28.667 36.667 -65.667 55 -111 55
c-50 0 -88 -21.333 -114 -64c-12.667 -21.333 -19 -48.666 -19 -81.999v-61c0 -42.667 8 -74.334 24 -95.001c14.667 -22 62.667 -47.667 144 -77c103.333 -36 178.333 -82 225 -138s70 -127.333 70 -214v-111c0 -62 -7 -109.667 -21 -143
c-25.333 -63.333 -65.666 -114 -120.999 -152s-119.333 -57 -192 -57c-118.667 0 -211.667 47.667 -279 143c-39.333 56 -59 125.667 -59 209v49z" />
    <glyph glyph-name="T" unicode="T" horiz-adv-x="721" 
d="M457 1182v-1182h-195v1182h-229v183h657v-183h-233z" />
    <glyph glyph-name="U" unicode="U" horiz-adv-x="845" 
d="M740 1365l-0.000976562 -1043c0 -70 -15.333 -129.667 -46 -179c-31.333 -51.333 -72.666 -90.666 -123.999 -117.999c-46 -24.667 -95 -37 -147 -37c-78.667 0 -148.667 26.333 -210 79c-72 62 -108 147 -108 255v1043h195v-1043c0 -38 7 -66.667 21 -86
c25.333 -35.333 59.333 -53 102 -53c46 0 80.667 19.667 104 59c12 20 18 46.667 18 80v1043h195z" />
    <glyph glyph-name="V" unicode="V" horiz-adv-x="750" 
d="M743 1365l-284 -1365h-168l-279 1365h206l157 -947l161 947h207z" />
    <glyph glyph-name="W" unicode="W" horiz-adv-x="1132" 
d="M1102 1365l-191 -1365h-185l-160 830l-157 -830h-180l-199 1365h209l96 -825l159 825h145l159 -825l99 825h205z" />
    <glyph glyph-name="X" unicode="X" horiz-adv-x="787" 
d="M495 722l279 -722h-206l-171 463l-170 -463h-208l281 722l-255 643h206l148 -401l145 401h206z" />
    <glyph glyph-name="Y" unicode="Y" horiz-adv-x="702" 
d="M451 587v-587h-195v587l-264 778h205l158 -533l160 533h205z" />
    <glyph glyph-name="Z" unicode="Z" horiz-adv-x="707" 
d="M652 195v-195h-586v174l366 1008h-340v183h560v-157l-367 -1013h367z" />
    <glyph glyph-name="bracketleft" unicode="[" horiz-adv-x="669" 
d="M494 1462v-108h-122v-1343h122v-108h-299v1559h299z" />
    <glyph glyph-name="backslash" unicode="\" horiz-adv-x="650" 
d="M126 1365h134l265 -1365h-136z" />
    <glyph glyph-name="bracketright" unicode="]" horiz-adv-x="669" 
d="M175 1462h299v-1559h-299v108h122v1343h-122v108z" />
    <glyph glyph-name="asciicircum" unicode="^" 
d="M246 749h-193l341 621h237l341 -621h-194l-267 477z" />
    <glyph glyph-name="underscore" unicode="_" 
d="M0 -110h1024v-176h-1024v176z" />
    <glyph glyph-name="grave" unicode="`" 
d="M512 1393l106 -239h-161l-153 239h208z" />
    <glyph glyph-name="a" unicode="a" horiz-adv-x="739" 
d="M459 97c-44.667 -72.667 -106.333 -108.999 -185 -108.999c-38 0 -73.833 10.333 -107.5 31s-59.167 48.334 -76.5 83.001c-14.667 28.667 -22 69.334 -22 122.001v109c0 72.667 25.333 134 76 184c39.333 37.333 82 59.333 128 66c16.667 2.66699 42 4 76 4h111v84
c0 39.333 -6.33301 66.333 -19 81c-21.333 26.667 -47.333 40 -78 40c-36 0 -64.333 -16.333 -85 -49c-6.66699 -11.333 -11 -26 -13 -44h-196c0.666992 45.333 9.66699 85.666 27 120.999c22.667 47.333 55.667 85.666 99 114.999c50.667 34.667 106.667 52 168 52
c54.667 0 104.5 -13.333 149.5 -40s80.167 -63.334 105.5 -110.001c24.667 -46 37 -92 37 -138v-699h-195v97zM459.001 427.001l-74.999 0.000976562c-50.667 -0.666992 -84.667 -12 -102 -34c-12 -15.333 -18 -34.333 -18 -57v-49c0 -32.667 9.16699 -58.334 27.5 -77.001
s43.166 -28 74.499 -28c38 0 66 17.667 84 53c6 12 9 44.667 9 98v94z" />
    <glyph glyph-name="b" unicode="b" horiz-adv-x="751" 
d="M282 1365v-485c44.667 71.333 106.334 107 185.001 107c37.333 0 72.166 -9.16699 104.499 -27.5s57.5 -43.166 75.5 -74.499c17.333 -30.667 26 -71.334 26 -122.001v-536c0 -50.667 -3.66699 -86 -11 -106c-16 -40.667 -43.333 -73.667 -82 -99
c-36 -22.667 -74 -34 -114 -34c-76 0 -137.333 36.667 -184 110v-98h-195v1365h195zM478 320v366.999c0 30.667 -8.33301 55.334 -25 74.001c-19.333 20.667 -43.333 31 -72 31c-36.667 0 -65 -15 -85 -45c-9.33301 -14 -14 -34 -14 -60v-386c0 -37.333 7 -64.333 21 -81
c20 -24.667 45.333 -37 76 -37c42.667 0 73.667 20 93 60c4 8 6 33.667 6 77z" />
    <glyph glyph-name="c" unicode="c" horiz-adv-x="703" 
d="M461 292l193.998 -0.00195312c0.666992 -47.333 -7 -89.333 -23 -126c-21.333 -50 -55.333 -91.333 -102 -124c-51.333 -36 -107 -54 -167 -54c-46 0 -90.667 11.333 -134 34s-78.666 52.667 -105.999 90c-34.667 49.333 -52 111.666 -52 186.999v382
c0 64.667 16.667 122.334 50 173.001c27.333 41.333 62.833 74 106.5 98s89.834 36 138.501 36c92.667 0 168.334 -37.667 227.001 -113c40.667 -52 61.334 -116.667 62.001 -194h-194c0 11.333 -0.333008 20 -1 26c-2.66699 22.667 -13.334 42.334 -32.001 59.001
c-18.667 18 -40.334 27 -65.001 27c-34 0 -61.667 -15.333 -83 -46c-9.33301 -14 -14 -36 -14 -66v-382c0 -35.333 7 -61.666 21 -78.999c20 -24.667 45 -37 75 -37c40 0 69.333 18 88 54c7.33301 14 11 32.333 11 55z" />
    <glyph glyph-name="d" unicode="d" horiz-adv-x="750" 
d="M662 1365v-1365h-195v101c-43.333 -76 -104.666 -114 -183.999 -114c-38.667 0 -74.834 10.833 -108.501 32.5s-59.5 50.5 -77.5 86.5c-12.667 26.667 -19 74.667 -19 144v527c0 56 16.667 102.667 50 140c43.333 46.667 96 70 158 70c78.667 0 139 -34.667 181 -104v482
h195zM467 314v349c0 40 -4.66699 67.667 -14 83c-19.333 30.667 -47.333 46 -84 46c-42.667 0 -72 -19 -88 -57c-5.33301 -11.333 -8 -35.333 -8 -72v-349c0 -40 3.66699 -67 11 -81c18 -34 46.667 -51 86 -51c40 0 69.333 17.667 88 53c6 12 9 38.333 9 79z" />
    <glyph glyph-name="e" unicode="e" horiz-adv-x="722" 
d="M266 418l-0.000976562 -99.998c0 -42.667 3.66699 -70.667 11 -84c18 -34 46.333 -51 85 -51c57.333 0 90 33.333 98 100h195c0 -31.333 -3.66699 -59 -11 -83c-16 -52.667 -44 -97.334 -84 -134.001c-56 -52 -121.667 -78 -197 -78c-54.667 0 -106 15.167 -154 45.5
s-84.333 70.833 -109 121.5c-19.333 38.667 -29 93 -29 163v369c0 64.667 18 122.667 54 174c27.333 39.333 62.333 70.166 105 92.499s87.667 33.5 135 33.5c49.333 0 96.333 -12.5 141 -37.5s80.334 -58.833 107.001 -101.5c28 -45.333 42 -99 42 -161v-269h-389z
M459.999 576.002l-0.000976562 96.999c0 38 -7.66699 66 -23 84c-19.333 23.333 -44 35 -74 35c-37.333 0 -65.666 -16.333 -84.999 -49c-8 -13.333 -12 -36.666 -12 -69.999v-97h194z" />
    <glyph glyph-name="f" unicode="f" horiz-adv-x="482" 
d="M324 821v-821h-195v821h-96v154h96v134c-1.33301 74 23.667 136.667 75 188c38.667 36 80.334 57.333 125.001 64c15.333 2.66699 39.666 4 72.999 4h68v-180h-72c-52 1.33301 -76.667 -24 -74 -76v-134h146v-154h-146z" />
    <glyph glyph-name="g" unicode="g" horiz-adv-x="744" 
d="M657 975l-0.00292969 -1058c0 -47.333 -3 -83.833 -9 -109.5s-17.667 -51.5 -35 -77.5c-27.333 -41.333 -63.166 -73.666 -107.499 -96.999s-91.833 -35 -142.5 -35c-53.333 0 -102.166 13.167 -146.499 39.5s-80.166 63.5 -107.499 111.5
c-25.333 43.333 -38 91.666 -38 144.999h195c2 -26 8.33301 -46.333 19 -61c19.333 -26.667 45.333 -40 78 -40c42 0 72 19.333 90 58c6 12 9 34 9 66v183c-44 -74.667 -106 -112 -186 -112c-38 0 -73.833 10.667 -107.5 32s-59.5 49.666 -77.5 84.999
c-13.333 25.333 -20 67.666 -20 126.999v541c0 51.333 12.333 93.666 37 126.999c42 58 99 87 171 87c73.333 0 134.333 -34.667 183 -104v92h195zM461.997 306.003v371c0 36 -6.33301 62.333 -19 79c-20.667 27.333 -46.667 41 -78 41c-39.333 0 -69 -18.333 -89 -55
c-6.66699 -12 -10 -33.667 -10 -65v-371c0 -38.667 6 -66 18 -82c20 -27.333 46.667 -41 80 -41c46 0 76.667 21 92 63c4 12 6 32 6 60z" />
    <glyph glyph-name="h" unicode="h" horiz-adv-x="759" 
d="M282 1365l-0.000976562 -483.999c44.667 70.667 105.334 106 182.001 106c37.333 0 72.333 -9.33301 105 -28s58 -44.334 76 -77.001c17.333 -30 26 -71.667 26 -125v-757h-195v683c0 34.667 -7.33301 60 -22 76c-20 22 -44.667 33 -74 33c-39.333 0 -68 -17.333 -86 -52
c-8 -16.667 -12 -35.667 -12 -57v-683h-195v1365h195z" />
    <glyph glyph-name="i" unicode="i" horiz-adv-x="370" 
d="M282 975v-975h-195v975h195zM282 1365v-191h-195v191h195z" />
    <glyph glyph-name="j" unicode="j" horiz-adv-x="371" 
d="M283 975v-1072c0 -47.333 -5.66699 -87.333 -17 -120s-30.333 -63 -57 -91c-54 -55.333 -122 -82.666 -204 -81.999h-34v186h19c35.333 0 62.333 14 81 42c11.333 18 17 45 17 81v1056h195zM283 1365v-191h-195v191h195z" />
    <glyph glyph-name="k" unicode="k" horiz-adv-x="778" 
d="M282 270v-270h-195v1365h195v-813l244 423h195l-230 -387l279 -588h-220l-171 415z" />
    <glyph glyph-name="l" unicode="l" horiz-adv-x="414" 
d="M282 1365l-0.000976562 -1085c0 -32.667 2.66699 -53.667 8 -63c14 -20.667 38.667 -30.667 74 -30h14v-187h-43c-65.333 0 -119.666 16 -162.999 48c-31.333 23.333 -53.333 49.833 -66 79.5s-19 69.167 -19 118.5v1119h195z" />
    <glyph glyph-name="m" unicode="m" horiz-adv-x="1150" 
d="M282 887c44.667 66.667 105.001 99.999 181.001 99.999c75.333 0 134.666 -33.333 177.999 -100c52.667 66.667 116 100 190 100c43.333 0 83 -10.5 119 -31.5s64.333 -49.833 85 -86.5c18.667 -34.667 28 -76 28 -124v-745h-195v690c0 32.667 -8 57.834 -24 75.501
s-39.333 26.5 -70 26.5c-41.333 0 -71.333 -17.333 -90 -52c-8 -16 -12 -32.667 -12 -50v-690h-195v690c0 26 -6 46.667 -18 62c-20 26.667 -46.333 40 -79 40c-38 0 -66.667 -17 -86 -51c-8 -15.333 -12 -32.333 -12 -51v-690h-195v975h195v-88z" />
    <glyph glyph-name="n" unicode="n" horiz-adv-x="759" 
d="M282 880c43.333 71.333 104.332 107.001 182.999 107.001c36 0 70 -9 102 -27s57.333 -42.667 76 -74c18.667 -30.667 28 -73.334 28 -128.001v-758h-195v686c0 32 -7 56 -21 72c-19.333 22.667 -43.666 34 -72.999 34c-36 0 -64.333 -15 -85 -45
c-10 -14.667 -15 -35 -15 -61v-686h-195v975h195v-95z" />
    <glyph glyph-name="o" unicode="o" horiz-adv-x="726" 
d="M71 298v390c0 74 21 136.333 63 187c61.333 74.667 139 112 233 112c51.333 0 99.5 -13 144.5 -39s80.5 -61.333 106.5 -106c24.667 -42.667 37 -94 37 -154v-390c0 -74.667 -19.333 -138 -58 -190c-60 -80.667 -138.333 -121 -235 -121c-55.333 0 -106.5 15 -153.5 45
s-82.833 70.333 -107.5 121c-20 40.667 -30 89 -30 145zM460 298l-0.00195312 389.998c0 26.667 -6.33301 48 -19 64c-20 26.667 -46 40 -78 40c-37.333 0 -65.666 -16.333 -84.999 -49c-8 -13.333 -12 -31.666 -12 -54.999v-390c0 -31.333 7 -56.666 21 -75.999
c18.667 -26 44.334 -39 77.001 -39c38 0 66.667 16.333 86 49c6.66699 12 10 34 10 66z" />
    <glyph glyph-name="p" unicode="p" horiz-adv-x="751" 
d="M282 97v-487.001h-195v1365h195v-96c46 72 107.333 108 184 108s135 -32 175 -96c21.333 -34 32 -74 32 -120v-561c0 -57.333 -13.333 -103.666 -40 -138.999c-42 -55.333 -97 -83 -165 -83c-81.333 0 -143.333 36.333 -186 109zM478 303.999v381
c0 31.333 -7.66699 55.666 -23 72.999c-20.667 22.667 -45.667 34 -75 34c-39.333 0 -68.333 -17.333 -87 -52c-7.33301 -13.333 -11 -31.666 -11 -54.999v-381c0 -80.667 32.667 -121 98 -121c40.667 0 70 16.667 88 50c6.66699 12 10 35.667 10 71z" />
    <glyph glyph-name="q" unicode="q" horiz-adv-x="750" 
d="M662 975v-1365h-195v486c-48.667 -72 -109 -108 -181 -108c-38 0 -74 10.167 -108 30.5s-60 47.5 -78 81.5c-14.667 27.333 -22 65.666 -22 114.999v562c0 50.667 14.667 94.334 44 131.001c43.333 52.667 98.333 79 165 79c75.333 0 135.333 -36 180 -108v96h195z
M467 313l-0.00195312 370.998c0 28.667 -5.66699 51 -17 67c-19.333 27.333 -45.666 41 -78.999 41c-38 0 -66.667 -16.667 -86 -50c-8 -13.333 -12 -32.666 -12 -57.999v-371c0 -41.333 4.33301 -69.666 13 -84.999c18.667 -30 46.334 -45 83.001 -45
c39.333 0 68.333 16.667 87 50c7.33301 13.333 11 40 11 80z" />
    <glyph glyph-name="r" unicode="r" horiz-adv-x="572" 
d="M282 975l0.000976562 -104.999c63.333 73.333 147.666 113.333 252.999 120v-204c-23.333 6 -43 9 -59 9c-48 0 -90.667 -16.667 -128 -50c-35.333 -32.667 -56.333 -70 -63 -112c-2 -14.667 -3 -35.334 -3 -62.001v-571h-195v975h195z" />
    <glyph glyph-name="s" unicode="s" horiz-adv-x="676" 
d="M46 280h181.997c0.666992 -23.333 6.33398 -43 17.001 -59c22.667 -32.667 54 -49 94 -49c28 0 51.333 8.33301 70 25c24.667 21.333 37 49.666 37 84.999c0 31.333 -11.667 58 -35 80c-11.333 10.667 -37.666 23.334 -78.999 38.001l-37 13
c-51.333 18 -88.833 34 -112.5 48s-44.834 32.333 -63.501 55c-42 52 -63 112.333 -63 181c0 80 26.667 147.667 80 203c55.333 58 121.666 87 198.999 87c75.333 0 140.333 -26.667 195 -80s83.334 -120.333 86.001 -201h-181c-1.33301 24 -7 42.667 -17 56
c-19.333 27.333 -46 41 -80 41c-26 0 -48.333 -9 -67 -27c-20.667 -19.333 -31 -44 -31 -74c0 -35.333 10.667 -61.333 32 -78c14 -11.333 38.667 -23.333 74 -36l62 -21c68.667 -24 119 -55 151 -93c48.667 -58 73 -123 73 -195c0 -62.667 -18.333 -119.334 -55 -170.001
c-27.333 -38 -62.166 -68 -104.499 -90s-86.5 -33 -132.5 -33c-49.333 0 -97.666 13.333 -144.999 40s-84 61.334 -110 104.001c-25.333 42 -38.333 92 -39 150z" />
    <glyph glyph-name="t" unicode="t" horiz-adv-x="482" 
d="M302 821l0.000976562 -548.001c0 -29.333 2 -48 6 -56c12 -21.333 35.333 -31.666 70 -30.999h44v-186h-61c-54 0 -95 6.66699 -123 20c-92.667 44.667 -136.334 117 -131.001 217v584h-97v154h97v296h195v-296h120v-154h-120z" />
    <glyph glyph-name="u" unicode="u" horiz-adv-x="759" 
d="M671 975l-0.00195312 -975.001h-195v99c-25.333 -40 -51.833 -68.5 -79.5 -85.5s-61.167 -25.5 -100.5 -25.5c-40.667 0 -78.167 10.833 -112.5 32.5s-60.166 50.834 -77.499 87.501c-12.667 27.333 -19 72 -19 134v733h195v-659c0 -44.667 5 -75 15 -91
c18.667 -28 45.334 -42 80.001 -42c42 0 71.667 18.333 89 55c6.66699 14.667 10 40.667 10 78v659h195z" />
    <glyph glyph-name="v" unicode="v" horiz-adv-x="672" 
d="M681 975l-256 -975h-173l-253 975h206l133 -632l137 632h206z" />
    <glyph glyph-name="w" unicode="w" horiz-adv-x="1037" 
d="M1032 975l-231 -975h-169l-110 585l-110 -585h-171l-233 975h207l123 -606l109 606h145l112 -606l122 606h206z" />
    <glyph glyph-name="x" unicode="x" horiz-adv-x="651" 
d="M431 503l237 -503h-207l-129 306l-136 -306h-208l247 503l-231 472h209l119 -276l126 276h207z" />
    <glyph glyph-name="y" unicode="y" horiz-adv-x="674" 
d="M675 975l-282.001 -1139c-18 -74.667 -50.667 -131 -98 -169s-108 -57 -182 -57h-45v185h42c38.667 0.666992 67.334 12.334 86.001 35.001c12.667 16 23.667 42 33 78l34 131l-270 936h206l135 -605l135 605h206z" />
    <glyph glyph-name="z" unicode="z" horiz-adv-x="625" 
d="M579 183v-183h-534v158l314 646h-292v171h512v-145l-315 -647h315z" />
    <glyph glyph-name="braceleft" unicode="{" horiz-adv-x="669" 
d="M248 681c56 -25.333 93.332 -61.335 111.999 -108.002c12.667 -33.333 19 -78.333 19 -135v-247c0 -40 2.33301 -70.167 7 -90.5s13 -36.5 25 -48.5c28.667 -27.333 82.334 -40.666 161.001 -39.999v-108c-26 -0.666992 -45.667 -1 -59 -1
c-123.333 0 -208.333 28.667 -255 86c-35.333 43.333 -53 115 -53 215v243c-0.666992 69.333 -9 115 -25 137c-18.667 27.333 -49 45 -91 53v100c46.667 8.66699 79.334 31.667 98.001 69c12 26 18 67 18 123v251c0 96 21.667 166.333 65 211
c47.333 48 125.666 72 234.999 72c14 0 36.333 -0.666992 67 -2v-108c-72 0 -122.667 -11 -152 -33c-22.667 -17.333 -35.667 -46.333 -39 -87c-1.33301 -10.667 -2 -37.667 -2 -81v-230c0 -73.333 -11 -128.666 -33 -165.999c-17.333 -28.667 -50 -53.667 -98 -75z" />
    <glyph glyph-name="bar" unicode="|" 
d="M406 1365h212v-1706h-212v1706z" />
    <glyph glyph-name="braceright" unicode="}" horiz-adv-x="669" 
d="M420 681c-52 22.667 -86.3311 51.002 -102.998 85.002c-18.667 38.667 -28 90.667 -28 156v230c0 54.667 -2.33301 92 -7 112c-13.333 60 -75.333 89.667 -186 89v108c30.667 1.33301 53 2 67 2c118.667 0 201 -28.667 247 -86c35.333 -44 53 -109.667 53 -197v-251
c0 -63.333 7.66699 -107.666 23 -132.999c20 -31.333 51 -51 93 -59v-100c-46 -8.66699 -78 -29.334 -96 -62.001c-12.667 -22.667 -19.334 -65.334 -20.001 -128.001v-243c0 -61.333 -5 -108 -15 -140c-20.667 -66.667 -63.334 -112.667 -128.001 -138
c-39.333 -15.333 -94.333 -23 -165 -23c-13.333 0 -33 0.333008 -59 1v108c79.333 -0.666992 133 12.666 161 39.999c16.667 17.333 26.334 44 29.001 80c2 16 3 35.667 3 59v247c0 64 7.33301 112 22 144c19.333 42 55.666 75 108.999 99z" />
    <glyph glyph-name="asciitilde" unicode="~" horiz-adv-x="1365" 
d="M300 1168l-107.998 87c26 56.667 54 104 84 142c55.333 70 122.333 105 201 105c51.333 0 128.666 -25 231.999 -75c56.667 -27.333 94 -44 112 -50c28 -9.33301 53 -14 75 -14c61.333 0 118.666 48 171.999 144l108 -87c-29.333 -64 -58.333 -113.333 -87 -148
c-56.667 -67.333 -123 -101 -199 -101c-32 0 -71 9 -117 27c-22.667 9.33301 -58.667 25.666 -108 48.999c-92.667 42.667 -157.667 64 -195 64c-42 0 -79 -18.333 -111 -55c-18 -21.333 -37.667 -50.666 -59 -87.999z" />
    <glyph glyph-name="nbspace" unicode="&#xa0;" horiz-adv-x="410" 
 />
    <glyph glyph-name="exclamdown" unicode="&#xa1;" horiz-adv-x="661" 
d="M210 0l73 1023h95l74 -1023h-242zM234 1170v195h195v-195h-195z" />
    <glyph glyph-name="cent" unicode="&#xa2;" horiz-adv-x="683" 
d="M446 170l-0.000976562 -170.002h-183v171c-67.333 25.333 -117.666 62.5 -150.999 111.5s-50 110.167 -50 183.5v383c-0.666992 91.333 32.666 168.333 99.999 231c30.667 27.333 64.334 47 101.001 59v144h183v-142c58 -20.667 104.333 -53.667 139 -99
c41.333 -52.667 62 -111 62 -175v-18h-195c0 11.333 -0.333008 20 -1 26c-2.66699 22.667 -13 42.334 -31 59.001c-19.333 17.333 -41 26 -65 26c-34 0 -61.667 -15 -83 -45c-10 -14.667 -15 -36.667 -15 -66v-383c0 -35.333 7 -61.666 21 -78.999
c20 -24.667 45.333 -37 76 -37c40 0 69 18 87 54c7.33301 14 11 32.333 11 55h195c1.33301 -82 -24.334 -151 -77.001 -207c-35.333 -38 -76.666 -65.333 -123.999 -82z" />
    <glyph glyph-name="sterling" unicode="&#xa3;" horiz-adv-x="786" 
d="M138 569h-96.002v183h96v295c0 74.667 16.667 138.334 50 191.001c28 43.333 64.833 77.333 110.5 102s95.5 37 149.5 37c57.333 0 109.333 -14.333 156 -43s82.334 -68 107.001 -118c22 -44 33 -100.333 33 -169v-72h-194v72c0 42 -8.66699 73.667 -26 95
c-21.333 26.667 -48.333 40 -81 40c-39.333 0 -69.666 -17.333 -90.999 -52c-12.667 -21.333 -19 -49 -19 -83v-295h282v-183h-282v-374h448v-195h-739v180h14c26.667 0 46 4 58 12c12 9.33301 19.333 20.666 22 33.999c1.33301 3.33301 2 19 2 47v296z" />
    <glyph glyph-name="currency" unicode="&#xa4;" horiz-adv-x="800" 
d="M672 535l112 -112l-125 -124l-100 100c-50.667 -31.333 -103.667 -47 -159 -47s-108.333 15.667 -159 47l-100 -100l-125 124l112 112c-10.667 30 -16.334 66.667 -17.001 110v75c0.666992 43.333 6.33398 80 17.001 110l-112 112l125 124l99 -99
c52.667 30.667 106 46 160 46s107.333 -15.333 160 -46l99 99l125 -124l-112 -112c10.667 -30 16.334 -66.667 17.001 -110v-75c-0.666992 -43.333 -6.33398 -80 -17.001 -110zM530 664v37c0 37.333 -9.66699 68.333 -29 93c-26 34 -59.667 51 -101 51s-75 -17 -101 -51
c-19.333 -24.667 -29 -55.667 -29 -93v-37c0 -37.333 9.66699 -68.333 29 -93c26 -34 59.667 -51 101 -51s75 17 101 51c19.333 24.667 29 55.667 29 93z" />
    <glyph glyph-name="yen" unicode="&#xa5;" horiz-adv-x="787" 
d="M493 432v-432h-195v432h-223v176h216l-47 138h-182v176h122l-150 443h205l158 -534l160 534h205l-153 -443h112v-176h-173l-48 -138h221v-176h-228z" />
    <glyph glyph-name="brokenbar" unicode="&#xa6;" 
d="M406 1365h212v-697h-212v697zM406 314h212v-655h-212v655z" />
    <glyph glyph-name="section" unicode="&#xa7;" horiz-adv-x="786" 
d="M718 1159l-191.995 0.000976562c-2 42 -7 71 -15 87c-8.66699 18 -24.334 32.667 -47.001 44s-47.667 17 -75 17c-43.333 0 -77.333 -12.667 -102 -38c-19.333 -19.333 -29 -46.666 -29 -81.999c0 -42.667 14.333 -75 43 -97c24.667 -19.333 77.334 -43 158.001 -71
c105.333 -36.667 179.666 -78 222.999 -124c45.333 -50 68 -111.333 68 -184c0 -106.667 -45.667 -193.334 -137 -260.001c39.333 -34.667 66.666 -72 81.999 -112s23 -86.333 23 -139c0 -94 -26.333 -171 -79 -231c-61.333 -70.667 -145 -106 -251 -106
c-106.667 0 -191.667 32.667 -255 98c-54.667 56.667 -83 126.667 -85 210v35h191c1.33301 -50.667 14.166 -88 38.499 -112s61.166 -36 110.499 -36c90 0 135 49.333 135 148c0 47.333 -16 84.333 -48 111c-28 23.333 -87.667 51.333 -179 84
c-99.333 35.333 -167.666 77 -204.999 125c-37.333 46.667 -56 103 -56 169c0 112.667 46 199.667 138 261c-32 27.333 -55.333 52.666 -70 75.999c-28 45.333 -42 97.333 -42 156c0 101.333 34.333 181.333 103 240c57.333 49.333 130.666 74 219.999 74
c105.333 0 190.666 -34.667 255.999 -104c52.667 -55.333 79 -123.333 79 -204c0 -10 -0.333008 -21.667 -1 -35zM293.005 863.001c-42 -39.333 -63 -84.333 -63 -135c0 -65.333 31.667 -110 95 -134l159 -61c47.333 38 71 84.333 71 139c0 59.333 -34 102.333 -102 129z
" />
    <glyph glyph-name="dieresis" unicode="&#xa8;" 
d="M462 1365v-189h-193v189h193zM756 1365v-189h-193v189h193z" />
    <glyph glyph-name="copyright" unicode="&#xa9;" horiz-adv-x="1353" 
d="M68 604l0.000976562 157c0 85.333 10.5 159 31.5 221s55.167 121.333 102.5 178c59.333 70 132.333 124.333 219 163c82 36 167 54 255 54c127.333 0 244.333 -36 351 -108c119.333 -80 197.666 -186.667 234.999 -320c14.667 -50.667 22 -113.334 22 -188.001v-157
c0 -85.333 -10.5 -159 -31.5 -221s-55.5 -121.333 -103.5 -178c-58.667 -70 -131.334 -124.333 -218.001 -163c-82 -36 -167 -54 -255 -54c-127.333 0 -244.333 36 -351 108c-119.333 80 -197.666 186.667 -234.999 320c-14.667 50.667 -22 113.334 -22 188.001zM1164 615
v134.999c0 136 -36 249.333 -108 340c-47.333 60 -105.666 106.333 -174.999 139c-66 30.667 -134.333 46 -205 46c-102.667 0 -196.667 -30.667 -282 -92c-137.333 -98.667 -206 -243 -206 -433v-135c0 -136 36 -249.333 108 -340
c47.333 -59.333 105.666 -105.666 174.999 -138.999c66 -30.667 134.333 -46 205 -46c102.667 0 196.667 30.667 282 92c137.333 98.667 206 243 206 433zM743.001 525.999l153.001 -0.00390625v-40c0 -52.667 -10 -94 -30 -124c-19.333 -29.333 -46 -52.666 -80 -69.999
s-70.333 -26 -109 -26c-37.333 0 -73 8.5 -107 25.5s-61 40.167 -81 69.5c-21.333 30.667 -32 72.334 -32 125.001v408c0 46.667 12.667 86.334 38 119.001c44.667 57.333 105.667 86 183 86c39.333 0 76 -9 110 -27s60.667 -42.333 80 -73
c18.667 -30.667 28 -65.667 28 -105v-56h-153v56c0 42.667 -21.667 64 -65 64c-22.667 0 -41.334 -8 -56.001 -24c-7.33301 -8.66699 -11 -22 -11 -40v-408c0 -27.333 2.66699 -44.666 8 -51.999c13.333 -18 32.333 -27 57 -27s44.667 9.33301 60 28
c4.66699 6.66699 7 23.667 7 51v40z" />
    <glyph glyph-name="ordfeminine" unicode="&#xaa;" horiz-adv-x="603" 
d="M346 606c-22.667 -44.667 -58.332 -67.001 -106.999 -67.001c-59.333 0 -103 24.333 -131 73c-10.667 18.667 -16 44.334 -16 77.001v54c0 46 18 85 54 117c36 29.333 83.333 44 142 44h58v45c0 38 -16.667 57 -50 57c-30.667 0 -47.667 -16 -51 -48h-153
c0 36 6.33301 65.333 19 88c18 30.667 43.667 55 77 73s69.666 27 108.999 27c80 0 139 -31 177 -93c17.333 -28.667 26 -58 26 -88v-419h-154v60zM346.002 793.999l-35 -0.000976562c-24 0 -40.667 -2.66699 -50 -8c-10 -6 -14.667 -16.333 -14 -31v-42
c0 -31.333 15.667 -47 47 -47c23.333 0 38.333 7.66699 45 23c4.66699 10.667 7 27.334 7 50.001v55z" />
    <glyph glyph-name="guillemotleft" unicode="&#xab;" horiz-adv-x="871" 
d="M228 590l195 -194v-197l-389 391l389 390v-193zM596 590l195 -194v-197l-389 391l389 390v-193z" />
    <glyph glyph-name="logicalnot" unicode="&#xac;" 
d="M749 0v392h-681v186h887v-578h-206z" />
    <glyph glyph-name="sfthyphen" unicode="&#xad;" horiz-adv-x="792" 
d="M688 635v-195h-584v195h584z" />
    <glyph glyph-name="registered" unicode="&#xae;" horiz-adv-x="1353" 
d="M68 604l0.000976562 157c0 85.333 10.5 159 31.5 221s55.167 121.333 102.5 178c59.333 70 132.333 124.333 219 163c82 36 167 54 255 54c127.333 0 244.333 -36 351 -108c119.333 -80 197.666 -186.667 234.999 -320c14.667 -50.667 22 -113.334 22 -188.001v-157
c0 -85.333 -10.5 -159 -31.5 -221s-55.5 -121.333 -103.5 -178c-58.667 -70 -131.334 -124.333 -218.001 -163c-82 -36 -167 -54 -255 -54c-127.333 0 -244.333 36 -351 108c-119.333 80 -197.666 186.667 -234.999 320c-14.667 50.667 -22 113.334 -22 188.001zM1164 615
v134.999c0 136 -36 249.333 -108 340c-47.333 60 -105.666 106.333 -174.999 139c-66 30.667 -134.333 46 -205 46c-102.667 0 -196.667 -30.667 -282 -92c-137.333 -98.667 -206 -243 -206 -433v-135c0 -136 36 -249.333 108 -340
c47.333 -59.333 105.666 -105.666 174.999 -138.999c66 -30.667 134.333 -46 205 -46c102.667 0 196.667 30.667 282 92c137.333 98.667 206 243 206 433zM597.001 612.999v-340h-154v819h235c60 0.666992 112 -18.666 156 -57.999c43.333 -40.667 65 -88.334 65 -143.001
v-73c3.33301 -74 -30 -132 -100 -174l137 -371h-164l-120 340h-55zM597.001 739.999l74 0.000976562c28.667 0 49.5 6.16699 62.5 18.5s19.5 32.166 19.5 59.499v73c0 20 -7.66699 36.667 -23 50c-13.333 12 -32.333 18 -57 18h-76v-219z" />
    <glyph glyph-name="overscore" unicode="&#xaf;" 
d="M0 1651h1024v-176h-1024v176z" />
    <glyph glyph-name="degree" unicode="&#xb0;" horiz-adv-x="786" 
d="M396 1385c58.667 0 109.667 -21.334 153 -64.001c43.333 -43.333 65 -95.333 65 -156c0 -61.333 -21.667 -113.333 -65 -156c-42.667 -43.333 -94.667 -65 -156 -65s-113.333 21.667 -156 65c-43.333 42.667 -65 94.334 -65 155.001c0 62.667 21.667 115 65 157
c44 42.667 97 64 159 64zM393 1249c-22.667 0 -42.334 -8.33105 -59.001 -24.998s-25 -36.334 -25 -59.001s8.33301 -42.334 25 -59.001s36.667 -25 60 -25c22.667 0 42.334 8.33301 59.001 25c16.667 16 25 35.667 25 59c0 24 -8.33301 43.667 -25 59
c-16.667 16.667 -36.667 25 -60 25z" />
    <glyph glyph-name="plusminus" unicode="&#xb1;" horiz-adv-x="787" 
d="M482 733h248v-176h-249v-238h-176v238h-248v176h249v239h176v-239zM730 228v-176h-673v176h673z" />
    <glyph glyph-name="twosuperior" unicode="&#xb2;" horiz-adv-x="552" 
d="M255 687l221 0.00195312v-140h-406v122l238 412c8.66699 15.333 13 32.333 13 51v59c0 12 -4.66699 21.833 -14 29.5s-21.333 11.5 -36 11.5c-32.667 0 -49 -16.333 -49 -49v-71h-155v71c3.33301 38 12 69.333 26 94c38.667 63.333 99 95 181 95
c78 0 136.667 -30.667 176 -92c17.333 -26.667 26 -56.334 26 -89.001v-73c-1.33301 -36.667 -12 -71.334 -32 -104.001z" />
    <glyph glyph-name="threesuperior" unicode="&#xb3;" horiz-adv-x="552" 
d="M385 972c58 -24.667 85.999 -66.001 83.999 -124.001v-106c0 -45.333 -9 -82 -27 -110c-41.333 -62 -100 -93 -176 -93c-39.333 0 -76 10 -110 30s-59 46.333 -75 79c-12 24.667 -18 56 -18 94v46h153v-37c0 -25.333 2.66699 -41.666 8 -48.999
c10.667 -15.333 25.667 -23 45 -23c30.667 0 46 21 46 63v122c0.666992 33.333 -21 48.333 -65 45h-22v126h22c44.667 -2.66699 66.334 15 65.001 53v95c0 32.667 -15.333 49 -46 49c-35.333 0 -53 -16.333 -53 -49v-58h-153v58c0 46.667 14.333 86.667 43 120
c40 46 93 69 159 69c74 0 131.667 -28 173 -84c20.667 -28 31 -63 31 -105v-93c0.666992 -26 -6 -48.333 -20 -67c-10 -14.667 -31.333 -31.667 -64 -51z" />
    <glyph glyph-name="acute" unicode="&#xb4;" 
d="M519 1393h208l-152 -239h-162z" />
    <glyph glyph-name="mu" unicode="&#xb5;" horiz-adv-x="759" 
d="M87 975h194.997v-659c0 -44.667 5 -75 15 -91c18.667 -28 45.334 -42 80.001 -42c42 0 71.667 18.333 89 55c6.66699 14.667 10 40.667 10 78v659h195v-975h-195v99c-33.333 -74.667 -76.666 -112 -129.999 -112c-23.333 0 -44.666 7.33301 -63.999 22v-399h-195v1365z
" />
    <glyph glyph-name="paragraph" unicode="&#xb6;" horiz-adv-x="840" 
d="M366 674h-59c-84.667 -2.66699 -155.334 35.333 -212.001 114c-38 60 -57 134.667 -57 224v198c0 28.667 6.83301 61.834 20.5 99.501s30.834 70.5 51.501 98.5c25.333 35.333 59 61.666 101 78.999c24 10 48 15 72 15h469v-1639h-152v1511h-82v-1511h-152v811z" />
    <glyph glyph-name="middot" unicode="&#xb7;" horiz-adv-x="392" 
d="M293 625v-195h-195v195h195z" />
    <glyph glyph-name="cedilla" unicode="&#xb8;" 
d="M555 0l-20.001 -95c11.333 4 21.666 6 30.999 6c34 0 62.667 -11.333 86 -34c26 -24.667 39 -57.334 39 -98.001c0 -45.333 -17 -84.666 -51 -117.999c-29.333 -29.333 -68.666 -44 -117.999 -44c-47.333 0 -95.666 13.333 -144.999 40l20 85c38.667 -24 75 -36 109 -36
c14 0 26 4.33301 36 13c14 12 21 28.667 21 50c0 38.667 -17.667 58 -53 58c-16 0 -33.667 -4.33301 -53 -13l-28 41l34 145h92z" />
    <glyph glyph-name="onesuperior" unicode="&#xb9;" horiz-adv-x="552" 
d="M396 1365v-819h-154v661l-126 -84v153l136 89h144z" />
    <glyph glyph-name="ordmasculine" unicode="&#xba;" horiz-adv-x="595" 
d="M94 733l-0.000976562 226.001c0 46.667 15 86 45 118c42.667 46 96.334 69 161.001 69c76.667 0 134.667 -30 174 -90c18 -26.667 27 -59 27 -97v-226c0 -47.333 -14 -87.333 -42 -120c-41.333 -49.333 -95.333 -74 -162 -74c-38 0 -73.5 9.16699 -106.5 27.5
s-58.167 43.166 -75.5 74.499c-14 26 -21 56.667 -21 92zM346.999 733.001v226c0 14 -4.5 25.333 -13.5 34s-20.833 13 -35.5 13c-33.333 0 -50 -15.667 -50 -47v-226c0 -35.333 16.667 -53 50 -53c32.667 0 49 17.667 49 53z" />
    <glyph glyph-name="guillemotright" unicode="&#xbb;" horiz-adv-x="880" 
d="M291 590l-195 197v193l389 -390l-389 -391v197zM663 590l-195 197v193l389 -390l-389 -391v197z" />
    <glyph glyph-name="onequarter" unicode="&#xbc;" horiz-adv-x="1343" 
d="M355 1365v-819h-154v661l-126 -84v153l136 89h144zM933 1365l-462 -1365h-142l462 1365h142zM771 121v122l202 576h163l-204 -564h128v225h147v-225h55v-134h-55v-121h-147v121h-289z" />
    <glyph glyph-name="onehalf" unicode="&#xbd;" horiz-adv-x="1343" 
d="M368 1365v-819h-154v661l-126 -84v153l136 89h144zM946 1365l-462 -1365h-142l462 1365h142zM1018 140h221v-140h-406v122l238 412c8.66699 15.333 13 32.333 13 51v59c0 12 -4.66699 22 -14 30s-21.333 12 -36 12c-32.667 0 -49 -16.667 -49 -50v-71h-155v71
c3.33301 38.667 12 70 26 94c38 64 98.333 96 181 96c78 0 136.667 -30.667 176 -92c17.333 -27.333 26 -57.333 26 -90v-73c-1.33301 -36 -12 -70.667 -32 -104z" />
    <glyph glyph-name="threequarters" unicode="&#xbe;" horiz-adv-x="1343" 
d="M385 972c58 -24.667 85.999 -66.001 83.999 -124.001v-106c0 -45.333 -9 -82 -27 -110c-41.333 -62 -100 -93 -176 -93c-39.333 0 -76 10 -110 30s-59 46.333 -75 79c-12 24.667 -18 56 -18 94v46h153v-37c0 -25.333 2.66699 -41.666 8 -48.999
c10.667 -15.333 25.667 -23 45 -23c30.667 0 46 21 46 63v122c0.666992 33.333 -21 48.333 -65 45h-22v126h22c44.667 -2.66699 66.334 15 65.001 53v95c0 32.667 -15.333 49 -46 49c-35.333 0 -53 -16.333 -53 -49v-58h-153v58c0 46.667 14.333 86.667 43 120
c40 46 93 69 159 69c74 0 131.667 -28 173 -84c20.667 -28 31 -63 31 -105v-93c0.666992 -26 -6 -48.333 -20 -67c-10 -14.667 -31.333 -31.667 -64 -51zM993.999 1365l-462 -1365h-142l462 1365h142zM811.999 120.999v122l201 576h163l-204 -564h128v225h147v-225h55v-134
h-55v-121h-147v121h-288z" />
    <glyph glyph-name="questiondown" unicode="&#xbf;" horiz-adv-x="893" 
d="M557 1024l0.00195312 -109.003c0 -52.667 -3.33301 -94 -10 -124c-9.33301 -38 -26.666 -77.667 -51.999 -119l-103 -166c-22 -35.333 -33 -77.666 -33 -126.999v-106c0 -25.333 8.33301 -45.666 25 -60.999c19.333 -19.333 43.666 -29 72.999 -29c64 0 96 38 96 114v93
h194v-93c0 -69.333 -17.333 -129 -52 -179c-28 -40.667 -63.5 -72.5 -106.5 -95.5s-88.833 -34.5 -137.5 -34.5c-109.333 0 -191.333 48 -246 144c-26.667 46 -40 93 -40 141v117c-0.666992 68 14.666 129.333 45.999 184l101 177c21.333 35.333 34.666 62.333 39.999 81
c4.66699 16.667 7 44.334 7 83.001v109h198zM359.002 1171v194h198v-194h-198z" />
    <glyph glyph-name="Agrave" unicode="&#xc0;" horiz-adv-x="777" 
d="M263 292l-55 -292h-207l305 1365h170l304 -1365h-207l-56 292h-254zM483 475l-93 498l-93 -498h186zM360 1713l106 -239h-161l-153 239h208z" />
    <glyph glyph-name="Aacute" unicode="&#xc1;" horiz-adv-x="777" 
d="M263 292l-55 -292h-207l305 1365h170l304 -1365h-207l-56 292h-254zM483 475l-93 498l-93 -498h186zM422 1713h208l-152 -239h-162z" />
    <glyph glyph-name="Acircumflex" unicode="&#xc2;" horiz-adv-x="777" 
d="M263 292l-55 -292h-207l305 1365h170l304 -1365h-207l-56 292h-254zM483 475l-93 498l-93 -498h186zM635 1475h-176l-74 121l-86 -121h-162l168 238h169z" />
    <glyph glyph-name="Atilde" unicode="&#xc3;" horiz-adv-x="777" 
d="M263 292l-55 -292h-207l305 1365h170l304 -1365h-207l-56 292h-254zM483 475l-93 498l-93 -498h186zM519 1697h127.001c-2.66699 -53.333 -10 -92.333 -22 -117c-26 -55.333 -70.333 -83 -133 -83c-23.333 0 -55.666 7.33301 -96.999 22c-40.667 14 -68.667 21 -84 21
c-23.333 0 -38.333 -16.333 -45 -49h-136c6.66699 136.667 58.667 205 156 205c29.333 0 78.666 -12.333 147.999 -37c16 -5.33301 30.333 -8 43 -8c25.333 0 39.666 15.333 42.999 46z" />
    <glyph glyph-name="Adieresis" unicode="&#xc4;" horiz-adv-x="777" 
d="M263 292l-55 -292h-207l305 1365h170l304 -1365h-207l-56 292h-254zM483 475l-93 498l-93 -498h186zM326 1661v-195h-193v195h193zM644 1661v-195h-193v195h193z" />
    <glyph glyph-name="Aring" unicode="&#xc5;" horiz-adv-x="777" 
d="M263 292l-55 -292h-207l305 1365h170l304 -1365h-207l-56 292h-254zM483 475l-93 498l-93 -498h186zM390 1768c44.667 0 83.333 -16.333 116 -49c32.667 -32 49 -71.333 49 -118c0 -46 -16.333 -85.333 -49 -118s-72 -49 -118 -49s-85.333 16.333 -118 49s-49 72 -49 118
c0 46.667 16.333 86 49 118c33.333 32.667 73.333 49 120 49zM387.999 1657c-14.667 0 -27.667 -5.33398 -39 -16.001c-10.667 -11.333 -16 -24.333 -16 -39c0 -15.333 5.33301 -28.666 16 -39.999c11.333 -10.667 24.666 -16 39.999 -16c14.667 0 27.667 5.33301 39 16
c10.667 10.667 16 23.667 16 39c0 16 -5.33301 29.333 -16 40c-11.333 10.667 -24.666 16 -39.999 16z" />
    <glyph glyph-name="AE" unicode="&#xc6;" horiz-adv-x="1274" 
d="M1200 1365v-183h-389v-400h341v-183h-341v-404h389v-195h-584v360h-270l-139 -360h-206l569 1365h630zM616 1051l-200 -508h200v508z" />
    <glyph glyph-name="Ccedilla" unicode="&#xc7;" horiz-adv-x="789" 
d="M449 -10l-18.001 -84.999c11.333 4 22 6 32 6c34 0 62.667 -11.333 86 -34c26 -24.667 39 -57.334 39 -98.001c0 -45.333 -17 -84.666 -51 -117.999c-30 -29.333 -69.333 -44 -118 -44c-48 0 -96.667 13.333 -146 40l19 85c39.333 -24 76 -36 110 -36
c14 0 26 4.33301 36 13c14 12 21 28.667 21 50c0 38.667 -17.667 58 -53 58c-16 0 -33.667 -4.33301 -53 -13l-28 41l32 137c-64 12 -120.667 41.333 -170 88c-34 32.667 -58.167 69 -72.5 109s-21.5 91.333 -21.5 154v704c0 75.333 18 139.333 54 192
c30 43.333 68.5 77.333 115.5 102s96.833 37 149.5 37c56.667 0 109.667 -14.667 159 -44s88 -69.333 116 -120c26.667 -48.667 40 -104.334 40 -167.001v-72h-194v72c0 43.333 -10 75.333 -30 96c-25.333 26.667 -55.666 40 -90.999 40c-42.667 0 -76.667 -17.333 -102 -52
c-14.667 -19.333 -22 -47.333 -22 -84v-704c0 -36.667 0.666992 -59.834 2 -69.501s6 -20.5 14 -32.5c24.667 -38.667 60 -58 106 -58s82.333 20.667 109 62c9.33301 14 14 46.667 14 98v46h194v-46c0 -67.333 -6.66699 -118.666 -20 -153.999
c-30 -78.667 -85.667 -136.667 -167 -174c-28 -12.667 -58.333 -21 -91 -25z" />
    <glyph glyph-name="Egrave" unicode="&#xc8;" horiz-adv-x="765" 
d="M301 599v-404h389v-195h-584v1365h584v-183h-389v-400h342v-183h-342zM409 1713l106 -239h-161l-153 239h208z" />
    <glyph glyph-name="Eacute" unicode="&#xc9;" horiz-adv-x="765" 
d="M301 599v-404h389v-195h-584v1365h584v-183h-389v-400h342v-183h-342zM416 1713h208l-152 -239h-162z" />
    <glyph glyph-name="Ecircumflex" unicode="&#xca;" horiz-adv-x="765" 
d="M301 599v-404h389v-195h-584v1365h584v-183h-389v-400h342v-183h-342zM643 1475h-176l-74 121l-86 -121h-162l168 238h169z" />
    <glyph glyph-name="Edieresis" unicode="&#xcb;" horiz-adv-x="765" 
d="M301 599v-404h389v-195h-584v1365h584v-183h-389v-400h342v-183h-342zM333 1661v-195h-193v195h193zM651 1661v-195h-193v195h193z" />
    <glyph glyph-name="Igrave" unicode="&#xcc;" horiz-adv-x="408" 
d="M301 1365v-1365h-195v1365h195zM190 1713l106 -239h-161l-153 239h208z" />
    <glyph glyph-name="Iacute" unicode="&#xcd;" horiz-adv-x="408" 
d="M301 1365v-1365h-195v1365h195zM224 1713h208l-152 -239h-162z" />
    <glyph glyph-name="Icircumflex" unicode="&#xce;" horiz-adv-x="408" 
d="M301 1365v-1365h-195v1365h195zM451 1475h-176l-74 121l-86 -121h-162l168 238h169z" />
    <glyph glyph-name="Idieresis" unicode="&#xcf;" horiz-adv-x="408" 
d="M302 1365v-1365h-195v1365h195zM163 1661v-195h-166v195h166zM412 1661v-195h-166v195h166z" />
    <glyph glyph-name="Eth" unicode="&#xd0;" horiz-adv-x="829" 
d="M106 596l-86.001 -0.000976562v183h86v586h309c84 0 156.333 -27 217 -81c70.667 -63.333 105.667 -141.666 105 -234.999v-711c0.666992 -91.333 -26.666 -169 -81.999 -233c-65.333 -72 -147.333 -107 -246 -105h-303v596zM300.999 595.999v-413.001h95
c100 -1.33301 148.667 50.334 146 155.001v711c0 37.333 -14.333 69.333 -43 96c-26 24.667 -58.333 37 -97 37h-101v-403h119v-183h-119z" />
    <glyph glyph-name="Ntilde" unicode="&#xd1;" horiz-adv-x="896" 
d="M789 1365v-1365h-183l-305 829v-829h-195v1365h184l304 -827v827h195zM579 1697h127.001c-2.66699 -53.333 -10 -92.333 -22 -117c-26 -55.333 -70.333 -83 -133 -83c-23.333 0 -55.666 7.33301 -96.999 22c-40.667 14 -68.667 21 -84 21
c-23.333 0 -38.333 -16.333 -45 -49h-136c6.66699 136.667 58.667 205 156 205c29.333 0 78.666 -12.333 147.999 -37c16 -5.33301 30.333 -8 43 -8c25.333 0 39.666 15.333 42.999 46z" />
    <glyph glyph-name="Ograve" unicode="&#xd2;" horiz-adv-x="841" 
d="M749 1034l-0.000976562 -703c0 -89.333 -24 -163.333 -72 -222c-31.333 -38 -69.666 -67.667 -114.999 -89s-92.666 -32 -141.999 -32c-52.667 0 -103 12.333 -151 37s-87.333 59 -118 103c-40 56 -60 123.667 -60 203v703c0 79.333 20 147 60 203
c30.667 44 69.834 78.333 117.501 103s98.167 37 151.5 37c49.333 0 96.666 -10.667 141.999 -32s83.666 -51 114.999 -89c48 -59.333 72 -133.333 72 -222zM553.999 338l0.000976562 696.001c0 41.333 -8.33301 72.666 -25 93.999c-28.667 36 -64.334 54 -107.001 54
c-52 0 -92 -23.333 -120 -70c-10.667 -18 -16 -44 -16 -78v-696c0 -42.667 8 -75 24 -97c28.667 -38.667 65.334 -58 110.001 -58c51.333 0 90.666 23 117.999 69c10.667 18 16 46.667 16 86zM420 1713l106 -239h-161l-153 239h208z" />
    <glyph glyph-name="Oacute" unicode="&#xd3;" horiz-adv-x="841" 
d="M749 1034l-0.000976562 -703c0 -89.333 -24 -163.333 -72 -222c-31.333 -38 -69.666 -67.667 -114.999 -89s-92.666 -32 -141.999 -32c-52.667 0 -103 12.333 -151 37s-87.333 59 -118 103c-40 56 -60 123.667 -60 203v703c0 79.333 20 147 60 203
c30.667 44 69.834 78.333 117.501 103s98.167 37 151.5 37c49.333 0 96.666 -10.667 141.999 -32s83.666 -51 114.999 -89c48 -59.333 72 -133.333 72 -222zM553.999 338l0.000976562 696.001c0 41.333 -8.33301 72.666 -25 93.999c-28.667 36 -64.334 54 -107.001 54
c-52 0 -92 -23.333 -120 -70c-10.667 -18 -16 -44 -16 -78v-696c0 -42.667 8 -75 24 -97c28.667 -38.667 65.334 -58 110.001 -58c51.333 0 90.666 23 117.999 69c10.667 18 16 46.667 16 86zM427 1713h208l-152 -239h-162z" />
    <glyph glyph-name="Ocircumflex" unicode="&#xd4;" horiz-adv-x="841" 
d="M749 1034l-0.000976562 -703c0 -89.333 -24 -163.333 -72 -222c-31.333 -38 -69.666 -67.667 -114.999 -89s-92.666 -32 -141.999 -32c-52.667 0 -103 12.333 -151 37s-87.333 59 -118 103c-40 56 -60 123.667 -60 203v703c0 79.333 20 147 60 203
c30.667 44 69.834 78.333 117.501 103s98.167 37 151.5 37c49.333 0 96.666 -10.667 141.999 -32s83.666 -51 114.999 -89c48 -59.333 72 -133.333 72 -222zM553.999 338l0.000976562 696.001c0 41.333 -8.33301 72.666 -25 93.999c-28.667 36 -64.334 54 -107.001 54
c-52 0 -92 -23.333 -120 -70c-10.667 -18 -16 -44 -16 -78v-696c0 -42.667 8 -75 24 -97c28.667 -38.667 65.334 -58 110.001 -58c51.333 0 90.666 23 117.999 69c10.667 18 16 46.667 16 86zM667 1475h-176l-74 121l-86 -121h-162l168 238h169z" />
    <glyph glyph-name="Otilde" unicode="&#xd5;" horiz-adv-x="841" 
d="M749 1034l-0.000976562 -703c0 -89.333 -24 -163.333 -72 -222c-31.333 -38 -69.666 -67.667 -114.999 -89s-92.666 -32 -141.999 -32c-52.667 0 -103 12.333 -151 37s-87.333 59 -118 103c-40 56 -60 123.667 -60 203v703c0 79.333 20 147 60 203
c30.667 44 69.834 78.333 117.501 103s98.167 37 151.5 37c49.333 0 96.666 -10.667 141.999 -32s83.666 -51 114.999 -89c48 -59.333 72 -133.333 72 -222zM553.999 338l0.000976562 696.001c0 41.333 -8.33301 72.666 -25 93.999c-28.667 36 -64.334 54 -107.001 54
c-52 0 -92 -23.333 -120 -70c-10.667 -18 -16 -44 -16 -78v-696c0 -42.667 8 -75 24 -97c28.667 -38.667 65.334 -58 110.001 -58c51.333 0 90.666 23 117.999 69c10.667 18 16 46.667 16 86zM552 1697h127.001c-2.66699 -53.333 -10 -92.333 -22 -117
c-26 -55.333 -70.333 -83 -133 -83c-23.333 0 -55.666 7.33301 -96.999 22c-40.667 14 -68.667 21 -84 21c-23.333 0 -38.333 -16.333 -45 -49h-136c6.66699 136.667 58.667 205 156 205c29.333 0 78.666 -12.333 147.999 -37c16 -5.33301 30.333 -8 43 -8
c25.333 0 39.666 15.333 42.999 46z" />
    <glyph glyph-name="Odieresis" unicode="&#xd6;" horiz-adv-x="841" 
d="M749 1034l-0.000976562 -703c0 -89.333 -24 -163.333 -72 -222c-31.333 -38 -69.666 -67.667 -114.999 -89s-92.666 -32 -141.999 -32c-52.667 0 -103 12.333 -151 37s-87.333 59 -118 103c-40 56 -60 123.667 -60 203v703c0 79.333 20 147 60 203
c30.667 44 69.834 78.333 117.501 103s98.167 37 151.5 37c49.333 0 96.666 -10.667 141.999 -32s83.666 -51 114.999 -89c48 -59.333 72 -133.333 72 -222zM553.999 338l0.000976562 696.001c0 41.333 -8.33301 72.666 -25 93.999c-28.667 36 -64.334 54 -107.001 54
c-52 0 -92 -23.333 -120 -70c-10.667 -18 -16 -44 -16 -78v-696c0 -42.667 8 -75 24 -97c28.667 -38.667 65.334 -58 110.001 -58c51.333 0 90.666 23 117.999 69c10.667 18 16 46.667 16 86zM358 1661v-195h-193v195h193zM676 1661v-195h-193v195h193z" />
    <glyph glyph-name="multiply" unicode="&#xd7;" horiz-adv-x="786" 
d="M393 770l200 199l124 -124l-199 -200l199 -200l-124 -124l-200 199l-199 -199l-125 124l200 200l-200 200l125 124z" />
    <glyph glyph-name="Oslash" unicode="&#xd8;" horiz-adv-x="841" 
d="M705 1217c29.333 -52.667 44.332 -113.668 44.999 -183.001v-703c0 -89.333 -24 -163.333 -72 -222c-31.333 -38 -69.666 -67.667 -114.999 -89s-92.666 -32 -141.999 -32c-58.667 0 -115.334 16 -170.001 48l-41 -106l-136 52l64 167
c-30.667 52.667 -46 113.334 -46 182.001v703c0 79.333 20 147 60 203c30.667 44 70 78.333 118 103s98.667 37 152 37c55.333 0 112 -15.667 170 -47l40 105l136 -52zM554.999 846.999l-218 -633c28 -20.667 55.667 -31 83 -31c52 0 91.667 23 119 69
c10.667 18 16 46.667 16 86v509zM286.999 517.999l218 634c-26 20 -53 30 -81 30c-52.667 0 -93 -23.333 -121 -70c-10.667 -17.333 -16 -43.333 -16 -78v-516z" />
    <glyph glyph-name="Ugrave" unicode="&#xd9;" horiz-adv-x="845" 
d="M740 1365l-0.000976562 -1043c0 -70 -15.333 -129.667 -46 -179c-31.333 -51.333 -72.666 -90.666 -123.999 -117.999c-46 -24.667 -95 -37 -147 -37c-78.667 0 -148.667 26.333 -210 79c-72 62 -108 147 -108 255v1043h195v-1043c0 -38 7 -66.667 21 -86
c25.333 -35.333 59.333 -53 102 -53c46 0 80.667 19.667 104 59c12 20 18 46.667 18 80v1043h195zM421.999 1713l106 -239h-161l-153 239h208z" />
    <glyph glyph-name="Uacute" unicode="&#xda;" horiz-adv-x="845" 
d="M740 1365l-0.000976562 -1043c0 -70 -15.333 -129.667 -46 -179c-31.333 -51.333 -72.666 -90.666 -123.999 -117.999c-46 -24.667 -95 -37 -147 -37c-78.667 0 -148.667 26.333 -210 79c-72 62 -108 147 -108 255v1043h195v-1043c0 -38 7 -66.667 21 -86
c25.333 -35.333 59.333 -53 102 -53c46 0 80.667 19.667 104 59c12 20 18 46.667 18 80v1043h195zM428.999 1713h208l-152 -239h-162z" />
    <glyph glyph-name="Ucircumflex" unicode="&#xdb;" horiz-adv-x="845" 
d="M740 1365l-0.000976562 -1043c0 -70 -15.333 -129.667 -46 -179c-31.333 -51.333 -72.666 -90.666 -123.999 -117.999c-46 -24.667 -95 -37 -147 -37c-78.667 0 -148.667 26.333 -210 79c-72 62 -108 147 -108 255v1043h195v-1043c0 -38 7 -66.667 21 -86
c25.333 -35.333 59.333 -53 102 -53c46 0 80.667 19.667 104 59c12 20 18 46.667 18 80v1043h195zM669.999 1475h-176l-74 121l-86 -121h-162l168 238h169z" />
    <glyph glyph-name="Udieresis" unicode="&#xdc;" horiz-adv-x="845" 
d="M740 1365l-0.000976562 -1043c0 -70 -15.333 -129.667 -46 -179c-31.333 -51.333 -72.666 -90.666 -123.999 -117.999c-46 -24.667 -95 -37 -147 -37c-78.667 0 -148.667 26.333 -210 79c-72 62 -108 147 -108 255v1043h195v-1043c0 -38 7 -66.667 21 -86
c25.333 -35.333 59.333 -53 102 -53c46 0 80.667 19.667 104 59c12 20 18 46.667 18 80v1043h195zM359.999 1661v-195h-193v195h193zM677.999 1661v-195h-193v195h193z" />
    <glyph glyph-name="Yacute" unicode="&#xdd;" horiz-adv-x="702" 
d="M451 587v-587h-195v587l-264 778h205l158 -533l160 533h205zM359 1713h208l-152 -239h-162z" />
    <glyph glyph-name="Thorn" unicode="&#xde;" horiz-adv-x="771" 
d="M301 319l-0.00195312 -319h-195v1365h195v-218h124c86.667 0 160.667 -31.333 222 -94c34.667 -35.333 61.334 -81 80.001 -137c7.33301 -25.333 11 -46 11 -62v-198c0 -59.333 -7.66699 -107 -23 -143c-29.333 -71.333 -80.666 -125.333 -153.999 -162
c-42.667 -21.333 -96 -32 -160 -32h-100zM300.998 503l101 0.00292969c36 0 62.667 4.33301 80 13c27.333 13.333 46.333 30.166 57 50.499s16 50.166 16 89.499v178c0 33.333 -10.333 61.666 -31 84.999c-28 30 -63.333 45 -106 45h-117v-461z" />
    <glyph glyph-name="germandbls" unicode="&#xdf;" horiz-adv-x="754" 
d="M87 0v1060c0 50.667 3.66699 88 11 112c20.667 64.667 59.334 116 116.001 154c50 34 105.333 51 166 51c102 0 182 -41 240 -123c35.333 -50.667 53 -102.334 53 -155.001v-124c2.66699 -81.333 -33.333 -140.666 -108 -177.999
c73.333 -46.667 109.333 -111.667 108 -195v-360c2 -75.333 -22.333 -137.666 -73 -186.999c-38.667 -36 -89 -54.333 -151 -55h-44v185h17c47.333 0 69.666 26.333 66.999 79v382c0 43.333 -24 65 -72 65h-12v169h13c21.333 0 38.333 4.66699 51 14c13.333 12 20 30 20 54
v130c0 24 -4.33301 43 -13 57c-20 31.333 -51 47 -93 47c-67.333 0 -101 -40.667 -101 -122v-1060h-195z" />
    <glyph glyph-name="agrave" unicode="&#xe0;" horiz-adv-x="739" 
d="M459 97c-44.667 -72.667 -106.333 -108.999 -185 -108.999c-38 0 -73.833 10.333 -107.5 31s-59.167 48.334 -76.5 83.001c-14.667 28.667 -22 69.334 -22 122.001v109c0 72.667 25.333 134 76 184c39.333 37.333 82 59.333 128 66c16.667 2.66699 42 4 76 4h111v84
c0 39.333 -6.33301 66.333 -19 81c-21.333 26.667 -47.333 40 -78 40c-36 0 -64.333 -16.333 -85 -49c-6.66699 -11.333 -11 -26 -13 -44h-196c0.666992 45.333 9.66699 85.666 27 120.999c22.667 47.333 55.667 85.666 99 114.999c50.667 34.667 106.667 52 168 52
c54.667 0 104.5 -13.333 149.5 -40s80.167 -63.334 105.5 -110.001c24.667 -46 37 -92 37 -138v-699h-195v97zM459.001 427.001l-74.999 0.000976562c-50.667 -0.666992 -84.667 -12 -102 -34c-12 -15.333 -18 -34.333 -18 -57v-49c0 -32.667 9.16699 -58.334 27.5 -77.001
s43.166 -28 74.499 -28c38 0 66 17.667 84 53c6 12 9 44.667 9 98v94zM369.002 1393l106 -239h-161l-153 239h208z" />
    <glyph glyph-name="aacute" unicode="&#xe1;" horiz-adv-x="739" 
d="M459 97c-44.667 -72.667 -106.333 -108.999 -185 -108.999c-38 0 -73.833 10.333 -107.5 31s-59.167 48.334 -76.5 83.001c-14.667 28.667 -22 69.334 -22 122.001v109c0 72.667 25.333 134 76 184c39.333 37.333 82 59.333 128 66c16.667 2.66699 42 4 76 4h111v84
c0 39.333 -6.33301 66.333 -19 81c-21.333 26.667 -47.333 40 -78 40c-36 0 -64.333 -16.333 -85 -49c-6.66699 -11.333 -11 -26 -13 -44h-196c0.666992 45.333 9.66699 85.666 27 120.999c22.667 47.333 55.667 85.666 99 114.999c50.667 34.667 106.667 52 168 52
c54.667 0 104.5 -13.333 149.5 -40s80.167 -63.334 105.5 -110.001c24.667 -46 37 -92 37 -138v-699h-195v97zM459.001 427.001l-74.999 0.000976562c-50.667 -0.666992 -84.667 -12 -102 -34c-12 -15.333 -18 -34.333 -18 -57v-49c0 -32.667 9.16699 -58.334 27.5 -77.001
s43.166 -28 74.499 -28c38 0 66 17.667 84 53c6 12 9 44.667 9 98v94zM376.002 1393h208l-152 -239h-162z" />
    <glyph glyph-name="acircumflex" unicode="&#xe2;" horiz-adv-x="739" 
d="M459 97c-44.667 -72.667 -106.333 -108.999 -185 -108.999c-38 0 -73.833 10.333 -107.5 31s-59.167 48.334 -76.5 83.001c-14.667 28.667 -22 69.334 -22 122.001v109c0 72.667 25.333 134 76 184c39.333 37.333 82 59.333 128 66c16.667 2.66699 42 4 76 4h111v84
c0 39.333 -6.33301 66.333 -19 81c-21.333 26.667 -47.333 40 -78 40c-36 0 -64.333 -16.333 -85 -49c-6.66699 -11.333 -11 -26 -13 -44h-196c0.666992 45.333 9.66699 85.666 27 120.999c22.667 47.333 55.667 85.666 99 114.999c50.667 34.667 106.667 52 168 52
c54.667 0 104.5 -13.333 149.5 -40s80.167 -63.334 105.5 -110.001c24.667 -46 37 -92 37 -138v-699h-195v97zM459.001 427.001l-74.999 0.000976562c-50.667 -0.666992 -84.667 -12 -102 -34c-12 -15.333 -18 -34.333 -18 -57v-49c0 -32.667 9.16699 -58.334 27.5 -77.001
s43.166 -28 74.499 -28c38 0 66 17.667 84 53c6 12 9 44.667 9 98v94zM618.002 1147h-176l-74 121l-86 -121h-162l168 239h169z" />
    <glyph glyph-name="atilde" unicode="&#xe3;" horiz-adv-x="739" 
d="M459 97c-44.667 -72.667 -106.333 -108.999 -185 -108.999c-38 0 -73.833 10.333 -107.5 31s-59.167 48.334 -76.5 83.001c-14.667 28.667 -22 69.334 -22 122.001v109c0 72.667 25.333 134 76 184c39.333 37.333 82 59.333 128 66c16.667 2.66699 42 4 76 4h111v84
c0 39.333 -6.33301 66.333 -19 81c-21.333 26.667 -47.333 40 -78 40c-36 0 -64.333 -16.333 -85 -49c-6.66699 -11.333 -11 -26 -13 -44h-196c0.666992 45.333 9.66699 85.666 27 120.999c22.667 47.333 55.667 85.666 99 114.999c50.667 34.667 106.667 52 168 52
c54.667 0 104.5 -13.333 149.5 -40s80.167 -63.334 105.5 -110.001c24.667 -46 37 -92 37 -138v-699h-195v97zM459.001 427.001l-74.999 0.000976562c-50.667 -0.666992 -84.667 -12 -102 -34c-12 -15.333 -18 -34.333 -18 -57v-49c0 -32.667 9.16699 -58.334 27.5 -77.001
s43.166 -28 74.499 -28c38 0 66 17.667 84 53c6 12 9 44.667 9 98v94zM501.002 1371h126.999c-2.66699 -53.333 -10 -92 -22 -116c-26 -55.333 -70.333 -83 -133 -83c-23.333 0 -55.666 7 -96.999 21c-41.333 14.667 -69.333 22 -84 22c-23.333 0 -38.333 -16.333 -45 -49
h-136c6.66699 136 58.667 204 156 204c28 0 77.333 -12.333 148 -37c16 -5.33301 30.333 -8 43 -8c26 0 40.333 15.333 43 46z" />
    <glyph glyph-name="adieresis" unicode="&#xe4;" horiz-adv-x="739" 
d="M459 97c-44.667 -72.667 -106.333 -108.999 -185 -108.999c-38 0 -73.833 10.333 -107.5 31s-59.167 48.334 -76.5 83.001c-14.667 28.667 -22 69.334 -22 122.001v109c0 72.667 25.333 134 76 184c39.333 37.333 82 59.333 128 66c16.667 2.66699 42 4 76 4h111v84
c0 39.333 -6.33301 66.333 -19 81c-21.333 26.667 -47.333 40 -78 40c-36 0 -64.333 -16.333 -85 -49c-6.66699 -11.333 -11 -26 -13 -44h-196c0.666992 45.333 9.66699 85.666 27 120.999c22.667 47.333 55.667 85.666 99 114.999c50.667 34.667 106.667 52 168 52
c54.667 0 104.5 -13.333 149.5 -40s80.167 -63.334 105.5 -110.001c24.667 -46 37 -92 37 -138v-699h-195v97zM459.001 427.001l-74.999 0.000976562c-50.667 -0.666992 -84.667 -12 -102 -34c-12 -15.333 -18 -34.333 -18 -57v-49c0 -32.667 9.16699 -58.334 27.5 -77.001
s43.166 -28 74.499 -28c38 0 66 17.667 84 53c6 12 9 44.667 9 98v94zM319.002 1365v-189h-193v189h193zM613.002 1365v-189h-193v189h193z" />
    <glyph glyph-name="aring" unicode="&#xe5;" horiz-adv-x="739" 
d="M459 97c-44.667 -72.667 -106.333 -108.999 -185 -108.999c-38 0 -73.833 10.333 -107.5 31s-59.167 48.334 -76.5 83.001c-14.667 28.667 -22 69.334 -22 122.001v109c0 72.667 25.333 134 76 184c39.333 37.333 82 59.333 128 66c16.667 2.66699 42 4 76 4h111v84
c0 39.333 -6.33301 66.333 -19 81c-21.333 26.667 -47.333 40 -78 40c-36 0 -64.333 -16.333 -85 -49c-6.66699 -11.333 -11 -26 -13 -44h-196c0.666992 45.333 9.66699 85.666 27 120.999c22.667 47.333 55.667 85.666 99 114.999c50.667 34.667 106.667 52 168 52
c54.667 0 104.5 -13.333 149.5 -40s80.167 -63.334 105.5 -110.001c24.667 -46 37 -92 37 -138v-699h-195v97zM459.001 427.001l-74.999 0.000976562c-50.667 -0.666992 -84.667 -12 -102 -34c-12 -15.333 -18 -34.333 -18 -57v-49c0 -32.667 9.16699 -58.334 27.5 -77.001
s43.166 -28 74.499 -28c38 0 66 17.667 84 53c6 12 9 44.667 9 98v94zM371.002 1471c44.667 0 83.333 -16.333 116 -49s49 -72 49 -118s-16.333 -85.333 -49 -118s-72 -49 -118 -49s-85.333 16.333 -118 49s-49 72 -49 118c0 46.667 16.333 86 49 118
c33.333 32.667 73.333 49 120 49zM369.001 1359c-14.667 0 -27.667 -5.33398 -39 -16.001c-10.667 -10.667 -16 -23.667 -16 -39s5.33301 -28.666 16 -39.999c11.333 -10.667 24.666 -16 39.999 -16c14.667 0 27.667 5.33301 39 16c10.667 11.333 16 24.333 16 39
c0 16 -5.33301 29.333 -16 40c-11.333 10.667 -24.666 16 -39.999 16z" />
    <glyph glyph-name="ae" unicode="&#xe6;" horiz-adv-x="1110" 
d="M557 904c56.667 55.333 122.332 83 196.999 83c49.333 0 96.166 -12.5 140.499 -37.5s79.833 -58.833 106.5 -101.5c28 -45.333 42 -99 42 -161v-269h-390v-100c0 -42.667 3.66699 -70.667 11 -84c18 -34 46.667 -51 86 -51s68 17.667 86 53
c5.33301 11.333 9.33301 27 12 47h195c0 -31.333 -3.66699 -58.666 -11 -81.999c-16 -54 -44 -99 -84 -135c-56 -52 -127 -78 -213 -78c-100.667 0 -169 36.667 -205 110c-65.333 -73.333 -141.333 -110 -228 -110c-49.333 0 -92.833 10 -130.5 30s-65.167 48 -82.5 84
c-14 28.667 -21 69.334 -21 122.001v109c0 72.667 25.333 134 76 184c38.667 37.333 81.334 59.333 128.001 66c16.667 2.66699 41.667 4 75 4h111v84c0 39.333 -6.33301 66.333 -19 81c-21.333 26.667 -47.333 40 -78 40c-36 0 -64 -16.333 -84 -49
c-6.66699 -11.333 -11 -26 -13 -44h-196c0.666992 45.333 9.66699 85.666 27 120.999c22.667 47.333 55.667 85.666 99 114.999c50.667 34.667 106.334 52 167.001 52c74 0 139.333 -27.667 196 -83zM457.998 427l-74 -0.000976562
c-51.333 -0.666992 -85.333 -11.667 -102 -33c-12 -16 -18 -35 -18 -57v-49c0 -32.667 9 -58.5 27 -77.5s43 -28.5 75 -28.5c37.333 0 65 17.667 83 53c6 12.667 9 45.334 9 98.001v94zM847.998 575.999v98c0 37.333 -7.66699 65 -23 83c-19.333 23.333 -44 35 -74 35
c-38 0 -66.667 -16.333 -86 -49c-8 -13.333 -12 -36.333 -12 -69v-98h195z" />
    <glyph glyph-name="ccedilla" unicode="&#xe7;" horiz-adv-x="703" 
d="M394 -11l-17.999 -84.002c11.333 4 22 6 32 6c33.333 0 62 -11.333 86 -34c26 -24.667 39 -57.334 39 -98.001c0 -46 -17 -85.333 -51 -118c-30 -29.333 -69.333 -44 -118 -44c-48 0 -96.667 13.333 -146 40l20 85c39.333 -24 75.666 -36 108.999 -36
c14 0 26.333 4.33301 37 13c14 12 21 28.667 21 50c0 19.333 -6 34.333 -18 45c-9.33301 8.66699 -21 13 -35 13c-16 0 -34 -4.33301 -54 -13l-28 41l33 140c-52 12.667 -98 36.667 -138 72c-62.667 60 -93.334 137.333 -92.001 232v382c0 64.667 16.667 122.334 50 173.001
c27.333 41.333 62.833 74 106.5 98s89.834 36 138.501 36c92.667 0 168.334 -37.667 227.001 -113c40.667 -52 61.334 -116.667 62.001 -194h-194c0 11.333 -0.333008 20 -1 26c-2.66699 22.667 -13.334 42.334 -32.001 59.001c-18.667 18 -40.334 27 -65.001 27
c-34 0 -61.667 -15.333 -83 -46c-9.33301 -14 -14 -36 -14 -66v-382c0 -35.333 7 -61.666 21 -78.999c20 -24.667 45 -37 75 -37c40 0 69.333 18 88 54c7.33301 14 11 32.333 11 55h194c1.33301 -82 -24 -151.333 -76 -208c-52.667 -55.333 -115 -87 -187 -95z" />
    <glyph glyph-name="egrave" unicode="&#xe8;" horiz-adv-x="722" 
d="M266 418l-0.000976562 -99.998c0 -42.667 3.66699 -70.667 11 -84c18 -34 46.333 -51 85 -51c57.333 0 90 33.333 98 100h195c0 -31.333 -3.66699 -59 -11 -83c-16 -52.667 -44 -97.334 -84 -134.001c-56 -52 -121.667 -78 -197 -78c-54.667 0 -106 15.167 -154 45.5
s-84.333 70.833 -109 121.5c-19.333 38.667 -29 93 -29 163v369c0 64.667 18 122.667 54 174c27.333 39.333 62.333 70.166 105 92.499s87.667 33.5 135 33.5c49.333 0 96.333 -12.5 141 -37.5s80.334 -58.833 107.001 -101.5c28 -45.333 42 -99 42 -161v-269h-389z
M459.999 576.002l-0.000976562 96.999c0 38 -7.66699 66 -23 84c-19.333 23.333 -44 35 -74 35c-37.333 0 -65.666 -16.333 -84.999 -49c-8 -13.333 -12 -36.666 -12 -69.999v-97h194zM360.998 1393l106 -239h-161l-153 239h208z" />
    <glyph glyph-name="eacute" unicode="&#xe9;" horiz-adv-x="722" 
d="M266 418l-0.000976562 -99.998c0 -42.667 3.66699 -70.667 11 -84c18 -34 46.333 -51 85 -51c57.333 0 90 33.333 98 100h195c0 -31.333 -3.66699 -59 -11 -83c-16 -52.667 -44 -97.334 -84 -134.001c-56 -52 -121.667 -78 -197 -78c-54.667 0 -106 15.167 -154 45.5
s-84.333 70.833 -109 121.5c-19.333 38.667 -29 93 -29 163v369c0 64.667 18 122.667 54 174c27.333 39.333 62.333 70.166 105 92.499s87.667 33.5 135 33.5c49.333 0 96.333 -12.5 141 -37.5s80.334 -58.833 107.001 -101.5c28 -45.333 42 -99 42 -161v-269h-389z
M459.999 576.002l-0.000976562 96.999c0 38 -7.66699 66 -23 84c-19.333 23.333 -44 35 -74 35c-37.333 0 -65.666 -16.333 -84.999 -49c-8 -13.333 -12 -36.666 -12 -69.999v-97h194zM367.998 1393h208l-152 -239h-162z" />
    <glyph glyph-name="ecircumflex" unicode="&#xea;" horiz-adv-x="722" 
d="M266 418l-0.000976562 -99.998c0 -42.667 3.66699 -70.667 11 -84c18 -34 46.333 -51 85 -51c57.333 0 90 33.333 98 100h195c0 -31.333 -3.66699 -59 -11 -83c-16 -52.667 -44 -97.334 -84 -134.001c-56 -52 -121.667 -78 -197 -78c-54.667 0 -106 15.167 -154 45.5
s-84.333 70.833 -109 121.5c-19.333 38.667 -29 93 -29 163v369c0 64.667 18 122.667 54 174c27.333 39.333 62.333 70.166 105 92.499s87.667 33.5 135 33.5c49.333 0 96.333 -12.5 141 -37.5s80.334 -58.833 107.001 -101.5c28 -45.333 42 -99 42 -161v-269h-389z
M459.999 576.002l-0.000976562 96.999c0 38 -7.66699 66 -23 84c-19.333 23.333 -44 35 -74 35c-37.333 0 -65.666 -16.333 -84.999 -49c-8 -13.333 -12 -36.666 -12 -69.999v-97h194zM609.998 1147h-176l-74 121l-86 -121h-162l168 239h169z" />
    <glyph glyph-name="edieresis" unicode="&#xeb;" horiz-adv-x="722" 
d="M266 418l-0.000976562 -99.998c0 -42.667 3.66699 -70.667 11 -84c18 -34 46.333 -51 85 -51c57.333 0 90 33.333 98 100h195c0 -31.333 -3.66699 -59 -11 -83c-16 -52.667 -44 -97.334 -84 -134.001c-56 -52 -121.667 -78 -197 -78c-54.667 0 -106 15.167 -154 45.5
s-84.333 70.833 -109 121.5c-19.333 38.667 -29 93 -29 163v369c0 64.667 18 122.667 54 174c27.333 39.333 62.333 70.166 105 92.499s87.667 33.5 135 33.5c49.333 0 96.333 -12.5 141 -37.5s80.334 -58.833 107.001 -101.5c28 -45.333 42 -99 42 -161v-269h-389z
M459.999 576.002l-0.000976562 96.999c0 38 -7.66699 66 -23 84c-19.333 23.333 -44 35 -74 35c-37.333 0 -65.666 -16.333 -84.999 -49c-8 -13.333 -12 -36.666 -12 -69.999v-97h194zM310.998 1365v-189h-193v189h193zM604.998 1365v-189h-193v189h193z" />
    <glyph glyph-name="igrave" unicode="&#xec;" horiz-adv-x="370" 
d="M282 975v-975h-195v975h195zM157 1393l106 -239h-161l-153 239h208z" />
    <glyph glyph-name="iacute" unicode="&#xed;" horiz-adv-x="370" 
d="M282 975v-975h-195v975h195zM205 1393h208l-152 -239h-162z" />
    <glyph glyph-name="icircumflex" unicode="&#xee;" horiz-adv-x="370" 
d="M282 975v-975h-195v975h195zM434 1147h-176l-74 121l-86 -121h-162l168 239h169z" />
    <glyph glyph-name="idieresis" unicode="&#xef;" horiz-adv-x="370" 
d="M282 975v-975h-195v975h195zM156 1365v-189h-153v189h153zM367 1365v-189h-152v189h152z" />
    <glyph glyph-name="eth" unicode="&#xf0;" horiz-adv-x="726" 
d="M452 1321l107.999 41.001l60 -154l-110 -42l115 -312c23.333 -62.667 33.333 -112.667 30 -150v-4v-402c0 -74 -19.667 -137.333 -59 -190c-59.333 -80.667 -137.666 -121 -234.999 -121c-54.667 0 -105.667 15 -153 45s-83.333 70.333 -108 121
c-20 41.333 -30 89.666 -30 144.999v448c0 52.667 6.33301 93.167 19 121.5s36 54.833 70 79.5c38.667 27.333 82 41 130 41c25.333 0 52 -4.66699 80 -14l-46 120l-106 -41l-60 155l106 40l-45 117h218zM458.999 298.001l0.000976562 389.999c0 26 -6.33301 47.333 -19 64
c-19.333 26 -45 39 -77 39c-38 0 -66.333 -16 -85 -48c-8 -13.333 -12 -31.666 -12 -54.999v-390c0 -32 6.66699 -57.333 20 -76c19.333 -26 45.333 -39 78 -39c37.333 0 65.666 16.333 84.999 49c6.66699 12 10 34 10 66z" />
    <glyph glyph-name="ntilde" unicode="&#xf1;" horiz-adv-x="759" 
d="M282 880c43.333 71.333 104.332 107.001 182.999 107.001c36 0 70 -9 102 -27s57.333 -42.667 76 -74c18.667 -30.667 28 -73.334 28 -128.001v-758h-195v686c0 32 -7 56 -21 72c-19.333 22.667 -43.666 34 -72.999 34c-36 0 -64.333 -15 -85 -45
c-10 -14.667 -15 -35 -15 -61v-686h-195v975h195v-95zM530.999 1371h126.999c-2.66699 -53.333 -10 -92 -22 -116c-26 -55.333 -70.333 -83 -133 -83c-23.333 0 -55.666 7 -96.999 21c-41.333 14.667 -69.333 22 -84 22c-23.333 0 -38.333 -16.333 -45 -49h-136
c6.66699 136 58.667 204 156 204c28 0 77.333 -12.333 148 -37c16 -5.33301 30.333 -8 43 -8c26 0 40.333 15.333 43 46z" />
    <glyph glyph-name="ograve" unicode="&#xf2;" horiz-adv-x="726" 
d="M71 298v390c0 74 21 136.333 63 187c61.333 74.667 139 112 233 112c51.333 0 99.5 -13 144.5 -39s80.5 -61.333 106.5 -106c24.667 -42.667 37 -94 37 -154v-390c0 -74.667 -19.333 -138 -58 -190c-60 -80.667 -138.333 -121 -235 -121c-55.333 0 -106.5 15 -153.5 45
s-82.833 70.333 -107.5 121c-20 40.667 -30 89 -30 145zM460 298l-0.00195312 389.998c0 26.667 -6.33301 48 -19 64c-20 26.667 -46 40 -78 40c-37.333 0 -65.666 -16.333 -84.999 -49c-8 -13.333 -12 -31.666 -12 -54.999v-390c0 -31.333 7 -56.666 21 -75.999
c18.667 -26 44.334 -39 77.001 -39c38 0 66.667 16.333 86 49c6.66699 12 10 34 10 66zM362.998 1393l106 -239h-161l-153 239h208z" />
    <glyph glyph-name="oacute" unicode="&#xf3;" horiz-adv-x="726" 
d="M71 298v390c0 74 21 136.333 63 187c61.333 74.667 139 112 233 112c51.333 0 99.5 -13 144.5 -39s80.5 -61.333 106.5 -106c24.667 -42.667 37 -94 37 -154v-390c0 -74.667 -19.333 -138 -58 -190c-60 -80.667 -138.333 -121 -235 -121c-55.333 0 -106.5 15 -153.5 45
s-82.833 70.333 -107.5 121c-20 40.667 -30 89 -30 145zM460 298l-0.00195312 389.998c0 26.667 -6.33301 48 -19 64c-20 26.667 -46 40 -78 40c-37.333 0 -65.666 -16.333 -84.999 -49c-8 -13.333 -12 -31.666 -12 -54.999v-390c0 -31.333 7 -56.666 21 -75.999
c18.667 -26 44.334 -39 77.001 -39c38 0 66.667 16.333 86 49c6.66699 12 10 34 10 66zM369.998 1393h208l-152 -239h-162z" />
    <glyph glyph-name="ocircumflex" unicode="&#xf4;" horiz-adv-x="726" 
d="M71 298v390c0 74 21 136.333 63 187c61.333 74.667 139 112 233 112c51.333 0 99.5 -13 144.5 -39s80.5 -61.333 106.5 -106c24.667 -42.667 37 -94 37 -154v-390c0 -74.667 -19.333 -138 -58 -190c-60 -80.667 -138.333 -121 -235 -121c-55.333 0 -106.5 15 -153.5 45
s-82.833 70.333 -107.5 121c-20 40.667 -30 89 -30 145zM460 298l-0.00195312 389.998c0 26.667 -6.33301 48 -19 64c-20 26.667 -46 40 -78 40c-37.333 0 -65.666 -16.333 -84.999 -49c-8 -13.333 -12 -31.666 -12 -54.999v-390c0 -31.333 7 -56.666 21 -75.999
c18.667 -26 44.334 -39 77.001 -39c38 0 66.667 16.333 86 49c6.66699 12 10 34 10 66zM611.998 1147h-176l-74 121l-86 -121h-162l168 239h169z" />
    <glyph glyph-name="otilde" unicode="&#xf5;" horiz-adv-x="726" 
d="M71 298v390c0 74 21 136.333 63 187c61.333 74.667 139 112 233 112c51.333 0 99.5 -13 144.5 -39s80.5 -61.333 106.5 -106c24.667 -42.667 37 -94 37 -154v-390c0 -74.667 -19.333 -138 -58 -190c-60 -80.667 -138.333 -121 -235 -121c-55.333 0 -106.5 15 -153.5 45
s-82.833 70.333 -107.5 121c-20 40.667 -30 89 -30 145zM460 298l-0.00195312 389.998c0 26.667 -6.33301 48 -19 64c-20 26.667 -46 40 -78 40c-37.333 0 -65.666 -16.333 -84.999 -49c-8 -13.333 -12 -31.666 -12 -54.999v-390c0 -31.333 7 -56.666 21 -75.999
c18.667 -26 44.334 -39 77.001 -39c38 0 66.667 16.333 86 49c6.66699 12 10 34 10 66zM494.998 1371h126.999c-2.66699 -53.333 -10 -92 -22 -116c-26 -55.333 -70.333 -83 -133 -83c-23.333 0 -55.666 7 -96.999 21c-41.333 14.667 -69.333 22 -84 22
c-23.333 0 -38.333 -16.333 -45 -49h-136c6.66699 136 58.667 204 156 204c28 0 77.333 -12.333 148 -37c16 -5.33301 30.333 -8 43 -8c26 0 40.333 15.333 43 46z" />
    <glyph glyph-name="odieresis" unicode="&#xf6;" horiz-adv-x="726" 
d="M71 298v390c0 74 21 136.333 63 187c61.333 74.667 139 112 233 112c51.333 0 99.5 -13 144.5 -39s80.5 -61.333 106.5 -106c24.667 -42.667 37 -94 37 -154v-390c0 -74.667 -19.333 -138 -58 -190c-60 -80.667 -138.333 -121 -235 -121c-55.333 0 -106.5 15 -153.5 45
s-82.833 70.333 -107.5 121c-20 40.667 -30 89 -30 145zM460 298l-0.00195312 389.998c0 26.667 -6.33301 48 -19 64c-20 26.667 -46 40 -78 40c-37.333 0 -65.666 -16.333 -84.999 -49c-8 -13.333 -12 -31.666 -12 -54.999v-390c0 -31.333 7 -56.666 21 -75.999
c18.667 -26 44.334 -39 77.001 -39c38 0 66.667 16.333 86 49c6.66699 12 10 34 10 66zM312.998 1365v-189h-193v189h193zM606.998 1365v-189h-193v189h193z" />
    <glyph glyph-name="divide" unicode="&#xf7;" horiz-adv-x="787" 
d="M730 733v-176h-673v176h673zM491 1014v-195h-195v195h195zM491 468v-195h-195v195h195z" />
    <glyph glyph-name="oslash" unicode="&#xf8;" horiz-adv-x="747" 
d="M485 970l32.998 87.001l131 -51l-44 -115c25.333 -30 43.666 -59.333 54.999 -88c11.333 -30.667 17 -69 17 -115v-390c0 -74.667 -19.333 -138.334 -58 -191.001c-59.333 -80 -141.666 -120 -246.999 -120c-36 0 -71.667 6.33301 -107 19l-34 -88l-131 50l45 119
c-49.333 58 -73.666 128.333 -72.999 211v390c0 74.667 20.667 137 62 187c60.667 74.667 142.334 112 245.001 112c34.667 0 70 -5.66699 106 -17zM266.998 355.001l153 428.999c-22.667 5.33301 -41.334 8 -56.001 8c-37.333 0 -65.666 -16.333 -84.999 -49
c-8 -13.333 -12 -31.666 -12 -54.999v-333zM481.998 620l-152 -429c18.667 -5.33301 34 -8 46 -8c46.667 0 78.667 16 96 48c6.66699 12 10 34.333 10 67v322z" />
    <glyph glyph-name="ugrave" unicode="&#xf9;" horiz-adv-x="759" 
d="M671 975l-0.00195312 -975.001h-195v99c-25.333 -40 -51.833 -68.5 -79.5 -85.5s-61.167 -25.5 -100.5 -25.5c-40.667 0 -78.167 10.833 -112.5 32.5s-60.166 50.834 -77.499 87.501c-12.667 27.333 -19 72 -19 134v733h195v-659c0 -44.667 5 -75 15 -91
c18.667 -28 45.334 -42 80.001 -42c42 0 71.667 18.333 89 55c6.66699 14.667 10 40.667 10 78v659h195zM378.998 1393l106 -239h-161l-153 239h208z" />
    <glyph glyph-name="uacute" unicode="&#xfa;" horiz-adv-x="759" 
d="M671 975l-0.00195312 -975.001h-195v99c-25.333 -40 -51.833 -68.5 -79.5 -85.5s-61.167 -25.5 -100.5 -25.5c-40.667 0 -78.167 10.833 -112.5 32.5s-60.166 50.834 -77.499 87.501c-12.667 27.333 -19 72 -19 134v733h195v-659c0 -44.667 5 -75 15 -91
c18.667 -28 45.334 -42 80.001 -42c42 0 71.667 18.333 89 55c6.66699 14.667 10 40.667 10 78v659h195zM385.998 1393h208l-152 -239h-162z" />
    <glyph glyph-name="ucircumflex" unicode="&#xfb;" horiz-adv-x="759" 
d="M671 975l-0.00195312 -975.001h-195v99c-25.333 -40 -51.833 -68.5 -79.5 -85.5s-61.167 -25.5 -100.5 -25.5c-40.667 0 -78.167 10.833 -112.5 32.5s-60.166 50.834 -77.499 87.501c-12.667 27.333 -19 72 -19 134v733h195v-659c0 -44.667 5 -75 15 -91
c18.667 -28 45.334 -42 80.001 -42c42 0 71.667 18.333 89 55c6.66699 14.667 10 40.667 10 78v659h195zM627.998 1147h-176l-74 121l-86 -121h-162l168 239h169z" />
    <glyph glyph-name="udieresis" unicode="&#xfc;" horiz-adv-x="759" 
d="M671 975l-0.00195312 -975.001h-195v99c-25.333 -40 -51.833 -68.5 -79.5 -85.5s-61.167 -25.5 -100.5 -25.5c-40.667 0 -78.167 10.833 -112.5 32.5s-60.166 50.834 -77.499 87.501c-12.667 27.333 -19 72 -19 134v733h195v-659c0 -44.667 5 -75 15 -91
c18.667 -28 45.334 -42 80.001 -42c42 0 71.667 18.333 89 55c6.66699 14.667 10 40.667 10 78v659h195zM328.998 1365v-189h-193v189h193zM622.998 1365v-189h-193v189h193z" />
    <glyph glyph-name="yacute" unicode="&#xfd;" horiz-adv-x="674" 
d="M675 975l-282.001 -1139c-18 -74.667 -50.667 -131 -98 -169s-108 -57 -182 -57h-45v185h42c38.667 0.666992 67.334 12.334 86.001 35.001c12.667 16 23.667 42 33 78l34 131l-270 936h206l135 -605l135 605h206zM370.999 1393h208l-152 -239h-162z" />
    <glyph glyph-name="thorn" unicode="&#xfe;" horiz-adv-x="751" 
d="M282 97v-487.001h-195v1755h195v-486c46 72 107.333 108 184 108s135 -32.333 175 -97c21.333 -33.333 32 -73 32 -119v-561c0 -57.333 -13.333 -103.666 -40 -138.999c-42 -55.333 -97 -83 -165 -83c-81.333 0 -143.333 36.333 -186 109zM478 303.999v380.999
c0 32 -7.66699 56.333 -23 73c-20.667 22.667 -45.667 34 -75 34c-38.667 0 -67.667 -17.333 -87 -52c-7.33301 -13.333 -11 -31.666 -11 -54.999v-381c0 -80.667 32.667 -121 98 -121c40.667 0 70 16.667 88 50c6.66699 12 10 35.667 10 71z" />
    <glyph glyph-name="ydieresis" unicode="&#xff;" horiz-adv-x="674" 
d="M675 975l-282.001 -1139c-18 -74.667 -50.667 -131 -98 -169s-108 -57 -182 -57h-45v185h42c38.667 0.666992 67.334 12.334 86.001 35.001c12.667 16 23.667 42 33 78l34 131l-270 936h206l135 -605l135 605h206zM285.999 1365v-189h-193v189h193zM579.999 1365v-189
h-193v189h193z" />
    <glyph glyph-name="Cacute" unicode="&#x106;" horiz-adv-x="789" 
d="M415 1713h208l-152 -239h-162zM533 389l193.999 0.00195312v-46c0 -50 -3 -88.833 -9 -116.5s-17.333 -55.5 -34 -83.5c-24 -42 -57.667 -76.667 -101 -104c-54 -34.667 -111.333 -52 -172 -52c-54.667 0 -107 14.167 -157 42.5s-88.667 65.5 -116 111.5
c-30 50.667 -45 118 -45 202v704c0 75.333 18 139.333 54 192c30 43.333 68.5 77.333 115.5 102s96.833 37 149.5 37c56.667 0 109.667 -14.667 159 -44s88 -69.333 116 -120c26.667 -48.667 40 -104.334 40 -167.001v-72h-194v72c0 43.333 -10 75.333 -30 96
c-25.333 26.667 -55.666 40 -90.999 40c-42.667 0 -76.667 -17.333 -102 -52c-14.667 -19.333 -22 -47.333 -22 -84v-704c0 -36.667 0.666992 -59.834 2 -69.501s6 -20.5 14 -32.5c24.667 -38.667 60 -58 106 -58s82.333 20.667 109 62c9.33301 14 14 46.667 14 98v46z" />
    <glyph glyph-name="cacute" unicode="&#x107;" horiz-adv-x="703" 
d="M359 1393h208l-152 -239h-162zM461 292l193.998 -0.00195312c0.666992 -47.333 -7 -89.333 -23 -126c-21.333 -50 -55.333 -91.333 -102 -124c-51.333 -36 -107 -54 -167 -54c-46 0 -90.667 11.333 -134 34s-78.666 52.667 -105.999 90
c-34.667 49.333 -52 111.666 -52 186.999v382c0 64.667 16.667 122.334 50 173.001c27.333 41.333 62.833 74 106.5 98s89.834 36 138.501 36c92.667 0 168.334 -37.667 227.001 -113c40.667 -52 61.334 -116.667 62.001 -194h-194c0 11.333 -0.333008 20 -1 26
c-2.66699 22.667 -13.334 42.334 -32.001 59.001c-18.667 18 -40.334 27 -65.001 27c-34 0 -61.667 -15.333 -83 -46c-9.33301 -14 -14 -36 -14 -66v-382c0 -35.333 7 -61.666 21 -78.999c20 -24.667 45 -37 75 -37c40 0 69.333 18 88 54c7.33301 14 11 32.333 11 55z" />
    <glyph glyph-name="Ccaron" unicode="&#x10c;" horiz-adv-x="789" 
d="M158 1713h176l74 -121l86 121h162l-168 -238h-169zM533 389l193.999 0.00195312v-46c0 -50 -3 -88.833 -9 -116.5s-17.333 -55.5 -34 -83.5c-24 -42 -57.667 -76.667 -101 -104c-54 -34.667 -111.333 -52 -172 -52c-54.667 0 -107 14.167 -157 42.5
s-88.667 65.5 -116 111.5c-30 50.667 -45 118 -45 202v704c0 75.333 18 139.333 54 192c30 43.333 68.5 77.333 115.5 102s96.833 37 149.5 37c56.667 0 109.667 -14.667 159 -44s88 -69.333 116 -120c26.667 -48.667 40 -104.334 40 -167.001v-72h-194v72
c0 43.333 -10 75.333 -30 96c-25.333 26.667 -55.666 40 -90.999 40c-42.667 0 -76.667 -17.333 -102 -52c-14.667 -19.333 -22 -47.333 -22 -84v-704c0 -36.667 0.666992 -59.834 2 -69.501s6 -20.5 14 -32.5c24.667 -38.667 60 -58 106 -58s82.333 20.667 109 62
c9.33301 14 14 46.667 14 98v46z" />
    <glyph glyph-name="ccaron" unicode="&#x10d;" horiz-adv-x="703" 
d="M103 1386h176l74 -122l86 122h162l-168 -239h-169zM461 292l193.998 -0.00195312c0.666992 -47.333 -7 -89.333 -23 -126c-21.333 -50 -55.333 -91.333 -102 -124c-51.333 -36 -107 -54 -167 -54c-46 0 -90.667 11.333 -134 34s-78.666 52.667 -105.999 90
c-34.667 49.333 -52 111.666 -52 186.999v382c0 64.667 16.667 122.334 50 173.001c27.333 41.333 62.833 74 106.5 98s89.834 36 138.501 36c92.667 0 168.334 -37.667 227.001 -113c40.667 -52 61.334 -116.667 62.001 -194h-194c0 11.333 -0.333008 20 -1 26
c-2.66699 22.667 -13.334 42.334 -32.001 59.001c-18.667 18 -40.334 27 -65.001 27c-34 0 -61.667 -15.333 -83 -46c-9.33301 -14 -14 -36 -14 -66v-382c0 -35.333 7 -61.666 21 -78.999c20 -24.667 45 -37 75 -37c40 0 69.333 18 88 54c7.33301 14 11 32.333 11 55z" />
    <glyph glyph-name="dmacron" unicode="&#x111;" horiz-adv-x="750" 
d="M662 1236h88v-158h-88v-1078h-195v101c-43.333 -76 -104.666 -114 -183.999 -114c-38.667 0 -74.834 10.833 -108.501 32.5s-59.5 50.5 -77.5 86.5c-12.667 26.667 -19 74.667 -19 144v527c0 56 16.667 102.667 50 140c43.333 46.667 96 70 158 70
c78.667 0 139 -34.667 181 -104v195h-165v158h165v129h195v-129zM467 314v349c0 40 -4.66699 67.667 -14 83c-19.333 30.667 -47.333 46 -84 46c-42 0 -71.333 -19 -88 -57c-5.33301 -11.333 -8 -35.333 -8 -72v-349c0 -40 3.66699 -67 11 -81c18 -34 47 -51 87 -51
c39.333 0 68.333 17.667 87 53c6 12 9 38.333 9 79z" />
    <glyph glyph-name="Gbreve" unicode="&#x11e;" horiz-adv-x="836" 
d="M161 1700h148.001c22.667 -57.333 59.667 -86 111 -86c47.333 0 82.333 28.667 105 86h148c-11.333 -54.667 -32 -100.667 -62 -138c-49.333 -60.667 -114 -91 -194 -91c-86 0 -153.667 34.667 -203 104c-24.667 34 -42.334 75.667 -53.001 125zM749.001 758v-411.001
c0 -60 -5 -104.667 -15 -134c-22.667 -69.333 -63.667 -124.666 -123 -165.999c-55.333 -39.333 -117.333 -59 -186 -59c-52.667 0 -103.5 12.167 -152.5 36.5s-89.167 57.166 -120.5 98.499c-31.333 42 -50.333 87.667 -57 137c-2.66699 22.667 -4 51.667 -4 87v685
c0 74 16.667 137.667 50 191c64 102.667 157 154 279 154c118.667 0 210.667 -49 276 -147c28 -42 44.667 -84.333 50 -127c2 -14 3 -37.667 3 -71v-57h-195v57c0 42 -6.66699 72.667 -20 92c-28 38.667 -65.333 58 -112 58c-50.667 0 -89.667 -21.667 -117 -65
c-12.667 -20 -19 -48.333 -19 -85v-685c0 -35.333 0.833008 -57.666 2.5 -66.999s7.16699 -21 16.5 -35c28 -41.333 66.333 -62 115 -62c54 0 94 24.333 120 73c9.33301 18 14 48.333 14 91v240h-157v171h352z" />
    <glyph glyph-name="gbreve" unicode="&#x11f;" horiz-adv-x="744" 
d="M102 1394l148.001 -0.000976562c22.667 -58 59.667 -87 111 -87c48 0 83 29 105 87h148c-11.333 -55.333 -32 -101.666 -62 -138.999c-49.333 -60.667 -114 -91 -194 -91c-86 0 -153.667 34.667 -203 104c-24.667 34.667 -42.334 76.667 -53.001 126zM657.001 974.999
l-0.00292969 -1058c0 -47.333 -3 -83.833 -9 -109.5s-17.667 -51.5 -35 -77.5c-27.333 -41.333 -63.166 -73.666 -107.499 -96.999s-91.833 -35 -142.5 -35c-53.333 0 -102.166 13.167 -146.499 39.5s-80.166 63.5 -107.499 111.5c-25.333 43.333 -38 91.666 -38 144.999
h195c2 -26 8.33301 -46.333 19 -61c19.333 -26.667 45.333 -40 78 -40c42 0 72 19.333 90 58c6 12 9 34 9 66v183c-44 -74.667 -106 -112 -186 -112c-38 0 -73.833 10.667 -107.5 32s-59.5 49.666 -77.5 84.999c-13.333 25.333 -20 67.666 -20 126.999v541
c0 51.333 12.333 93.666 37 126.999c42 58 99 87 171 87c73.333 0 134.333 -34.667 183 -104v92h195zM461.998 306.002v371c0 36 -6.33301 62.333 -19 79c-20.667 27.333 -46.667 41 -78 41c-39.333 0 -69 -18.333 -89 -55c-6.66699 -12 -10 -33.667 -10 -65v-371
c0 -38.667 6 -66 18 -82c20 -27.333 46.667 -41 80 -41c46 0 76.667 21 92 63c4 12 6 32 6 60z" />
    <glyph glyph-name="Idot" unicode="&#x130;" horiz-adv-x="408" 
d="M300 1661v-195h-193v195h193zM301 1365v-1365h-195v1365h195z" />
    <glyph glyph-name="dotlessi" unicode="&#x131;" horiz-adv-x="370" 
d="M282 975v-975h-195v975h195z" />
    <glyph glyph-name="Lslash" unicode="&#x141;" horiz-adv-x="732" 
d="M107 521l-89 -52v196l89 51v649h195v-570l161 93v-196l-161 -93v-404h389v-195h-584v521z" />
    <glyph glyph-name="lslash" unicode="&#x142;" horiz-adv-x="414" 
d="M283 844l99.999 58v-196l-100 -58v-368c0 -32.667 2.66699 -53.667 8 -63c14 -20.667 38.667 -30.667 74 -30h14v-187h-43c-65.333 0 -119.666 16 -162.999 48c-31.333 23.333 -53.333 49.833 -66 79.5s-19 69.167 -19 118.5v310l-91 -52v195l91 53v613h195v-521z" />
    <glyph glyph-name="OE" unicode="&#x152;" horiz-adv-x="1212" 
d="M749 1182l-0.000976562 -400h341v-183h-341v-404h389v-195h-489c-18.667 0 -64 -3 -136 -9c-26 -2 -50.333 -3 -73 -3c-126.667 0 -223 46.667 -289 140c-40 56 -60 123.667 -60 203v703c0 79.333 20 147 60 203c30.667 44 69.834 78.333 117.501 103s98.167 37 151.5 37
c18 0 38.667 -1 62 -3c54 -5.33301 109.667 -8.33301 167 -9h489v-183h-389zM285.999 1034v-703c0 -98.667 49 -148 147 -148c80.667 0 121 35.667 121 107v785c0 71.333 -40.333 107 -121 107c-98 0 -147 -49.333 -147 -148z" />
    <glyph glyph-name="oe" unicode="&#x153;" horiz-adv-x="1111" 
d="M560 904c56 55.333 121.334 82.999 196.001 82.999c48.667 0 95.167 -12.667 139.5 -38s79.833 -59 106.5 -101c28 -45.333 42 -99 42 -161v-269h-389v-100c0 -42.667 3.66699 -70.667 11 -84c18 -34 46.333 -51 85 -51c40 0 68.667 17.667 86 53
c5.33301 11.333 9.33301 27 12 47h195c0 -31.333 -3.66699 -59 -11 -83c-16 -52 -44 -96.667 -84 -134c-56 -52 -121 -78 -195 -78c-73.333 0 -139 28.333 -197 85c-59.333 -57.333 -125.333 -86 -198 -86c-53.333 0 -103.5 15.167 -150.5 45.5s-82.833 70.5 -107.5 120.5
c-20 40.667 -30 89.334 -30 146.001v389c0 74 21 136.333 63 187c61.333 74.667 137.666 112 228.999 112c75.333 0 141 -27.667 197 -83zM460.001 298.999l-0.00195312 388.999c0 26.667 -6.33301 48 -19 64c-20 26.667 -46 40 -78 40
c-37.333 0 -65.666 -16.333 -84.999 -49c-8 -13.333 -12 -31.666 -12 -54.999v-389c0 -32 7 -57.667 21 -77c18.667 -26 44.334 -39 77.001 -39c38 0 66.667 16.333 86 49c6.66699 12 10 34.333 10 67zM848.999 575.998l-0.000976562 96.999c0 38 -7.66699 66 -23 84
c-19.333 23.333 -44 35 -74 35c-37.333 0 -65.666 -16.333 -84.999 -49c-8 -13.333 -12 -36.666 -12 -69.999v-97h194z" />
    <glyph glyph-name="Scedilla" unicode="&#x15e;" horiz-adv-x="792" 
d="M440 -9l-18.001 -85.998c11.333 4 21.666 6 30.999 6c34 0 62.667 -11.333 86 -34c26 -24.667 39 -57.334 39 -98.001c0 -46 -17 -85.333 -51 -118c-30 -29.333 -69.333 -44 -118 -44c-47.333 0 -95.666 13.333 -144.999 40l19 85c39.333 -24 76 -36 110 -36
c14 0 26 4.33301 36 13c14 12 21 28.667 21 50c0 38.667 -17.667 58 -53 58c-16 0 -33.667 -4.33301 -53 -13l-28 41l31 136c-71.333 9.33301 -133.666 39 -186.999 89c-71.333 69.333 -106 156 -104 260v49h197v-49c0 -45.333 7 -78.333 21 -99
c27.333 -38.667 67 -58 119 -58c57.333 0 98.666 22.667 123.999 68c10.667 18 16 48.333 16 91v95c0 36 -2.33301 60 -7 72c-8.66699 27.333 -32 51.333 -70 72c-13.333 7.33301 -50.333 22.666 -111 45.999c-188.667 67.333 -280.667 183.333 -276 348v61
c0 77.333 21 144.333 63 201c32 44 71.667 78.333 119 103s97 37 149 37c78 0 148.333 -26.333 211 -79c78 -66 117 -153.333 117 -262v-61h-195v61c0 39.333 -8 69.666 -24 90.999c-28.667 36.667 -65.667 55 -111 55c-50 0 -88 -21.333 -114 -64
c-12.667 -21.333 -19 -48.666 -19 -81.999v-61c0 -42.667 8 -74.334 24 -95.001c14.667 -22 62.667 -47.667 144 -77c103.333 -36 178.333 -82 225 -138s70 -127.333 70 -214v-111c0 -43.333 -2.16699 -76.166 -6.5 -98.499s-13.166 -46.5 -26.499 -72.5
c-56.667 -106 -141.667 -165.333 -255 -178z" />
    <glyph glyph-name="scedilla" unicode="&#x15f;" horiz-adv-x="676" 
d="M379 -11l-18 -83.9951c11.333 4 22 6 32 6c34 0 62.667 -11.333 86 -34c26 -24.667 39 -57.334 39 -98.001c0 -46 -17 -85.333 -51 -118c-30 -29.333 -69.333 -44 -118 -44c-48 0 -96.667 13.333 -146 40l20 85c39.333 -24 75.666 -36 108.999 -36
c14.667 0 27 4.33301 37 13c14 12 21 28.667 21 50c0 38.667 -17.667 58 -53 58c-16 0 -33.667 -4.33301 -53 -13l-29 41l32 138c-59.333 12 -111.666 39.333 -156.999 82c-56 55.333 -83.667 123.666 -83 204.999h182c0.666992 -23.333 6.33398 -43 17.001 -59
c22.667 -32.667 54 -49 94 -49c28 0 51.333 8.33301 70 25c24.667 21.333 37 49.666 37 84.999c0 31.333 -11.333 57.666 -34 78.999c-12 11.333 -38.667 24.333 -80 39l-37 13c-51.333 18 -88.833 34 -112.5 48s-44.834 32.333 -63.501 55c-42 52 -63 112.333 -63 181
c0 80 26.667 147.667 80 203c55.333 58 121.666 87 198.999 87c75.333 0 140.333 -26.667 195 -80s83.334 -120.333 86.001 -201h-181c-1.33301 24 -7 42.667 -17 56c-19.333 27.333 -46 41 -80 41c-26 0 -48.333 -9 -67 -27c-20.667 -19.333 -31 -44 -31 -74
c0 -35.333 10.667 -61.333 32 -78c14 -11.333 38.667 -23.333 74 -36l62 -21c68.667 -24 119 -55 151 -93c48.667 -58 73 -123 73 -195c0 -82.667 -30.667 -153.334 -92 -212.001c-44.667 -42 -98.667 -68 -162 -78z" />
    <glyph glyph-name="Scaron" unicode="&#x160;" horiz-adv-x="792" 
d="M53 389l197 0.00195312v-49c0 -45.333 7 -78.333 21 -99c27.333 -38.667 67 -58 119 -58c57.333 0 98.666 22.667 123.999 68c10.667 18 16 48.333 16 91v95c0 36 -2.33301 60 -7 72c-8.66699 27.333 -32 51.333 -70 72c-13.333 7.33301 -50.333 22.666 -111 45.999
c-188.667 67.333 -280.667 183.333 -276 348v61c0 77.333 21 144.333 63 201c32 44 71.667 78.333 119 103s97 37 149 37c78 0 148.333 -26.333 211 -79c78 -66 117 -153.333 117 -262v-61h-195v61c0 39.333 -8 69.666 -24 90.999c-28.667 36.667 -65.667 55 -111 55
c-50 0 -88 -21.333 -114 -64c-12.667 -21.333 -19 -48.666 -19 -81.999v-61c0 -42.667 8 -74.334 24 -95.001c14.667 -22 62.667 -47.667 144 -77c103.333 -36 178.333 -82 225 -138s70 -127.333 70 -214v-111c0 -62 -7 -109.667 -21 -143
c-25.333 -63.333 -65.666 -114 -120.999 -152s-119.333 -57 -192 -57c-118.667 0 -211.667 47.667 -279 143c-39.333 56 -59 125.667 -59 209v49zM145 1713h176l74 -121l86 121h162l-168 -238h-169z" />
    <glyph glyph-name="scaron" unicode="&#x161;" horiz-adv-x="676" 
d="M46 280h181.997c0.666992 -23.333 6.33398 -43 17.001 -59c22.667 -32.667 54 -49 94 -49c28 0 51.333 8.33301 70 25c24.667 21.333 37 49.666 37 84.999c0 31.333 -11.667 58 -35 80c-11.333 10.667 -37.666 23.334 -78.999 38.001l-37 13
c-51.333 18 -88.833 34 -112.5 48s-44.834 32.333 -63.501 55c-42 52 -63 112.333 -63 181c0 80 26.667 147.667 80 203c55.333 58 121.666 87 198.999 87c75.333 0 140.333 -26.667 195 -80s83.334 -120.333 86.001 -201h-181c-1.33301 24 -7 42.667 -17 56
c-19.333 27.333 -46 41 -80 41c-26 0 -48.333 -9 -67 -27c-20.667 -19.333 -31 -44 -31 -74c0 -35.333 10.667 -61.333 32 -78c14 -11.333 38.667 -23.333 74 -36l62 -21c68.667 -24 119 -55 151 -93c48.667 -58 73 -123 73 -195c0 -62.667 -18.333 -119.334 -55 -170.001
c-27.333 -38 -62.166 -68 -104.499 -90s-86.5 -33 -132.5 -33c-49.333 0 -97.666 13.333 -144.999 40s-84 61.334 -110 104.001c-25.333 42 -38.333 92 -39 150zM88.9971 1386h176l74 -122l86 122h162l-168 -239h-169z" />
    <glyph glyph-name="Ydieresis" unicode="&#x178;" horiz-adv-x="702" 
d="M451 587v-587h-195v587l-264 778h205l158 -533l160 533h205zM289 1661v-195h-193v195h193zM607 1661v-195h-193v195h193z" />
    <glyph glyph-name="Zcaron" unicode="&#x17d;" horiz-adv-x="707" 
d="M652 195v-195h-586v174l366 1008h-340v183h560v-157l-367 -1013h367zM131 1713h176l74 -121l86 121h162l-168 -238h-169z" />
    <glyph glyph-name="zcaron" unicode="&#x17e;" horiz-adv-x="625" 
d="M579 183v-183h-534v158l314 646h-292v171h512v-145l-315 -647h315zM91 1386h176l74 -122l86 122h162l-168 -239h-169z" />
    <glyph glyph-name="florin" unicode="&#x192;" horiz-adv-x="786" 
d="M508 725l-129.998 -741.999c-14.667 -83.333 -49.334 -148 -104.001 -194c-40.667 -34.667 -87.667 -54.334 -141 -59.001c-18.667 -2 -43.334 -3 -74.001 -3h-68l32 180h72c50.667 0.666992 79.667 26 87 76l131 742h-95l27 154h95l41 230
c15.333 88.667 48.5 153.5 99.5 194.5s123.833 61.5 218.5 61.5h68l-31 -180h-73c-50 -0.666992 -79 -26 -87 -76l-40 -230h146l-28 -154h-146z" />
    <glyph glyph-name="circumflex" unicode="&#x2c6;" 
d="M761 1147h-176l-74 121l-86 -121h-162l168 239h169z" />
    <glyph glyph-name="caron" unicode="&#x2c7;" 
d="M263 1386h176l74 -122l86 122h162l-168 -239h-169z" />
    <glyph glyph-name="macron" unicode="&#x2c9;" 
d="M744 1363v-157h-464v157h464z" />
    <glyph glyph-name="breve" unicode="&#x2d8;" 
d="M256 1394l148.001 -0.000976562c22.667 -58 59.667 -87 111 -87c48 0 83 29 105 87h148c-11.333 -55.333 -32 -101.666 -62 -138.999c-49.333 -60.667 -114 -91 -194 -91c-86 0 -153.667 34.667 -203 104c-24.667 34.667 -42.334 76.667 -53.001 126z" />
    <glyph glyph-name="dotaccent" unicode="&#x2d9;" 
d="M608 1365v-189h-193v189h193z" />
    <glyph glyph-name="ring" unicode="&#x2da;" 
d="M515 1471c44.667 0 83.335 -16.333 116.002 -49s49 -72 49 -118s-16.333 -85.333 -49 -118s-72 -49 -118 -49c-46.667 0 -86.334 16.333 -119.001 49s-49 72 -49 118c0 46.667 16.333 86 49 118c33.333 32.667 73.666 49 120.999 49zM512.001 1359
c-14.667 0 -27.665 -5.33398 -38.998 -16.001c-10.667 -11.333 -16 -24.333 -16 -39c0 -15.333 5.33301 -28.666 16 -39.999c11.333 -10.667 24.666 -16 39.999 -16s28.666 5.33301 39.999 16c10.667 11.333 16 24.333 16 39c0 16 -5.33301 29.333 -16 40
c-11.333 10.667 -25 16 -41 16z" />
    <glyph glyph-name="ogonek" unicode="&#x2db;" 
d="M618 0c-67.333 -53.333 -101 -111.332 -101 -173.999c0 -48 20.333 -72 61 -72c20.667 0 42.334 4 65.001 12v-105c-27.333 -15.333 -57 -23 -89 -23c-52.667 0 -95.334 17 -128.001 51c-30 31.333 -45 71.666 -45 120.999c0 50 17.667 95 53 135
c19.333 22 42.333 40.333 69 55h115z" />
    <glyph glyph-name="tilde" unicode="&#x2dc;" 
d="M644 1371h126.999c-2.66699 -53.333 -10 -92 -22 -116c-26 -55.333 -70.333 -83 -133 -83c-23.333 0 -55.666 7 -96.999 21c-41.333 14.667 -69.333 22 -84 22c-23.333 0 -38.333 -16.333 -45 -49h-136c6.66699 136 58.667 204 156 204c28 0 77.333 -12.333 148 -37
c16 -5.33301 30.333 -8 43 -8c26 0 40.333 15.333 43 46z" />
    <glyph glyph-name="hungarumlaut" unicode="&#x2dd;" 
d="M434 1393h181l-153 -239h-134zM680 1393h181l-153 -239h-134z" />
    <glyph glyph-name="pi" unicode="&#x3c0;" horiz-adv-x="1180" 
d="M189 0v830h-149v151h1100v-151h-147v-830h-188v830h-428v-830h-188z" />
    <glyph glyph-name="endash" unicode="&#x2013;" horiz-adv-x="1072" 
d="M968 635v-195h-864v195h864z" />
    <glyph glyph-name="emdash" unicode="&#x2014;" horiz-adv-x="1167" 
d="M1064 635v-195h-960v195h960z" />
    <glyph glyph-name="quoteleft" unicode="&#x2018;" horiz-adv-x="346" 
d="M98 1114v191l146 74v-265h-146z" />
    <glyph glyph-name="quoteright" unicode="&#x2019;" horiz-adv-x="346" 
d="M248 1365v-191l-146 -74v265h146z" />
    <glyph glyph-name="quotesinglbase" unicode="&#x201a;" horiz-adv-x="346" 
d="M248 191v-191l-146 -74v265h146z" />
    <glyph glyph-name="quotedblleft" unicode="&#x201c;" horiz-adv-x="589" 
d="M344 1114v191l146 74v-265h-146zM102 1114v191l146 74v-265h-146z" />
    <glyph glyph-name="quotedblright" unicode="&#x201d;" horiz-adv-x="589" 
d="M248 1365v-191l-146 -74v265h146zM490 1365v-191l-146 -74v265h146z" />
    <glyph glyph-name="quotedblbase" unicode="&#x201e;" horiz-adv-x="585" 
d="M246 191v-191l-146 -74v265h146zM488 191v-191l-146 -74v265h146z" />
    <glyph glyph-name="dagger" unicode="&#x2020;" horiz-adv-x="787" 
d="M491 1086h239v-183h-239v-1040h-195v1040h-239v183h239v416h195v-416z" />
    <glyph glyph-name="daggerdbl" unicode="&#x2021;" horiz-adv-x="787" 
d="M491 1086h239v-183h-239v-414h239v-183h-239v-443h-195v443h-239v183h239v414h-239v183h239v416h195v-416z" />
    <glyph glyph-name="bullet" unicode="&#x2022;" horiz-adv-x="1365" 
d="M689 978c75.333 0 140.669 -27.667 196.002 -83c56 -55.333 84 -122.333 84 -201s-28 -145.667 -84 -201c-54.667 -55.333 -121.334 -83 -200.001 -83s-145.334 27.667 -200.001 83c-56 55.333 -84 122 -84 200c0 80.667 28 148 84 202c56.667 55.333 124.667 83 204 83z
" />
    <glyph glyph-name="ellipsis" unicode="&#x2026;" horiz-adv-x="1176" 
d="M293 195v-195h-195v195h195zM685 195v-195h-195v195h195zM1077 195v-195h-195v195h195z" />
    <glyph glyph-name="perthousand" unicode="&#x2030;" horiz-adv-x="1312" 
d="M176 1122v103c0 34.667 10.333 66 31 94c29.333 38.667 68 58 116 58c52.667 0 93.667 -23 123 -69c15.333 -24 23 -51.667 23 -83v-103c0 -36.667 -7.66699 -65.667 -23 -87c-29.333 -39.333 -69.666 -59 -120.999 -59c-24.667 0 -48.834 5.83301 -72.501 17.5
s-41.5 26.5 -53.5 44.5c-15.333 23.333 -23 51.333 -23 84zM274 1225v-92c0 -1.33301 -0.333008 -4 -1 -8v-8c0 -12 5 -22.333 15 -31s21.667 -13 35 -13c32.667 0 49 20 49 60v93c0 16 -4.33301 28.833 -13 38.5s-20.667 14.5 -36 14.5c-32.667 0 -49 -18 -49 -54z
M761 1365l-457 -1365h-128l462 1365h123zM469 134l0.000976562 92.001c0 34.667 10.333 66 31 94c29.333 38.667 68 58 116 58c53.333 0 94.666 -23 123.999 -69c15.333 -24 23 -51.667 23 -83v-92c0 -37.333 -7.66699 -66.333 -23 -87
c-29.333 -39.333 -70.333 -59 -123 -59c-58.667 0 -102 24.333 -130 73c-12 21.333 -18 45.666 -18 72.999zM567.001 226.001v-92l-1 -17c0 -11.333 5 -21.333 15 -30s21.667 -13 35 -13c33.333 0 50 20 50 60v92c0 16.667 -4.5 30 -13.5 40s-20.833 15 -35.5 15
c-33.333 0 -50 -18.333 -50 -55zM842.001 134.001v92.001c0 34.667 10.333 66 31 94c29.333 38.667 68 58 116 58c52.667 0 93.667 -23 123 -69c15.333 -24 23 -51.667 23 -83v-92c0 -37.333 -7.66699 -66.333 -23 -87c-29.333 -39.333 -70.333 -59 -123 -59
c-58 0 -101 24.333 -129 73c-12 21.333 -18 45.666 -18 72.999zM940.001 226.002v-92l-1 -17c0 -11.333 5 -21.333 15 -30s21.667 -13 35 -13c32.667 0 49 20 49 60v92c0 16.667 -4.33301 30 -13 40s-20.667 15 -36 15c-32.667 0 -49 -18.333 -49 -55z" />
    <glyph glyph-name="guilsinglleft" unicode="&#x2039;" horiz-adv-x="504" 
d="M228 590l195 -194v-197l-389 391l389 390v-193z" />
    <glyph glyph-name="guilsinglright" unicode="&#x203a;" horiz-adv-x="508" 
d="M291 590l-195 197v193l389 -390l-389 -391v197z" />
    <glyph glyph-name="franc" unicode="&#x20a3;" horiz-adv-x="1053" 
d="M301 588v-588h-195v1365h582v-183h-387v-411h217v-183h-217zM804 784l-0.00195312 -104.998c18 30 43.667 55.667 77 77c41.333 25.333 86 39.666 134 42.999v-204c-17.333 4.66699 -30.666 7 -39.999 7c-39.333 0 -75.666 -16 -108.999 -48s-53 -69.333 -59 -112
c-2 -16.667 -3 -37.334 -3 -62.001v-380h-195v784h195z" />
    <glyph glyph-name="trademark" unicode="&#x2122;" horiz-adv-x="1232" 
d="M331 1232v-686h-154v686h-149v133h454v-133h-151zM1155 1365v-819h-154v421l-105 -277h-82l-102 275v-419h-154v819h141l159 -397l155 397h142z" />
    <glyph glyph-name="Omega" unicode="&#x2126;" horiz-adv-x="1365" 
d="M57 0l-0.000976562 175.001h346c-233.333 137.333 -350 327.666 -350 570.999c0 196 69.333 358.667 208 488c117.333 109.333 257.333 164 420 164c169.333 0 313 -56 431 -168c64.667 -61.333 114.334 -133.833 149.001 -217.5s52 -172.5 52 -266.5
c0 -244.667 -116.667 -435 -350 -571h346v-175h-539v163c88 48 156.333 103 205 165c90 114 135 242.667 135 386c0 148.667 -45.667 274 -137 376c-78.667 87.333 -174.667 131 -288 131c-114 0 -211.667 -43.667 -293 -131c-90.667 -98.667 -136 -224.334 -136 -377.001
c0 -243.333 113.333 -426.666 340 -549.999v-163h-539z" />
    <glyph glyph-name="partialdiff" unicode="&#x2202;" 
d="M161 1208l22.9971 159c116 -16 216.333 -40.667 301 -74c84 -33.333 160 -81.333 228 -144s122.333 -135 163 -217c62 -125.333 93 -267 93 -425c0 -153.333 -36.333 -275.333 -109 -366c-42 -52 -94.167 -92.5 -156.5 -121.5s-128.5 -43.5 -198.5 -43.5
c-132 0 -240.333 47 -325 141c-83.333 92.667 -125 202 -125 328c0 100.667 28.333 190.334 85 269.001c46.667 65.333 108 112.666 184 141.999c52.667 20.667 107 31 163 31c80.667 0 145 -18.667 193 -56c6.66699 -4.66699 35.334 -31 86.001 -79
c-4.66699 10.667 -7.66699 18 -9 22c-35.333 82.667 -60.666 134.667 -75.999 156c-61.333 82 -144.333 148.333 -249 199c-77.333 38 -167.666 64.333 -270.999 79zM517.997 736c-64.667 0 -122 -20.666 -172 -61.999c-32.667 -27.333 -58.667 -62.333 -78 -105
s-29 -87 -29 -133c0 -88 29.667 -161.667 89 -221c52.667 -52 115.667 -78 189 -78c62.667 0 118.667 21.667 168 65c66.667 59.333 100 139.666 100 240.999c0 93.333 -28.333 167 -85 221c-50 48 -110.667 72 -182 72z" />
    <glyph glyph-name="Delta" unicode="&#x2206;" horiz-adv-x="1291" 
d="M14 0l527 1365h207l529 -1365h-1263zM272 175h743l-369 976z" />
    <glyph glyph-name="product" unicode="&#x220f;" horiz-adv-x="1365" 
d="M50 1536h1266v-163h-150v-1722h150v-163h-479v163h148v1722h-604v-1722h146v-163h-477v163h151v1722h-151v163z" />
    <glyph glyph-name="summation" unicode="&#x2211;" horiz-adv-x="1365" 
d="M1239 1536v-486h-182l-20 300h-743l505 -801l-504 -877h760l12 306h191v-490h-1188v213l492 848l-492 776v211h1169z" />
    <glyph glyph-name="minus" unicode="&#x2212;" horiz-adv-x="787" 
d="M730 733v-176h-673v176h673z" />
    <glyph glyph-name="fraction" unicode="&#x2215;" horiz-adv-x="239" 
d="M421 1365l-462 -1365h-142l462 1365h142z" />
    <glyph glyph-name="periodcentered" unicode="&#x2219;" horiz-adv-x="392" 
d="M293 625v-195h-195v195h195z" />
    <glyph glyph-name="radical" unicode="&#x221a;" horiz-adv-x="1365" 
d="M1365 1693l0.000976562 -167.999h-379l-433 -1525h-226l-158 576h-169v168h286l77 -265c7.33301 -24.667 25.333 -107.667 54 -249l6 -32h11c5.33301 25.333 18.666 84 39.999 176c32 133.333 49 204.666 51 213.999l90 315l224 790h526z" />
    <glyph glyph-name="infinity" unicode="&#x221e;" horiz-adv-x="1365" 
d="M686 600c-34 -46 -64.999 -83 -92.999 -111c-70.667 -70.667 -153.334 -106 -248.001 -106s-171 32.667 -229 98c-52 58 -78 131 -78 219c0 89.333 28 162.666 84 219.999c58.667 60 133 90 223 90c122.667 0 234.334 -72.333 335.001 -217
c31.333 44.667 62 81.334 92 110.001c74 71.333 157 107 249 107c98 0 176.333 -34.333 235 -103c48 -56.667 72 -127.334 72 -212.001c0 -91.333 -28.333 -165.666 -85 -222.999c-58 -59.333 -132 -89 -222 -89c-88.667 0 -169.334 35 -242.001 105
c-30 28.667 -61 66 -93 112zM755.001 697c22 -34.667 42.998 -63.333 62.998 -86c56.667 -66.667 118.667 -100 186 -100c50 0 91.667 17 125 51c34 35.333 51 80.333 51 135c0 58 -19.667 104.333 -59 139c-33.333 30 -73 45 -119 45c-69.333 0 -133 -35.667 -191 -107
c-7.33301 -8.66699 -18.666 -23.5 -33.999 -44.5s-22.666 -31.833 -21.999 -32.5zM610.999 696.001c-22 34 -43 62.333 -63 85c-57.333 66.667 -120 100 -188 100c-50 0 -91.333 -17 -124 -51c-33.333 -34.667 -50 -79.667 -50 -135c0 -58.667 19.333 -105 58 -139
c33.333 -29.333 73.333 -44 120 -44c69.333 0 133 35.333 191 106c7.33301 9.33301 18.5 24.5 33.5 45.5s22.5 31.833 22.5 32.5z" />
    <glyph glyph-name="integral" unicode="&#x222b;" 
d="M166 -491l38.001 189c31.333 -13.333 58.666 -20 81.999 -20c54.667 0 90 20.667 106 62c8.66699 22.667 13 90.334 13 203.001v1102c0 155.333 6.33301 256 19 302c16.667 62.667 55.667 112 117 148c45.333 27.333 102.666 41 171.999 41c32 0 80.333 -7.33301 145 -22
l-38 -189c-30.667 14 -59 21 -85 21c-48.667 0 -81.667 -18 -99 -54c-11.333 -24 -17 -74.333 -17 -151v-1215c0 -108.667 -4.66699 -184.334 -14 -227.001c-8 -38.667 -25.833 -74 -53.5 -106s-60.5 -55.667 -98.5 -71c-57.333 -22 -119 -33 -185 -33
c-23.333 0 -49.666 4.66699 -78.999 14c-9.33301 2.66699 -17 4.66699 -23 6z" />
    <glyph glyph-name="approxequal" unicode="&#x2248;" 
d="M128 712l-108.002 74.999c28 60.667 55.667 107.667 83 141c56.667 70.667 124.334 106 203.001 106c49.333 0 125 -24.667 227 -74c58 -28 96.667 -45.333 116 -52c28 -9.33301 53 -14 75 -14c42 0 78.667 16 110 48c20 20.667 40.667 49 62 85l108 -75
c-30.667 -65.333 -60.334 -115.666 -89.001 -150.999c-55.333 -65.333 -120.666 -98 -195.999 -98c-32.667 0 -72 9 -118 27c-24 10 -59 25.667 -105 47c-94 44 -160.333 66 -199 66c-40 0 -76 -16.333 -108 -49c-19.333 -20 -39.666 -47.333 -60.999 -82zM127.998 330.999
l-108.002 75.001c28.667 61.333 56.334 108.333 83.001 141c56.667 70.667 124.334 106 203.001 106c49.333 0 125 -24.667 227 -74c57.333 -27.333 96 -44.333 116 -51c28 -9.33301 53 -14 75 -14c42 0 78.667 15.667 110 47c19.333 20.667 40 48.667 62 84l108 -75
c-30.667 -66 -60.334 -116 -89.001 -150c-55.333 -65.333 -120.666 -98 -195.999 -98c-32.667 0 -72 9.33301 -118 28c-23.333 9.33301 -58.333 24.666 -105 45.999c-94 44 -160.333 66 -199 66c-40 0 -76 -16.333 -108 -49c-18.667 -20 -39 -47.333 -61 -82z" />
    <glyph glyph-name="notequal" unicode="&#x2260;" horiz-adv-x="787" 
d="M595 870h135v-176h-217l-45 -97h262v-176h-344l-83 -179l-160 75l49 104h-135v176h217l45 97h-262v176h344l83 179l160 -75z" />
    <glyph glyph-name="lessequal" unicode="&#x2264;" 
d="M955 1253v-199l-656 -244l656 -243v-198l-887 352v180zM955 311v-186h-887v186h887z" />
    <glyph glyph-name="greaterequal" unicode="&#x2265;" 
d="M68 1253l887 -352v-180l-887 -352v198l656 243l-656 244v199zM68 311h887v-186h-887v186z" />
    <glyph glyph-name="lozenge" unicode="&#x25ca;" horiz-adv-x="1365" 
d="M683 1419l532 -736l-532 -736l-532 736zM683 1237l-404 -554l404 -555l403 555z" />
    <glyph glyph-name="apple" unicode="&#xf000;" horiz-adv-x="1365" 
d="M983 1416c0 -93.333 -25.668 -172.333 -77.001 -237c-61.333 -76 -137 -115.333 -227 -118c2 98 29.667 177.667 83 239c60.667 69.333 134.334 108 221.001 116zM1276 935c-42 -32 -73.333 -60.667 -94 -86c-47.333 -58.667 -71 -125 -71 -199
c0 -96.667 35.667 -177.667 107 -243c26 -24 58.333 -44.667 97 -62c-43.333 -106.667 -90 -192.334 -140 -257.001c-72.667 -95.333 -140.667 -143 -204 -143c-33.333 0 -77.333 12.667 -132 38c-32.667 15.333 -68 23 -106 23c-48.667 0 -88.667 -5.66699 -120 -17
l-58 -24c-34 -14.667 -65.333 -22 -94 -22c-34.667 0 -71.834 14.833 -111.501 44.5s-76.834 70.5 -111.501 122.5c-114.667 170 -172 345.333 -172 526c0 62.667 10.833 123.334 32.5 182.001s51.5 109 89.5 151c66 72 152.333 108 259 108c43.333 0 101 -13.667 173 -41
c37.333 -14 66 -21 86 -21s59.667 11 119 33c60.667 22 112.334 33 155.001 33c126.667 0 225.334 -48.667 296.001 -146z" />
    <glyph glyph-name="fi" unicode="&#xf001;" horiz-adv-x="811" 
d="M724 975l-0.000976562 -975h-195v821h-205v-821h-195v821h-96v154h96v134c-1.33301 74 23.667 136.667 75 188c38.667 36 80.334 57.333 125.001 64c15.333 2.66699 39.666 4 72.999 4h54v-180h-59c-51.333 2 -75.666 -23.333 -72.999 -76v-134h400zM723.999 1365v-191
h-195v191h195z" />
    <glyph glyph-name="fl" unicode="&#xf002;" horiz-adv-x="855" 
d="M724 1365l-0.000976562 -1085c0 -32.667 2.66699 -53.334 8 -62.001c14 -21.333 38.333 -31.666 73 -30.999h14v-187h-43c-64.667 0 -118.667 16 -162 48c-31.333 23.333 -53.333 49.833 -66 79.5s-19 69.167 -19 118.5v939h-132
c-51.333 1.33301 -75.666 -24 -72.999 -76v-134h125v-154h-125v-821h-195v821h-96v154h96v134c-1.33301 74 23.667 136.667 75 188c38.667 36 80.334 57.333 125.001 64c15.333 2.66699 39.666 4 72.999 4h322z" />
    <glyph glyph-name="glyph1" horiz-adv-x="0" 
 />
    <glyph glyph-name="glyph2" horiz-adv-x="410" 
 />
    <glyph glyph-name="glyph172" horiz-adv-x="786" 
 />
    <glyph glyph-name="glyph262" 
d="M261 1713h176l74 -121l86 121h162l-168 -238h-169z" />
    <glyph glyph-name="glyph263" 
d="M470 1661v-195h-166v195h166zM719 1661v-195h-166v195h166z" />
    <glyph glyph-name="glyph264" 
d="M256 1700h148.001c22.667 -57.333 59.667 -86 111 -86c47.333 0 82.333 28.667 105 86h148c-11.333 -54.667 -32 -100.667 -62 -138c-49.333 -60.667 -114 -91 -194 -91c-86 0 -153.667 34.667 -203 104c-24.667 34 -42.334 75.667 -53.001 125z" />
    <glyph glyph-name="glyph265" 
d="M512 1713l106 -239h-161l-153 239h208z" />
    <glyph glyph-name="glyph266" 
d="M519 1713h208l-152 -239h-162z" />
    <glyph glyph-name="glyph267" 
d="M450 1661v-195h-193v195h193zM768 1661v-195h-193v195h193z" />
    <glyph glyph-name="glyph268" 
d="M759 1475h-176l-74 121l-86 -121h-162l168 238h169z" />
    <glyph glyph-name="glyph269" 
d="M644 1697h127.001c-2.66699 -53.333 -10 -92.333 -22 -117c-26 -55.333 -70.333 -83 -133 -83c-23.333 0 -55.666 7.33301 -96.999 22c-40.667 14 -68.667 21 -84 21c-23.333 0 -38.333 -16.333 -45 -49h-136c6.66699 136.667 58.667 205 156 205
c29.333 0 78.666 -12.333 147.999 -37c16 -5.33301 30.333 -8 43 -8c25.333 0 39.666 15.333 42.999 46z" />
    <glyph glyph-name="glyph270" 
d="M483 1365v-189h-153v189h153zM694 1365v-189h-152v189h152z" />
    <glyph glyph-name="glyph271" 
d="M608 1661v-195h-193v195h193z" />
    <glyph glyph-name="glyph272" horiz-adv-x="410" 
 />
    </font>
</defs>
</svg>
