<?xml version="1.0" encoding="UTF-8"?>
<svg width="85px" height="99px" viewBox="0 0 85 99" version="1.1" xmlns="http://www.w3.org/2000/svg" xmlns:xlink="http://www.w3.org/1999/xlink">
    <!-- Generator: Sketch 52.5 (67469) - http://www.bohemiancoding.com/sketch -->
    <title>main_logo</title>
    <desc>Created with Sketch.</desc>
    <defs>
        <circle id="path-1" cx="27.5" cy="27.5" r="27.5"></circle>
    </defs>
    <g id="Page-3" stroke="none" stroke-width="1" fill="none" fill-rule="evenodd">
        <g id="Artboard" transform="translate(-273.000000, -15.000000)">
            <g id="main_logo" transform="translate(260.000000, 0.000000)">
                <rect id="Rectangle" fill-rule="nonzero" x="0" y="0" width="110" height="130"></rect>
                <g id="Group-3" transform="translate(12.500000, 8.750000)">
                    <rect id="Rectangle" fill-rule="nonzero" x="0" y="0" width="85" height="85"></rect>
                    <circle id="Oval" fill="#FFE195" fill-rule="nonzero" cx="41" cy="47.75" r="32.5"></circle>
                    <circle id="Oval" fill="#FFE4A0" fill-rule="nonzero" cx="41" cy="49.5" r="27.5"></circle>
                    <g id="Group" transform="translate(13.500000, 7.500000)">
                        <g id="Group-2" transform="translate(0.000000, 14.500000)">
                            <mask id="mask-2" fill="white">
                                <use xlink:href="#path-1"></use>
                            </mask>
                            <use id="Oval" fill="#FFEFC5" fill-rule="nonzero" xlink:href="#path-1"></use>
                            <path d="M36,49.75 L42.5,55.875 L49.25,57 C48.0833333,55 46.75,53.2083333 45.25,51.625 C43.8217243,50.1173756 42.8217243,49.2840423 42.25,49.125 L39.75,47" id="Path-52" stroke="#242424" stroke-width="1.25" fill="#FCE2C9" fill-rule="nonzero" mask="url(#mask-2)"></path>
                            <polyline id="Path" stroke="#242424" stroke-width="1.25" fill="#FCE2C9" fill-rule="nonzero" mask="url(#mask-2)" points="15.75 44.5 10.25 51.75 14.1875 54.75 18.125 46.75"></polyline>
                            <path d="M21.5,38.375 C19.1666667,39.625 17.8333333,40.4166667 17.5,40.75 C17.1666667,41.0833333 15.9166667,42.6666667 13.75,45.5 L15.875,48.375 C15.5416667,49.2916667 15.4583333,50.1666667 15.625,51 C15.875,52.25 17.5,57 22.625,57 C26.0416667,57 30.0416667,56.4583333 34.625,55.375 L33.25,47.875 L35.75,50.25 C37.1666667,49.7748793 38.1666667,49.2332126 38.75,48.625 C39.3333333,48.0167874 39.8333333,47.1417874 40.25,46 C37.6666667,42.25 34.1666667,39.5 29.75,37.75 C26.6870911,36.5363946 21.125,36.25 21.125,36.75 C21.125,37 21.25,37.5416667 21.5,38.375 Z" id="Path-47" fill="#DE4A4A" fill-rule="nonzero" mask="url(#mask-2)"></path>
                            <path d="M21.375,38.875 C20.75,41.125 19.25,46.625 22,47 C24.75,47.375 28.125,44.875 29.5,38.125 C29.5,37.7916667 29.125,37.625 28.375,37.625 L28,36.625 C24,36.625 21.625,36.5 20.875,36.25 C19.75,35.875 22,36.625 21.375,38.875 Z" id="Path-51" fill="#FCE2C9" fill-rule="nonzero" mask="url(#mask-2)"></path>
                            <path d="M20.75,36.375 C21.25,37.2083333 21.5833333,37.9583333 21.75,38.625 C21.9166667,39.2916667 22,40.0833333 22,41" id="Path-46" stroke="#242424" stroke-width="1.25" stroke-linecap="round" stroke-linejoin="round" fill-rule="nonzero" mask="url(#mask-2)"></path>
                            <path d="M21.5,38.375 C19.1666667,39.625 17.8333333,40.4166667 17.5,40.75 C17.1666667,41.0833333 15.9166667,42.6666667 13.75,45.5 L15.875,48.375" id="Path-47" stroke="#242424" stroke-width="1.25" stroke-linecap="round" stroke-linejoin="round" fill-rule="nonzero" mask="url(#mask-2)"></path>
                            <path d="M17.625,43.75 C16.4583333,46.8333333 15.7916667,48.9583333 15.625,50.125 C15.4583333,51.2916667 15.9583333,52.7083333 17.125,54.375" id="Path-48" stroke="#242424" stroke-width="1.25" stroke-linecap="round" stroke-linejoin="round" fill-rule="nonzero" mask="url(#mask-2)"></path>
                            <path d="M28,36.625 L28.375,37.625 C32.2083333,38.0416667 36.375,40.7083333 40.875,45.625 C40,47.625 37.5,50.125 35.75,50.125 C34.875,49.375 34.0416667,48.625 33.25,47.875" id="Path-49" stroke="#242424" stroke-width="1.25" stroke-linecap="round" stroke-linejoin="round" fill-rule="nonzero" mask="url(#mask-2)"></path>
                            <path d="M32.5,45.75 C33.75,50.5 34.4583333,53.7083333 34.625,55.375" id="Path-50" stroke="#242424" stroke-width="1.25" stroke-linecap="round" stroke-linejoin="round" fill-rule="nonzero" mask="url(#mask-2)"></path>
                            <path d="M21.375,38.875 C20.75,41.125 19.25,46.625 22,47 C24.75,47.375 28.125,44.875 29.5,38.125" id="Path-51" stroke="#242424" stroke-width="1.25" stroke-linecap="round" stroke-linejoin="round" fill-rule="nonzero" mask="url(#mask-2)"></path>
                        </g>
                        <path d="M41,37.75 C37.7604287,49.0884994 33.25,54.75 28,61 C33.25,64 58,60.25 59.75,43.25 C61.7318239,23.9979965 54.75,8.25 48.75,4.25 C42.75,0.25 36,-1.25 31.25,1.46428571 C25,-1.67857143 19.75,2.25 13.5,10.75 C7.25,19.25 1.25,38.75 2.25,47.75 C3.25,56.75 2.23656498,50.1068927 10.25,47.75 C13.0833333,46.9166667 15.5833333,47.1666667 17.75,48.5 C13.5833333,44.3333333 10.9166667,40.5 9.75,37 C8,31.75 10.1163853,31.2515328 10.5,29.75 C12.0967629,23.5 11.2193039,21.3479836 12.75,18.5 C17.7796545,9.14192214 25.25,7.25 28.5,6.25 C32.75,19 39.7070007,22.4073753 41,23 C41.5,24.75 42.5,32.5 41,37.75 Z" id="Path-31" fill="#D26645" fill-rule="nonzero"></path>
                        <path d="M13,18.25 C11.5424453,20.8735985 11.5,23.25 11.5,24.75 C11.5,26.25 11.1721181,28.25 10.25,30.25 C9.32788189,32.25 8.40625,34.25 10,37.25 C11.59375,40.25 15.75,49.25 20.5,50.75 C23.6666667,51.75 28.8333333,51.25 36,49.25 C39.8333333,42.75 41.75,37.3333333 41.75,33 C41.75,26.5 41.25,24.75 41.25,23.25 C31.75,18.25 28.5,6.5 28.5,6.5 C28.5,6.5 19.25,7 13,18.25 Z" id="Path-33" fill="#FCE2C9" fill-rule="nonzero"></path>
                        <path d="M14,34.3990192 C15.2426407,34.6678131 16.25,34.2551303 16.25,33.4772663 C16.25,32.6994024 15.2426407,31.8509186 14,31.5821247 C12.7573593,31.3133309 11.75,31.7260137 11.75,32.5038776 C11.75,33.2817416 12.7573593,34.1302254 14,34.3990192 Z" id="Oval" fill="#F9CA9B" fill-rule="nonzero"></path>
                        <path d="M33.625,37.5 C34.1882101,37.5 35.4984871,37.3858062 36,37.125 C36.1268279,37.0590446 35.4933644,36.9607013 35.6128915,36.8794084 C36.6991119,36.1406466 37.4558975,34.7797441 37.375,33 C37.25,30.25 36.5,29.5 35.375,29.125 C34.25,28.75 31.375,29.375 30.5,32.5 C29.625,35.625 31.625,37.5 33.625,37.5 Z" id="Oval" fill="#242424" fill-rule="nonzero"></path>
                        <path d="M33.2803901,33.75 C34.1088173,33.75 34.8872636,32.8545695 35.0190986,31.75 C35.1509337,30.6454305 34.5862343,29.75 33.7578071,29.75 C32.92938,29.75 32.1509337,30.6454305 32.0190986,31.75 C31.8872636,32.8545695 32.451963,33.75 33.2803901,33.75 Z" id="Oval" fill="#FFFFFF" fill-rule="nonzero"></path>
                        <path d="M34.6482438,35.5 C35.067665,35.5 35.4617816,35.1082492 35.5285279,34.625 C35.5952742,34.1417508 35.3093746,33.75 34.8899534,33.75 C34.4705322,33.75 34.0764156,34.1417508 34.0096694,34.625 C33.9429231,35.1082492 34.2288226,35.5 34.6482438,35.5 Z" id="Oval-Copy" fill="#FFFFFF" fill-rule="nonzero"></path>
                        <path d="M31.25,1.46428571 C25,-1.67857143 19.75,2.25 13.5,10.75 C7.25,19.25 1.25,38.75 2.25,47.75 C3.25,56.75 2.23656498,50.1068927 10.25,47.75 C13.0833333,46.9166667 15.2317101,47 16.6951303,48" id="Path-31" stroke="#242424" stroke-width="1.25" stroke-linecap="round" stroke-linejoin="round" fill-rule="nonzero"></path>
                        <path d="M36.5,13.75 C37.25,20 44.5,25.25 42,23.75 C34.5207418,19.2624451 30.5,14.25 28.5,6.25 C19,8.5 15,14.25 11.25,20.75" id="Path-32" stroke="#242424" stroke-width="1.25" stroke-linecap="round" stroke-linejoin="round" fill-rule="nonzero"></path>
                        <path d="M41,23.25 C42.5,32.5 42.5,43.75 27.75,61 C44.5,64 56.5,54.5 58.75,48 C61,41.5 60.5,28.5 58.25,21 C56,13.5 52.5106984,4.64558942 43.25,1.25 C38.25,-0.583333333 34,-0.333333333 30.5,2" id="Path-34" stroke="#242424" stroke-width="1.25" stroke-linecap="round" stroke-linejoin="round" fill-rule="nonzero"></path>
                        <path d="M13,18.25 C12,21.25 11.5,23.25 11.5,24.75 C11.5,26.25 11.1721181,28.25 10.25,30.25 C9.32788189,32.25 9,34.75 10,37.25 C11,39.75 15.75,49.25 20.5,50.75 C23.6666667,51.75 28.8333333,51.25 36,49.25" id="Path-33" stroke="#242424" stroke-width="1.25" stroke-linecap="round" stroke-linejoin="round" fill-rule="nonzero"></path>
                        <path d="M15.75,16.5 C16.4166667,15.75 17.25,15.5 18.25,15.75 C19.25,16 20.1666667,17.3333333 21,19.75 C20.2241117,17.9913706 19.2241117,16.9080372 18,16.5 C17,16.1666667 16.25,16.1666667 15.75,16.5 Z" id="Path-35" stroke="#242424" stroke-width="0.5" fill="#242424" fill-rule="nonzero" stroke-linecap="round" stroke-linejoin="round"></path>
                        <path d="M30.75,22 C31.9166667,20.5 33.1666667,19.6666667 34.5,19.5 C35.8333333,19.3333333 37.5833333,19.75 39.75,20.75 C38.0833333,20.25 36.5,20.0833333 35,20.25 C33.5,20.4166667 32.0833333,21 30.75,22 Z" id="Path-36" stroke="#242424" stroke-width="0.5" fill="#242424" fill-rule="nonzero" stroke-linecap="round" stroke-linejoin="round"></path>
                        <path d="M12.75,25.25 L13.125,26 C13.875,24.8333333 14.7916667,24.25 15.875,24.25 C17.5,24.25 19.125,26.375 18.375,30.25 C18,26.75 16.875,26 15.875,26 C14.875,26 13.875,26.6666667 12.875,28 L12.125,26.125 L12.75,25.25 Z" id="Path-37" fill="#242424" fill-rule="nonzero"></path>
                        <path d="M30.75,29.5 C31.6666667,28.1666667 32.9583333,27.5 34.625,27.5 C36.2916667,27.5 37.9166667,28.7083333 39.5,31.125 L40.25,30.75 L40.25,32 C39,32.9166667 38.3333333,33.3333333 38.25,33.25 C38.125,33.125 37.8384941,30.4817471 35.125,29.125 C34.2916667,28.7083333 32.8333333,28.8333333 30.75,29.5 Z" id="Path-38" fill="#242424" fill-rule="nonzero"></path>
                        <path d="M19.25,33.5 C19.75,34.1666667 20.2916667,34.6666667 20.875,35 C21.75,35.5 23,36.25 22.625,36.125 C22.25,36 21.3727465,36.5378475 20.9375,36.5 C19.9791667,36.4166667 19.4166667,35.4166667 19.25,33.5 Z" id="Path-39" fill="#F1BB7C" fill-rule="nonzero"></path>
                        <path d="M34.6352539,41.5820923 C36.2921082,42.0416442 37.8359388,41.8545405 38.0834961,41.1641846 C38.3310534,40.4738286 37.1885925,39.5416442 35.5317383,39.0820923 C33.874884,38.6225404 32.3310534,38.8096441 32.0834961,39.5 C31.8359388,40.1903559 32.9783997,41.1225404 34.6352539,41.5820923 Z" id="Oval" fill="#F9CA9B" fill-rule="nonzero"></path>
                        <path d="M16,37.75 C17.75,39.3333333 20.25,40.5416667 23.5,41.375 C28.375,42.625 32.125,42 32.625,41.75 C33.125,41.5 27.5,45.75 22.875,45.5 C19.7916667,45.3333333 17.5,42.75 16,37.75 Z" id="Path-40" stroke="#979797" stroke-width="0.5" fill="#A12D26" fill-rule="nonzero"></path>
                        <path d="M18.125,42.5 C18.5416667,41.75 20.3333333,41.375 23.5,41.375 C28.375,42.625 32.125,42 32.625,41.75 C33.125,41.5 27.5269611,45.7022592 22.875,45.5 C20.9583333,45.4166667 19.375,44.4166667 18.125,42.5 Z" id="Path-40" fill="#F7BBA0" fill-rule="nonzero"></path>
                        <path d="M16,37.75 C17.75,39.3333333 20.25,40.5416667 23.5,41.375 C28.375,42.625 32.125,42 32.625,41.75 C33.125,41.5 27.5,45.75 22.875,45.5 C19.7916667,45.3333333 17.5,42.75 16,37.75 Z" id="Path-40" stroke="#242424" stroke-width="0.5" stroke-linecap="round" stroke-linejoin="round" fill-rule="nonzero"></path>
                        <path d="M18.125,42.5 C19.25,41.375 21.375,41.375 23.5,41.375" id="Path-41" stroke="#242424" stroke-width="0.5" fill-rule="nonzero"></path>
                        <path d="M38.375,3.25 C42.125,4.08333333 46,7.375 50,13.125 C54,18.875 55.7083333,24.75 55.125,30.75 C57.625,23.5833333 57.0833333,17.25 53.5,11.75 C49.9166667,6.25 44.875,3.41666667 38.375,3.25 Z" id="Path-42" stroke="#242424" stroke-width="1.25" fill="#F78989" fill-rule="nonzero" stroke-linecap="round" stroke-linejoin="round"></path>
                        <path d="M52.125,0.375 C51.25,1 47,2.5 47.375,7.25 C47.75,12 54.25,20 60,21.625 C65.75,23.25 67.75,21 68.375,20.125 C69,19.25 68,20.75 65.25,17.375 C62.5,14 57.375,13.25 56.125,13.875 C54.875,14.5 53.75,12 54.75,10.75 C55.75,9.5 55.3152632,7.83250014 54,5.75 C51,1 53,-0.25 52.125,0.375 Z" id="Path-43" stroke="#242424" stroke-width="1.25" fill="#F78989" fill-rule="nonzero"></path>
                        <path d="M51.125,5.875 C51.125,9.625 51.625,11.75 53,13.375 C54.375,15 58,18 61.5,18.75" id="Path-45" stroke="#242424" stroke-width="0.5" stroke-linecap="round" stroke-linejoin="round" fill-rule="nonzero"></path>
                        <path d="M52.125,12.5 C53.75,11.375 54.875,11.75 55.875,13 C56.875,14.25 55.125,13.25 53.625,14.125 C52.125,15 52,16.625 51.125,15.375 C50.25,14.125 50.5,13.625 52.125,12.5 Z" id="Path-44" stroke="#242424" stroke-width="1.25" fill="#F78989" fill-rule="nonzero"></path>
                        <path d="M46.6998957,16.250836 C48.758612,25.2213734 50.1497914,43.1614191 43.25,54.25 C45.4677901,54.25 49.410528,48.3942325 50.1497914,39.1745136 C50.8890547,29.9547946 47.3159485,16.1262452 46.6998957,16.250836 Z" id="Path-53" fill="#FFFFFF" fill-rule="nonzero" opacity="0.100000001"></path>
                    </g>
                </g>
                <path d="M94.7931965,104.936184 C96.0981222,107.05514 96.9100354,108.801781 97.2264645,110.202858 C97.3412983,110.711316 97.0247884,111.217182 96.5195198,111.33274 C96.0142513,111.448299 95.5115591,111.129791 95.3967253,110.621333 C95.2621325,110.025386 95.0042791,109.321927 94.622835,108.514528 L94.622835,113.055639 C94.622835,113.577063 94.2027886,113.999761 93.6846351,113.999761 C93.1664816,113.999761 92.7464351,113.577063 92.7464351,113.055639 L92.7464351,109.325612 C92.4728635,109.874524 92.1737914,110.405677 91.8491984,110.918972 C91.5710145,111.358878 90.9911249,111.488555 90.5539787,111.208615 C90.1168325,110.928675 89.9879682,110.345125 90.2661521,109.905219 C91.2033196,108.42323 91.9064501,106.768001 92.3748617,104.936184 L91.6205952,104.936184 C91.1024417,104.936184 90.6823953,104.513486 90.6823953,103.992062 C90.6823953,103.470637 91.1024417,103.047939 91.6205952,103.047939 L92.7464351,103.047939 L92.7464351,101.726167 C92.7464351,101.204743 93.1664816,100.782045 93.6846351,100.782045 C94.2027886,100.782045 94.622835,101.204743 94.622835,101.726167 L94.622835,103.047939 L95.748675,103.047939 C96.2668285,103.047939 96.6868749,103.470637 96.6868749,103.992062 C96.6868749,104.513486 96.2668285,104.936184 95.748675,104.936184 L94.7931965,104.936184 Z M88.6183554,107.997588 L88.6183554,113.055639 C88.6183554,113.577063 88.198309,113.999761 87.6801555,113.999761 C87.1620019,113.999761 86.7419555,113.577063 86.7419555,113.055639 L86.7419555,109.315199 C86.4704551,109.867771 86.1713829,110.402402 85.8447188,110.918972 C85.5665349,111.358878 84.9866452,111.488555 84.5494991,111.208615 C84.3804062,111.100332 84.2574393,110.946621 84.1863144,110.773368 C84.0673102,111.737325 83.8460021,112.577056 83.4734145,113.434061 C83.2657288,113.911768 82.7125377,114.1296 82.2378276,113.920604 C81.7631174,113.711607 81.5466513,113.154924 81.754337,112.677217 C82.2622028,111.509052 82.4262358,110.335232 82.4262358,108.52385 L82.4262358,101.914992 C82.4262358,99.9489916 83.8116059,98.5161504 85.8037556,98.5161504 L88.354931,98.5161504 L88.0834477,97.4233621 C87.9577771,96.917506 88.2634057,96.4049093 88.7660885,96.2784453 C89.2687712,96.1519813 89.7781523,96.4595393 89.903823,96.9653954 L90.279103,98.4759916 C90.282428,98.4893756 90.2854511,98.5027643 90.2881766,98.5161504 L96.1239549,98.5161504 C96.6421085,98.5161504 97.0621549,98.9388485 97.0621549,99.4602731 C97.0621549,99.9816976 96.6421085,100.404396 96.1239549,100.404396 L85.8037556,100.404396 C84.859593,100.404396 84.3026357,100.980438 84.3026357,101.914992 L84.3026357,108.52385 C84.3026357,109.016381 84.291286,109.471739 84.2652544,109.899552 C85.2003168,108.419437 85.8843806,106.766307 86.3167876,104.936184 L85.6161156,104.936184 C85.0979621,104.936184 84.6779156,104.513486 84.6779156,103.992062 C84.6779156,103.470637 85.0979621,103.047939 85.6161156,103.047939 L86.6670587,103.047939 C86.6829774,102.969076 86.7084067,102.894292 86.7419555,102.824646 L86.7419555,101.726167 C86.7419555,101.204743 87.1620019,100.782045 87.6801555,100.782045 C88.198309,100.782045 88.6183554,101.204743 88.6183554,101.726167 L88.6183554,103.047939 L89.5565553,103.047939 C90.0747089,103.047939 90.4947553,103.470637 90.4947553,103.992062 C90.4947553,104.513486 90.0747089,104.936184 89.5565553,104.936184 L88.6669363,104.936184 C89.3493592,105.594975 89.9255458,106.400069 90.3957069,107.346328 C90.6274322,107.812704 90.4395817,108.379813 89.9761311,108.613001 C89.5126805,108.846189 88.9491291,108.657153 88.7174038,108.190777 C88.6849308,108.125421 88.6519146,108.061026 88.6183554,107.997588 Z M77.5303175,104.936184 C78.8352432,107.05514 79.6471564,108.801781 79.9635856,110.202858 C80.0784193,110.711316 79.7619094,111.217182 79.2566409,111.33274 C78.7513724,111.448299 78.2486802,111.129791 78.1338464,110.621333 C77.9992536,110.025386 77.7414001,109.321927 77.3599561,108.514528 L77.3599561,113.055639 C77.3599561,113.577063 76.9399097,113.999761 76.4217561,113.999761 C75.9036026,113.999761 75.4835562,113.577063 75.4835562,113.055639 L75.4835562,109.325612 C75.2099845,109.874524 74.9109125,110.405677 74.5863195,110.918972 C74.3081355,111.358878 73.7282459,111.488555 73.2910998,111.208615 C72.8539536,110.928675 72.7250892,110.345125 73.0032732,109.905219 C73.9404407,108.42323 74.6435711,106.768001 75.1119827,104.936184 L74.3577163,104.936184 C73.8395628,104.936184 73.4195163,104.513486 73.4195163,103.992062 C73.4195163,103.470637 73.8395628,103.047939 74.3577163,103.047939 L75.4835562,103.047939 L75.4835562,101.726167 C75.4835562,101.204743 75.9036026,100.782045 76.4217561,100.782045 C76.9399097,100.782045 77.3599561,101.204743 77.3599561,101.726167 L77.3599561,103.047939 L78.485796,103.047939 C79.0039495,103.047939 79.423996,103.470637 79.423996,103.992062 C79.423996,104.513486 79.0039495,104.936184 78.485796,104.936184 L77.5303175,104.936184 Z M71.3554765,107.997588 L71.3554765,113.055639 C71.3554765,113.577063 70.93543,113.999761 70.4172765,113.999761 C69.899123,113.999761 69.4790766,113.577063 69.4790766,113.055639 L69.4790766,109.315199 C69.2075762,109.867771 68.9085039,110.402402 68.5818398,110.918972 C68.3036559,111.358878 67.7237663,111.488555 67.2866201,111.208615 C67.1175273,111.100332 66.9945603,110.946621 66.9234355,110.773368 C66.8044313,111.737325 66.5831232,112.577056 66.2105356,113.434061 C66.0028499,113.911768 65.4496588,114.1296 64.9749486,113.920604 C64.5002385,113.711607 64.2837724,113.154924 64.4914581,112.677217 C64.9993239,111.509052 65.1633568,110.335232 65.1633568,108.52385 L65.1633568,101.914992 C65.1633568,99.9489916 66.5487269,98.5161504 68.5408766,98.5161504 L71.0920521,98.5161504 L70.8205688,97.4233621 C70.6948981,96.917506 71.0005268,96.4049093 71.5032095,96.2784453 C72.0058923,96.1519813 72.5152734,96.4595393 72.6409441,96.9653954 L73.0162241,98.4759916 C73.0195491,98.4893756 73.0225721,98.5027643 73.0252976,98.5161504 L78.861076,98.5161504 C79.3792295,98.5161504 79.7992759,98.9388485 79.7992759,99.4602731 C79.7992759,99.9816976 79.3792295,100.404396 78.861076,100.404396 L68.5408766,100.404396 C67.5967141,100.404396 67.0397567,100.980438 67.0397567,101.914992 L67.0397567,108.52385 C67.0397567,109.016381 67.028407,109.471739 67.0023755,109.899552 C67.9374379,108.419437 68.6215017,106.766307 69.0539086,104.936184 L68.3532366,104.936184 C67.8350831,104.936184 67.4150367,104.513486 67.4150367,103.992062 C67.4150367,103.470637 67.8350831,103.047939 68.3532366,103.047939 L69.4041797,103.047939 C69.4200985,102.969076 69.4455278,102.894292 69.4790766,102.824646 L69.4790766,101.726167 C69.4790766,101.204743 69.899123,100.782045 70.4172765,100.782045 C70.93543,100.782045 71.3554765,101.204743 71.3554765,101.726167 L71.3554765,103.047939 L72.2936764,103.047939 C72.8118299,103.047939 73.2318763,103.470637 73.2318763,103.992062 C73.2318763,104.513486 72.8118299,104.936184 72.2936764,104.936184 L71.4040573,104.936184 C72.0864802,105.594975 72.6626668,106.400069 73.1328279,107.346328 C73.3645532,107.812704 73.1767028,108.379813 72.7132522,108.613001 C72.2498016,108.846189 71.6862502,108.657153 71.4545249,108.190777 C71.4220518,108.125421 71.3890357,108.061026 71.3554765,107.997588 Z M51.0903577,108.596114 L51.0903577,109.279148 C51.0903577,111.377887 51.4662621,112.111516 53.1543976,112.111516 L59.1588772,112.111516 C59.9859711,112.111516 60.6655363,111.218705 60.4866332,110.198521 C60.3965857,109.685031 60.7372426,109.195306 61.2475117,109.10469 C61.7577807,109.014074 62.2444335,109.356881 62.3344809,109.870372 C62.709527,112.009049 61.1942912,113.999761 59.1588772,113.999761 L53.1543976,113.999761 C51.4872294,113.999761 50.3343327,113.348435 49.7287452,112.166548 C49.3164202,111.36184 49.2139578,110.55926 49.2139578,109.279148 L49.2139578,107.412605 C49.2136414,107.398527 49.2136397,107.384404 49.2139578,107.370247 L49.2139578,105.502658 C49.2139578,104.981233 49.6340042,104.558535 50.1521578,104.558535 C50.6703113,104.558535 51.0903577,104.981233 51.0903577,105.502658 L51.0903577,106.660159 C52.8110548,107.073446 54.0803134,107.100858 54.8736077,106.785365 C55.6123177,106.491579 55.9689974,105.866617 55.9689974,104.704418 C55.9689974,103.821937 55.5141413,103.351754 54.5760512,103.174342 C53.6086832,102.991393 52.3157172,103.207483 51.319761,103.704833 C50.8556138,103.936614 50.2926314,103.745868 50.0623047,103.278791 C50.0320784,103.217495 50.0090831,103.154486 49.9929906,103.090746 C49.7695126,103.402755 49.5435022,103.673856 49.3144454,103.904359 C48.9480555,104.273062 48.3540202,104.273062 47.9876303,103.904359 C47.6212404,103.535656 47.6212404,102.937871 47.9876303,102.569168 C48.8592639,101.692032 49.805018,99.788583 50.7632231,96.895821 C50.9270776,96.4011542 51.458399,96.1338165 51.9499625,96.2987054 C52.4415261,96.4635943 52.7071868,96.9982698 52.5433323,97.4929366 C52.4260726,97.8469363 52.3086556,98.1879901 52.1909938,98.5161504 L58.4083173,98.5161504 C60.6318766,98.5161504 61.5981971,100.00517 61.5981971,103.236764 C61.5981971,106.533787 60.668674,108.550724 58.6358642,109.062135 C58.1331814,109.188599 57.6238003,108.881041 57.4981296,108.375185 C57.3724589,107.869328 57.6780876,107.356732 58.1807703,107.230268 C59.1625046,106.983285 59.7217972,105.769697 59.7217972,103.236764 C59.7217972,101.959615 59.5701764,101.165733 59.31155,100.767212 C59.1443576,100.509582 58.9082509,100.404396 58.4083173,100.404396 L51.4496109,100.404396 C51.2116849,100.95296 50.9720508,101.450478 50.73001,101.89737 C52.0341765,101.308923 53.6181516,101.071882 54.9226238,101.318585 C56.6930812,101.653415 57.8453973,102.844559 57.8453973,104.704418 C57.8453973,106.592039 57.0762371,107.939735 55.5632672,108.541444 C54.4371373,108.989307 52.9528984,108.995738 51.0903577,108.596114 Z M20.5050396,97.5720278 C20.5050396,97.0506033 20.925086,96.6279052 21.4432395,96.6279052 C21.961393,96.6279052 22.3814395,97.0506033 22.3814395,97.5720278 L22.3814395,110.034446 C22.3814395,111.204468 22.0799854,112.302698 21.3630358,113.066613 C20.392011,114.101247 18.8891518,114.286762 16.9831382,113.561015 C16.4985164,113.376487 16.2543038,112.831553 16.4376743,112.343872 C16.6210447,111.856191 17.1625595,111.610437 17.6471813,111.794965 C18.9034225,112.2733 19.6082614,112.186294 19.9988684,111.770099 C20.3255844,111.421981 20.5050396,110.768206 20.5050396,110.034446 L20.5050396,97.5720278 Z M16.8003851,101.42761 C16.9642397,100.932943 17.495561,100.665605 17.9871246,100.830494 C18.4786882,100.995383 18.7443489,101.530058 18.5804944,102.024725 C17.5372062,105.174348 16.4814671,107.299155 15.3516075,108.436148 C14.9852176,108.80485 14.3911823,108.80485 14.0247924,108.436148 C13.6584025,108.067445 13.6584025,107.469659 14.0247924,107.100957 C14.896426,106.223821 15.8421801,104.320372 16.8003851,101.42761 Z M24.2201384,102.451462 C23.8220818,102.117655 23.7683004,101.522324 24.1000142,101.121755 C24.431728,100.721185 25.0233237,100.667064 25.4213803,101.000872 C27.0895765,102.399812 28.1953178,104.347074 28.7388578,106.808445 C28.8512611,107.317453 28.532338,107.821781 28.0265233,107.934894 C27.5207085,108.048007 27.0195438,107.727071 26.9071405,107.218063 C26.4499339,105.147645 25.5541819,103.570183 24.2201384,102.451462 Z M37.3926385,97.5720278 C37.3926385,97.0506033 37.812685,96.6279052 38.3308385,96.6279052 C38.848992,96.6279052 39.2690384,97.0506033 39.2690384,97.5720278 L39.2690384,110.034446 C39.2690384,111.204468 38.9675843,112.302698 38.2506347,113.066613 C37.2796099,114.101247 35.7767507,114.286762 33.8707372,113.561015 C33.3861153,113.376487 33.1419028,112.831553 33.3252732,112.343872 C33.5086437,111.856191 34.0501584,111.610437 34.5347803,111.794965 C35.7910215,112.2733 36.4958603,112.186294 36.8864673,111.770099 C37.2131833,111.421981 37.3926385,110.768206 37.3926385,110.034446 L37.3926385,97.5720278 Z M33.6879841,101.42761 C33.8518386,100.932943 34.38316,100.665605 34.8747236,100.830494 C35.3662872,100.995383 35.6319479,101.530058 35.4680933,102.024725 C34.4248052,105.174348 33.3690661,107.299155 32.2392064,108.436148 C31.8728166,108.80485 31.2787812,108.80485 30.9123914,108.436148 C30.5460015,108.067445 30.5460015,107.469659 30.9123914,107.100957 C31.7840249,106.223821 32.7297791,104.320372 33.6879841,101.42761 Z M41.1077373,102.451462 C40.7096808,102.117655 40.6558993,101.522324 40.9876131,101.121755 C41.3193269,100.721185 41.9109227,100.667064 42.3089792,101.000872 C43.9771755,102.399812 45.0829168,104.347074 45.6264567,106.808445 C45.73886,107.317453 45.419937,107.821781 44.9141222,107.934894 C44.4083075,108.048007 43.9071427,107.727071 43.7947395,107.218063 C43.3375328,105.147645 42.4417809,103.570183 41.1077373,102.451462 Z" id="Combined-Shape" fill="#D05151" fill-rule="nonzero"></path>
            </g>
        </g>
    </g>
</svg>