<svg xmlns="http://www.w3.org/2000/svg" xmlns:xlink="http://www.w3.org/1999/xlink" width="76" height="76" viewBox="0 0 76 76"><defs><path id="a" d="M38 0c20.987 0 38 17.013 38 38S58.987 76 38 76 0 58.987 0 38 17.013 0 38 0z"/></defs><g fill="none" fill-rule="evenodd"><mask id="b" fill="#fff"><use xlink:href="#a"/></mask><use fill="#33BEFE" xlink:href="#a"/><path fill="#FFF" fill-rule="nonzero" d="M27.493 36.104h4.79c1.201-.02 2.105-.391 2.71-1.114.576-.703.864-1.484.864-2.344 0-.712-.117-1.313-.351-1.801a2.69 2.69 0 0 0-1.026-1.04c-.664-.42-1.435-.62-2.314-.6h-4.673v6.899zm-3.237-9.961h7.734c.84 0 1.65.078 2.432.234.781.205 1.572.625 2.373 1.26.674.478 1.22 1.162 1.64 2.05.44.86.66 1.875.66 3.047 0 1.582-.557 3.023-1.67 4.322-1.143 1.367-2.813 2.07-5.01 2.109h-4.922V47.5h-3.237V26.143zm16.869 16.713c1.24 1.3 2.842 1.949 4.805 1.949.878 0 1.596-.171 2.153-.513.556-.342.835-.82.835-1.436 0-.546-.166-.927-.498-1.142-.342-.225-.796-.347-1.363-.366l-2.695-.235c-1.28-.117-2.32-.547-3.12-1.289-.82-.722-1.24-1.733-1.26-3.032.02-1.563.572-2.734 1.656-3.516 1.054-.78 2.392-1.172 4.013-1.172.703 0 1.333.044 1.89.132a9.523 9.523 0 0 1 1.567.41 8.936 8.936 0 0 1 2.52 1.539l-1.89 2.211a9.422 9.422 0 0 0-1.86-1.04c-.645-.244-1.387-.366-2.227-.366-.957 0-1.626.171-2.007.513-.4.342-.6.781-.6 1.318-.02.342.132.64.454.894.293.283.81.464 1.553.542l2.52.19c1.581.117 2.724.596 3.427 1.436.654.82.981 1.86.981 3.12-.02 1.475-.62 2.612-1.801 3.413-1.172.82-2.671 1.24-4.497 1.26-2.481 0-4.712-.908-6.695-2.725l2.139-2.095z" mask="url(#b)"/></g></svg>