<?xml version="1.0" standalone="no"?><!DOCTYPE svg PUBLIC "-//W3C//DTD SVG 1.1//EN" "http://www.w3.org/Graphics/SVG/1.1/DTD/svg11.dtd"><svg t="1575426014823" class="icon" viewBox="0 0 1034 1024" version="1.1" xmlns="http://www.w3.org/2000/svg" p-id="6279" width="16.15625" height="16" xmlns:xlink="http://www.w3.org/1999/xlink"><defs><style type="text/css"></style></defs><path d="M893.641768 0.904056H130.853836C59.49991 0.904056 1.338551 59.066693 1.338551 130.420619v762.786654c0 71.353926 58.161359 129.515285 129.515285 129.515284h762.787932c71.352647 0 129.515285-58.161359 129.515285-129.515284V130.420619c0-71.353926-58.162637-129.516563-129.515285-129.516563z m61.177862 150.64999v720.514685c0 45.44959-37.022817 82.317682-82.317682 82.317683H152.148381c-45.44959 0-82.318961-37.022817-82.318961-82.317683v-720.354845c0-45.44959 37.029211-82.317682 82.318961-82.317682h720.353567c45.294865-0.15984 82.317682 36.708252 82.317682 82.157842z m0 0" fill="#5D98E0" p-id="6280"></path><path d="M792.381109 326.073926v154.725275H731.641848v-96.543457H298.794695V480.799201h-60.0999V326.073926h115.084915c-20.45954-34.525475-41.558442-65.214785-63.296703-92.067932l54.985015-26.853147c22.587333 30.689311 43.895944 63.516643 63.936064 98.461539l-40.919081 20.45954h239.76024c25.574426-38.781059 48.161758-81.618222 67.772227-128.511488l62.657343 23.016983c-21.738262 42.627453-43.057103 77.792288-63.936064 105.494505h117.642358zM342.910579 424.535465h345.894106v53.706293c-39.64036 25.574426-84.615544 50.729431-134.905095 75.444556v22.377622h238.481519v57.542458H553.89959V731.428571c0 37.931988-20.24983 56.903097-60.739261 56.903097H411.961528l-14.705294-54.985015c30.689311 0.849071 55.834086 1.278721 75.444555 1.278722 13.636284 0 20.45954-8.101978 20.45954-24.295705v-76.723276H240.612877v-57.542458h252.547452v-48.591409c44.755245-19.180819 80.769151-35.584256 108.051949-49.230769H342.910579v-53.706293z m155.364636-230.169831c22.157682 32.827333 42.407512 67.352807 60.73926 103.576424l-54.345654 27.492507c-18.761399-38.361638-39.220939-73.096823-61.378621-104.215784l54.985015-26.853147z" fill="#5D98E0" p-id="6281"></path></svg>